<svg width="29" height="40" viewBox="0 0 29 40" fill="none" xmlns="http://www.w3.org/2000/svg">
<path d="M14.5 0C11.6322 0 8.82875 0.837841 6.44424 2.40757C4.05972 3.9773 2.20122 6.20842 1.10375 8.81879C0.00628262 11.4292 -0.280866 14.3015 0.27862 17.0727C0.838105 19.8438 2.2191 22.3893 4.24696 24.3872C6.27482 26.3851 8.85847 27.7457 11.6712 28.2969C14.4839 28.8481 17.3994 28.5652 20.0489 27.4839C22.6984 26.4027 24.963 24.5717 26.5563 22.2224C28.1496 19.8731 29 17.1111 29 14.2857C28.9958 10.4982 27.4667 6.86696 24.7484 4.18877C22.03 1.51059 18.3443 0.00415942 14.5 0ZM19.8534 12.46L13.7634 18.2157C13.4937 18.4711 13.1341 18.6139 12.76 18.6142C12.7199 18.6164 12.6797 18.6164 12.6397 18.6142C12.4347 18.5973 12.2357 18.5376 12.056 18.4391C11.8762 18.3405 11.7198 18.2055 11.5971 18.0428L8.9871 14.5885C8.78425 14.2842 8.70696 13.9151 8.77104 13.5566C8.83511 13.198 9.03571 12.8771 9.33186 12.6594C9.62801 12.4416 9.99737 12.3435 10.3645 12.3851C10.7316 12.4266 11.0688 12.6046 11.3071 12.8828L12.9355 15.0371L17.8408 10.4014C17.9783 10.2716 18.1404 10.1697 18.3178 10.1016C18.4953 10.0335 18.6846 10.0005 18.875 10.0045C19.0654 10.0085 19.2531 10.0493 19.4274 10.1248C19.6018 10.2003 19.7593 10.3088 19.8911 10.4443C20.0229 10.5797 20.1263 10.7394 20.1954 10.9142C20.2645 11.089 20.298 11.2756 20.294 11.4631C20.2899 11.6507 20.2484 11.8357 20.1719 12.0074C20.0953 12.1792 19.9851 12.3344 19.8476 12.4643L19.8534 12.46Z" fill="#F26B35"/>
<path d="M4.34961 28.1999V37.1428C4.35058 37.6595 4.4938 38.1664 4.76401 38.6093C5.03422 39.0523 5.4213 39.4147 5.88404 39.658C6.34679 39.9014 6.86785 40.0165 7.39175 39.9912C7.91566 39.9658 8.42278 39.801 8.85911 39.5142L14.4996 35.8142L20.1401 39.5142C20.5745 39.8045 21.0817 39.9714 21.606 39.9966C22.1303 40.0218 22.6516 39.9043 23.1126 39.657C23.5779 39.4167 23.9672 39.0552 24.2382 38.6118C24.5093 38.1685 24.6515 37.6603 24.6496 37.1428V28.1999C21.694 30.2989 18.143 31.4284 14.4996 31.4284C10.8562 31.4284 7.30519 30.2989 4.34961 28.1999Z" fill="#2A567D"/>
</svg>
