<svg width="40" height="36" viewBox="0 0 40 36" fill="none" xmlns="http://www.w3.org/2000/svg">
<path d="M23.8733 31.7175H16.0728C14.6528 31.7175 14.6528 29.5785 16.0728 29.5785H23.8733C25.2933 29.5785 25.2933 31.7175 23.8733 31.7175Z" fill="#2A567D"/>
<path d="M29.5144 36H10.4317C9.0117 36 9.0117 33.8609 10.4317 33.8609H29.5144C30.9344 33.8609 30.9344 36 29.5144 36Z" fill="#2A567D"/>
<path d="M18.9008 0C14.1716 0.255261 9.91301 2.16093 6.63672 5.10428L10.7255 9.18038C12.9042 7.2923 15.695 6.01267 18.9008 5.77594V0Z" fill="#F26B35"/>
<path d="M5.79824 18.8428C6.02616 15.7269 7.25781 12.9661 9.21043 10.6949L5.11208 6.60928C2.13953 9.90058 0.249381 14.0532 0 18.8428H5.79824Z" fill="#F26B35"/>
<path d="M5.7887 20.9818H0C0.22411 25.1877 1.73089 29.0542 4.16844 32.1744C4.54084 32.6507 5.24941 32.7025 5.71146 32.3117L8.48088 29.973C8.931 29.5928 8.97535 28.9377 8.61916 28.4686C7.01558 26.3566 5.99803 23.7816 5.7887 20.9818Z" fill="#F26B35"/>
<path d="M37.106 9.59165C36.138 10.7767 34.7014 12.534 33.0954 14.4949C33.7959 16.1662 34.2064 17.9872 34.2064 19.9124C34.2064 23.1471 33.1207 26.129 31.2925 28.5157C30.9473 28.9663 31.045 29.6152 31.4799 29.9802L34.2369 32.2938C34.7047 32.6864 35.4209 32.6327 35.7962 32.1511C38.4311 28.771 39.9999 24.5242 39.9999 19.9119C40.0004 16.0749 38.9227 12.5692 37.106 9.59165Z" fill="#F26B35"/>
<path d="M35.8293 7.76482C32.3222 3.25331 26.9589 0.319463 21.0467 0.00145531V5.7812C24.7235 6.06071 28.5004 7.7691 31.1821 11.1878C31.1821 11.1878 18.4079 20.6406 17.9535 21.094C16.9087 22.1355 16.9087 23.8244 17.9535 24.8659C18.9982 25.9074 20.6924 25.9074 21.7371 24.8659C22.4142 24.1904 35.8293 7.76482 35.8293 7.76482ZM35.7759 7.83042C35.7764 7.83042 35.7764 7.82995 35.7764 7.82995L35.7759 7.83042Z" fill="#2A567D"/>
</svg>
