<svg width="36" height="36" viewBox="0 0 36 36" fill="none" xmlns="http://www.w3.org/2000/svg">
<g clip-path="url(#clip0_221_45396)">
<path d="M2.10938 18C2.10938 9.23787 9.23787 2.10938 18 2.10938C20.9584 2.10938 23.7302 2.92275 26.1046 4.33652C26.3099 3.86142 26.6052 3.4162 26.9928 3.0285C27.1278 2.8935 27.2708 2.76975 27.4199 2.65563C24.6145 0.925875 21.3787 0 18 0C13.192 0 8.67185 1.87235 5.27203 5.27203C1.87235 8.67185 0 13.192 0 18C0 21.3789 0.926015 24.615 2.65591 27.4205C2.76933 27.2719 2.8928 27.1285 3.0285 26.9928C3.41086 26.6105 3.85397 26.3114 4.33554 26.1025C2.92233 23.7286 2.10938 20.9576 2.10938 18Z" fill="#2A567D"/>
<path d="M29.9819 8.136C30.524 8.136 31.0661 7.92921 31.4797 7.51563C32.3069 6.68841 32.3069 5.34727 31.4797 4.52011C31.0662 4.10653 30.524 3.89974 29.9819 3.89974C29.4398 3.89974 28.8978 4.10653 28.4841 4.52011C27.657 5.34727 27.657 6.68848 28.4841 7.51563C28.8977 7.92921 29.4398 8.136 29.9819 8.136Z" fill="#F26B35"/>
<path d="M33.3441 8.57953C33.2308 8.7281 33.1073 8.87147 32.9716 9.00717C32.5893 9.38946 32.1462 9.6885 31.6648 9.8974C33.0779 12.2714 33.8908 15.0424 33.8908 18C33.8908 26.7621 26.7623 33.8906 18.0001 33.8906C15.0417 33.8906 12.27 33.0772 9.8957 31.6633C9.69038 32.1384 9.39507 32.5838 9.0073 32.9715C8.8723 33.1065 8.72921 33.2303 8.58008 33.3444C11.3855 35.0741 14.6214 36 18.0001 36C22.8081 36 27.3283 34.1276 30.7281 30.728C34.1278 27.3281 36.0001 22.808 36.0001 18C36.0001 14.6211 35.0741 11.3851 33.3441 8.57953Z" fill="#2A567D"/>
<path d="M6.01763 27.864C5.47552 27.864 4.93348 28.0708 4.51983 28.4844C3.69261 29.3116 3.69261 30.6527 4.51983 31.4799C4.93341 31.8935 5.47552 32.1003 6.01763 32.1003C6.55974 32.1003 7.10178 31.8935 7.51543 31.4799C8.34265 30.6527 8.34265 29.3115 7.51543 28.4844C7.10185 28.0708 6.55974 27.864 6.01763 27.864Z" fill="#F26B35"/>
<path d="M18.8789 28.5882L25.2681 17.2731L24.7845 16.1163L19.0549 14.56V7.41185H17.1215L10.7324 18.7268L11.2158 19.8836L16.9455 21.44V28.5882H18.8789Z" fill="#F26B35"/>
</g>
<defs>
<clipPath id="clip0_221_45396">
<rect width="36" height="36" fill="white"/>
</clipPath>
</defs>
</svg>
