<svg width="238" height="238" viewBox="0 0 238 238" fill="none" xmlns="http://www.w3.org/2000/svg">
<g clip-path="url(#clip0_585_10756)">
<path d="M1.66166 3.32332C2.57937 3.32332 3.32332 2.57937 3.32332 1.66166C3.32332 0.743951 2.57937 0 1.66166 0C0.743951 0 0 0.743951 0 1.66166C0 2.57937 0.743951 3.32332 1.66166 3.32332Z" fill="#2A567D"/>
<path d="M1.66166 18.9659C2.57937 18.9659 3.32332 18.2219 3.32332 17.3042C3.32332 16.3865 2.57937 15.6426 1.66166 15.6426C0.743951 15.6426 0 16.3865 0 17.3042C0 18.2219 0.743951 18.9659 1.66166 18.9659Z" fill="#2A567D"/>
<path d="M1.66166 34.6143C2.57937 34.6143 3.32332 33.8704 3.32332 32.9527C3.32332 32.035 2.57937 31.291 1.66166 31.291C0.743951 31.291 0 32.035 0 32.9527C0 33.8704 0.743951 34.6143 1.66166 34.6143Z" fill="#2A567D"/>
<path d="M1.66166 50.2569C2.57937 50.2569 3.32332 49.513 3.32332 48.5953C3.32332 47.6775 2.57937 46.9336 1.66166 46.9336C0.743951 46.9336 0 47.6775 0 48.5953C0 49.513 0.743951 50.2569 1.66166 50.2569Z" fill="#2A567D"/>
<path d="M1.66166 65.9056C2.57937 65.9056 3.32332 65.1616 3.32332 64.2439C3.32332 63.3262 2.57937 62.5823 1.66166 62.5823C0.743951 62.5823 0 63.3262 0 64.2439C0 65.1616 0.743951 65.9056 1.66166 65.9056Z" fill="#2A567D"/>
<path d="M1.66166 81.5499C2.57937 81.5499 3.32332 80.8059 3.32332 79.8882C3.32332 78.9705 2.57937 78.2266 1.66166 78.2266C0.743951 78.2266 0 78.9705 0 79.8882C0 80.8059 0.743951 81.5499 1.66166 81.5499Z" fill="#2A567D"/>
<path d="M1.66166 97.1966C2.57937 97.1966 3.32332 96.4527 3.32332 95.535C3.32332 94.6172 2.57937 93.8733 1.66166 93.8733C0.743951 93.8733 0 94.6172 0 95.535C0 96.4527 0.743951 97.1966 1.66166 97.1966Z" fill="#2A567D"/>
<path d="M1.66166 112.841C2.57937 112.841 3.32332 112.097 3.32332 111.179C3.32332 110.262 2.57937 109.518 1.66166 109.518C0.743951 109.518 0 110.262 0 111.179C0 112.097 0.743951 112.841 1.66166 112.841Z" fill="#2A567D"/>
<path d="M1.66166 128.483C2.57937 128.483 3.32332 127.74 3.32332 126.822C3.32332 125.904 2.57937 125.16 1.66166 125.16C0.743951 125.16 0 125.904 0 126.822C0 127.74 0.743951 128.483 1.66166 128.483Z" fill="#2A567D"/>
<path d="M1.66166 140.807C0.74371 140.807 0 141.55 0 142.468C0 143.386 0.74371 144.13 1.66166 144.13C2.57961 144.13 3.32332 143.386 3.32332 142.468C3.32332 141.55 2.57961 140.807 1.66166 140.807Z" fill="#2A567D"/>
<path d="M1.66166 159.774C2.57937 159.774 3.32332 159.03 3.32332 158.113C3.32332 157.195 2.57937 156.451 1.66166 156.451C0.743951 156.451 0 157.195 0 158.113C0 159.03 0.743951 159.774 1.66166 159.774Z" fill="#2A567D"/>
<path d="M1.66166 175.423C2.57937 175.423 3.32332 174.679 3.32332 173.761C3.32332 172.844 2.57937 172.1 1.66166 172.1C0.743951 172.1 0 172.844 0 173.761C0 174.679 0.743951 175.423 1.66166 175.423Z" fill="#2A567D"/>
<path d="M1.66166 191.066C2.57937 191.066 3.32332 190.322 3.32332 189.404C3.32332 188.486 2.57937 187.742 1.66166 187.742C0.743951 187.742 0 188.486 0 189.404C0 190.322 0.743951 191.066 1.66166 191.066Z" fill="#2A567D"/>
<path d="M1.66166 206.708C2.57937 206.708 3.32332 205.964 3.32332 205.046C3.32332 204.129 2.57937 203.385 1.66166 203.385C0.743951 203.385 0 204.129 0 205.046C0 205.964 0.743951 206.708 1.66166 206.708Z" fill="#2A567D"/>
<path d="M1.66166 222.357C2.57937 222.357 3.32332 221.613 3.32332 220.695C3.32332 219.777 2.57937 219.033 1.66166 219.033C0.743951 219.033 0 219.777 0 220.695C0 221.613 0.743951 222.357 1.66166 222.357Z" fill="#2A567D"/>
<path d="M1.66166 234.676C0.74371 234.676 0 235.419 0 236.337C0 237.255 0.74371 237.999 1.66166 237.999C2.57961 237.999 3.32332 237.255 3.32332 236.337C3.32332 235.419 2.57961 234.676 1.66166 234.676Z" fill="#2A567D"/>
<path d="M236.337 234.676C235.419 234.676 234.676 235.419 234.676 236.337C234.676 237.255 235.419 237.999 236.337 237.999C237.255 237.999 237.999 237.255 237.999 236.337C237.999 235.419 237.255 234.676 236.337 234.676Z" fill="#2A567D"/>
<path d="M220.695 234.676C219.777 234.676 219.033 235.419 219.033 236.337C219.033 237.255 219.777 237.999 220.695 237.999C221.613 237.999 222.357 237.255 222.357 236.337C222.357 235.419 221.613 234.676 220.695 234.676Z" fill="#2A567D"/>
<path d="M205.046 234.676C204.128 234.676 203.385 235.419 203.385 236.337C203.385 237.255 204.128 237.999 205.046 237.999C205.964 237.999 206.708 237.255 206.708 236.337C206.708 235.419 205.964 234.676 205.046 234.676Z" fill="#2A567D"/>
<path d="M189.404 234.676C188.486 234.676 187.742 235.419 187.742 236.337C187.742 237.255 188.486 237.999 189.404 237.999C190.322 237.999 191.066 237.255 191.066 236.337C191.066 235.419 190.322 234.676 189.404 234.676Z" fill="#2A567D"/>
<path d="M173.76 234.676C172.842 234.676 172.099 235.419 172.099 236.337C172.099 237.255 172.842 237.999 173.76 237.999C174.678 237.999 175.422 237.255 175.422 236.337C175.422 235.419 174.678 234.676 173.76 234.676Z" fill="#2A567D"/>
<path d="M158.113 234.676C157.195 234.676 156.451 235.419 156.451 236.337C156.451 237.255 157.195 237.999 158.113 237.999C159.031 237.999 159.774 237.255 159.774 236.337C159.774 235.419 159.031 234.676 158.113 234.676Z" fill="#2A567D"/>
<path d="M142.469 234.676C141.551 234.676 140.808 235.419 140.808 236.337C140.808 237.255 141.551 237.999 142.469 237.999C143.387 237.999 144.131 237.255 144.131 236.337C144.131 235.419 143.387 234.676 142.469 234.676Z" fill="#2A567D"/>
<path d="M126.822 234.676C125.904 234.676 125.16 235.419 125.16 236.337C125.16 237.255 125.904 237.999 126.822 237.999C127.74 237.999 128.483 237.255 128.483 236.337C128.483 235.419 127.74 234.676 126.822 234.676Z" fill="#2A567D"/>
<path d="M111.178 234.676C110.26 234.676 109.517 235.419 109.517 236.337C109.517 237.255 110.26 237.999 111.178 237.999C112.096 237.999 112.84 237.255 112.84 236.337C112.84 235.419 112.096 234.676 111.178 234.676Z" fill="#2A567D"/>
<path d="M95.5347 234.676C94.6168 234.676 93.873 235.419 93.873 236.337C93.873 237.255 94.6168 237.999 95.5347 237.999C96.4527 237.999 97.1964 237.255 97.1964 236.337C97.1964 235.419 96.4527 234.676 95.5347 234.676Z" fill="#2A567D"/>
<path d="M79.8863 234.676C78.9683 234.676 78.2246 235.419 78.2246 236.337C78.2246 237.255 78.9683 237.999 79.8863 237.999C80.8042 237.999 81.5479 237.255 81.5479 236.337C81.5479 235.419 80.8042 234.676 79.8863 234.676Z" fill="#2A567D"/>
<path d="M64.2437 234.676C63.3257 234.676 62.582 235.419 62.582 236.337C62.582 237.255 63.3257 237.999 64.2437 237.999C65.1616 237.999 65.9054 237.255 65.9054 236.337C65.9054 235.419 65.1616 234.676 64.2437 234.676Z" fill="#2A567D"/>
<path d="M48.5953 234.676C47.6773 234.676 46.9336 235.419 46.9336 236.337C46.9336 237.255 47.6773 237.999 48.5953 237.999C49.5132 237.999 50.2569 237.255 50.2569 236.337C50.2569 235.419 49.5132 234.676 48.5953 234.676Z" fill="#2A567D"/>
<path d="M32.9527 234.676C32.0347 234.676 31.291 235.419 31.291 236.337C31.291 237.255 32.0347 237.999 32.9527 237.999C33.8706 237.999 34.6143 237.255 34.6143 236.337C34.6143 235.419 33.8706 234.676 32.9527 234.676Z" fill="#2A567D"/>
<path d="M17.3042 234.676C16.3863 234.676 15.6426 235.419 15.6426 236.337C15.6426 237.255 16.3863 237.999 17.3042 237.999C18.2222 237.999 18.9659 237.255 18.9659 236.337C18.9659 235.419 18.2222 234.676 17.3042 234.676Z" fill="#2A567D"/>
<path d="M236.337 219.033C235.419 219.033 234.676 219.777 234.676 220.695C234.676 221.613 235.419 222.357 236.337 222.357C237.255 222.357 237.999 221.613 237.999 220.695C237.999 219.777 237.255 219.033 236.337 219.033Z" fill="#2A567D"/>
<path d="M220.695 219.033C219.777 219.033 219.033 219.777 219.033 220.695C219.033 221.613 219.777 222.357 220.695 222.357C221.613 222.357 222.357 221.613 222.357 220.695C222.357 219.777 221.613 219.033 220.695 219.033Z" fill="#2A567D"/>
<path d="M205.046 219.033C204.128 219.033 203.385 219.777 203.385 220.695C203.385 221.613 204.128 222.357 205.046 222.357C205.964 222.357 206.708 221.613 206.708 220.695C206.708 219.777 205.964 219.033 205.046 219.033Z" fill="#2A567D"/>
<path d="M189.404 219.033C188.486 219.033 187.742 219.777 187.742 220.695C187.742 221.613 188.486 222.357 189.404 222.357C190.322 222.357 191.066 221.613 191.066 220.695C191.066 219.777 190.322 219.033 189.404 219.033Z" fill="#2A567D"/>
<path d="M173.76 219.033C172.842 219.033 172.099 219.777 172.099 220.695C172.099 221.613 172.842 222.357 173.76 222.357C174.678 222.357 175.422 221.613 175.422 220.695C175.422 219.777 174.678 219.033 173.76 219.033Z" fill="#2A567D"/>
<path d="M158.113 222.357C159.031 222.357 159.774 221.613 159.774 220.695C159.774 219.777 159.031 219.033 158.113 219.033C157.195 219.033 156.451 219.777 156.451 220.695C156.451 221.613 157.195 222.357 158.113 222.357Z" fill="#2A567D"/>
<path d="M142.469 219.033C141.551 219.033 140.808 219.777 140.808 220.695C140.808 221.613 141.551 222.357 142.469 222.357C143.387 222.357 144.131 221.613 144.131 220.695C144.131 219.777 143.387 219.033 142.469 219.033Z" fill="#2A567D"/>
<path d="M126.822 219.033C125.904 219.033 125.16 219.777 125.16 220.695C125.16 221.613 125.904 222.357 126.822 222.357C127.74 222.357 128.483 221.613 128.483 220.695C128.483 219.777 127.74 219.033 126.822 219.033Z" fill="#2A567D"/>
<path d="M111.178 219.033C110.26 219.033 109.517 219.777 109.517 220.695C109.517 221.613 110.26 222.357 111.178 222.357C112.096 222.357 112.84 221.613 112.84 220.695C112.84 219.777 112.096 219.033 111.178 219.033Z" fill="#2A567D"/>
<path d="M95.5347 222.357C96.4524 222.357 97.1964 221.613 97.1964 220.695C97.1964 219.777 96.4524 219.033 95.5347 219.033C94.617 219.033 93.873 219.777 93.873 220.695C93.873 221.613 94.617 222.357 95.5347 222.357Z" fill="#2A567D"/>
<path d="M79.8863 219.033C78.9683 219.033 78.2246 219.777 78.2246 220.695C78.2246 221.613 78.9683 222.357 79.8863 222.357C80.8042 222.357 81.5479 221.613 81.5479 220.695C81.5479 219.777 80.8042 219.033 79.8863 219.033Z" fill="#2A567D"/>
<path d="M64.2437 219.033C63.3257 219.033 62.582 219.777 62.582 220.695C62.582 221.613 63.3257 222.357 64.2437 222.357C65.1616 222.357 65.9054 221.613 65.9054 220.695C65.9054 219.777 65.1616 219.033 64.2437 219.033Z" fill="#2A567D"/>
<path d="M48.5953 219.033C47.6773 219.033 46.9336 219.777 46.9336 220.695C46.9336 221.613 47.6773 222.357 48.5953 222.357C49.5132 222.357 50.2569 221.613 50.2569 220.695C50.2569 219.777 49.5132 219.033 48.5953 219.033Z" fill="#2A567D"/>
<path d="M32.9527 219.033C32.0347 219.033 31.291 219.777 31.291 220.695C31.291 221.613 32.0347 222.357 32.9527 222.357C33.8706 222.357 34.6143 221.613 34.6143 220.695C34.6143 219.777 33.8706 219.033 32.9527 219.033Z" fill="#2A567D"/>
<path d="M17.3042 219.033C16.3863 219.033 15.6426 219.777 15.6426 220.695C15.6426 221.613 16.3863 222.357 17.3042 222.357C18.2222 222.357 18.9659 221.613 18.9659 220.695C18.9659 219.777 18.2222 219.033 17.3042 219.033Z" fill="#2A567D"/>
<path d="M236.337 203.385C235.419 203.385 234.676 204.128 234.676 205.046C234.676 205.964 235.419 206.708 236.337 206.708C237.255 206.708 237.999 205.964 237.999 205.046C237.999 204.128 237.255 203.385 236.337 203.385Z" fill="#2A567D"/>
<path d="M220.695 203.385C219.777 203.385 219.033 204.128 219.033 205.046C219.033 205.964 219.777 206.708 220.695 206.708C221.613 206.708 222.357 205.964 222.357 205.046C222.357 204.128 221.613 203.385 220.695 203.385Z" fill="#2A567D"/>
<path d="M205.046 203.385C204.128 203.385 203.385 204.128 203.385 205.046C203.385 205.964 204.128 206.708 205.046 206.708C205.964 206.708 206.708 205.964 206.708 205.046C206.708 204.128 205.964 203.385 205.046 203.385Z" fill="#2A567D"/>
<path d="M189.404 203.385C188.486 203.385 187.742 204.128 187.742 205.046C187.742 205.964 188.486 206.708 189.404 206.708C190.322 206.708 191.066 205.964 191.066 205.046C191.066 204.128 190.322 203.385 189.404 203.385Z" fill="#2A567D"/>
<path d="M173.76 203.385C172.842 203.385 172.099 204.128 172.099 205.046C172.099 205.964 172.842 206.708 173.76 206.708C174.678 206.708 175.422 205.964 175.422 205.046C175.422 204.128 174.678 203.385 173.76 203.385Z" fill="#2A567D"/>
<path d="M158.113 206.708C159.031 206.708 159.774 205.964 159.774 205.046C159.774 204.129 159.031 203.385 158.113 203.385C157.195 203.385 156.451 204.129 156.451 205.046C156.451 205.964 157.195 206.708 158.113 206.708Z" fill="#2A567D"/>
<path d="M142.469 203.385C141.551 203.385 140.808 204.128 140.808 205.046C140.808 205.964 141.551 206.708 142.469 206.708C143.387 206.708 144.131 205.964 144.131 205.046C144.131 204.128 143.387 203.385 142.469 203.385Z" fill="#2A567D"/>
<path d="M126.822 203.385C125.904 203.385 125.16 204.128 125.16 205.046C125.16 205.964 125.904 206.708 126.822 206.708C127.74 206.708 128.483 205.964 128.483 205.046C128.483 204.128 127.74 203.385 126.822 203.385Z" fill="#2A567D"/>
<path d="M111.178 203.385C110.26 203.385 109.517 204.128 109.517 205.046C109.517 205.964 110.26 206.708 111.178 206.708C112.096 206.708 112.84 205.964 112.84 205.046C112.84 204.128 112.096 203.385 111.178 203.385Z" fill="#2A567D"/>
<path d="M95.5347 206.708C96.4524 206.708 97.1964 205.964 97.1964 205.046C97.1964 204.129 96.4524 203.385 95.5347 203.385C94.617 203.385 93.873 204.129 93.873 205.046C93.873 205.964 94.617 206.708 95.5347 206.708Z" fill="#2A567D"/>
<path d="M79.8863 203.385C78.9683 203.385 78.2246 204.128 78.2246 205.046C78.2246 205.964 78.9683 206.708 79.8863 206.708C80.8042 206.708 81.5479 205.964 81.5479 205.046C81.5479 204.128 80.8042 203.385 79.8863 203.385Z" fill="#2A567D"/>
<path d="M64.2437 203.385C63.3257 203.385 62.582 204.128 62.582 205.046C62.582 205.964 63.3257 206.708 64.2437 206.708C65.1616 206.708 65.9054 205.964 65.9054 205.046C65.9054 204.128 65.1616 203.385 64.2437 203.385Z" fill="#2A567D"/>
<path d="M48.5953 203.385C47.6773 203.385 46.9336 204.128 46.9336 205.046C46.9336 205.964 47.6773 206.708 48.5953 206.708C49.5132 206.708 50.2569 205.964 50.2569 205.046C50.2569 204.128 49.5132 203.385 48.5953 203.385Z" fill="#2A567D"/>
<path d="M32.9527 203.385C32.0347 203.385 31.291 204.128 31.291 205.046C31.291 205.964 32.0347 206.708 32.9527 206.708C33.8706 206.708 34.6143 205.964 34.6143 205.046C34.6143 204.128 33.8706 203.385 32.9527 203.385Z" fill="#2A567D"/>
<path d="M17.3042 203.385C16.3863 203.385 15.6426 204.128 15.6426 205.046C15.6426 205.964 16.3863 206.708 17.3042 206.708C18.2222 206.708 18.9659 205.964 18.9659 205.046C18.9659 204.128 18.2222 203.385 17.3042 203.385Z" fill="#2A567D"/>
<path d="M236.337 187.742C235.419 187.742 234.676 188.486 234.676 189.404C234.676 190.322 235.419 191.066 236.337 191.066C237.255 191.066 237.999 190.322 237.999 189.404C237.999 188.486 237.255 187.742 236.337 187.742Z" fill="#2A567D"/>
<path d="M220.695 187.742C219.777 187.742 219.033 188.486 219.033 189.404C219.033 190.322 219.777 191.066 220.695 191.066C221.613 191.066 222.357 190.322 222.357 189.404C222.357 188.486 221.613 187.742 220.695 187.742Z" fill="#2A567D"/>
<path d="M205.046 187.742C204.128 187.742 203.385 188.486 203.385 189.404C203.385 190.322 204.128 191.066 205.046 191.066C205.964 191.066 206.708 190.322 206.708 189.404C206.708 188.486 205.964 187.742 205.046 187.742Z" fill="#2A567D"/>
<path d="M189.404 187.742C188.486 187.742 187.742 188.486 187.742 189.404C187.742 190.322 188.486 191.066 189.404 191.066C190.322 191.066 191.066 190.322 191.066 189.404C191.066 188.486 190.322 187.742 189.404 187.742Z" fill="#2A567D"/>
<path d="M173.76 187.742C172.842 187.742 172.099 188.486 172.099 189.404C172.099 190.322 172.842 191.066 173.76 191.066C174.678 191.066 175.422 190.322 175.422 189.404C175.422 188.486 174.678 187.742 173.76 187.742Z" fill="#2A567D"/>
<path d="M158.113 191.066C159.031 191.066 159.774 190.322 159.774 189.404C159.774 188.486 159.031 187.742 158.113 187.742C157.195 187.742 156.451 188.486 156.451 189.404C156.451 190.322 157.195 191.066 158.113 191.066Z" fill="#2A567D"/>
<path d="M142.469 187.742C141.551 187.742 140.808 188.486 140.808 189.404C140.808 190.322 141.551 191.066 142.469 191.066C143.387 191.066 144.131 190.322 144.131 189.404C144.131 188.486 143.387 187.742 142.469 187.742Z" fill="#2A567D"/>
<path d="M126.822 187.742C125.904 187.742 125.16 188.486 125.16 189.404C125.16 190.322 125.904 191.066 126.822 191.066C127.74 191.066 128.483 190.322 128.483 189.404C128.483 188.486 127.74 187.742 126.822 187.742Z" fill="#2A567D"/>
<path d="M111.178 187.742C110.26 187.742 109.517 188.486 109.517 189.404C109.517 190.322 110.26 191.066 111.178 191.066C112.096 191.066 112.84 190.322 112.84 189.404C112.84 188.486 112.096 187.742 111.178 187.742Z" fill="#2A567D"/>
<path d="M95.5347 191.066C96.4524 191.066 97.1964 190.322 97.1964 189.404C97.1964 188.486 96.4524 187.742 95.5347 187.742C94.617 187.742 93.873 188.486 93.873 189.404C93.873 190.322 94.617 191.066 95.5347 191.066Z" fill="#2A567D"/>
<path d="M79.8863 187.742C78.9683 187.742 78.2246 188.486 78.2246 189.404C78.2246 190.322 78.9683 191.066 79.8863 191.066C80.8042 191.066 81.5479 190.322 81.5479 189.404C81.5479 188.486 80.8042 187.742 79.8863 187.742Z" fill="#2A567D"/>
<path d="M64.2437 187.742C63.3257 187.742 62.582 188.486 62.582 189.404C62.582 190.322 63.3257 191.066 64.2437 191.066C65.1616 191.066 65.9054 190.322 65.9054 189.404C65.9054 188.486 65.1616 187.742 64.2437 187.742Z" fill="#2A567D"/>
<path d="M48.5953 187.742C47.6773 187.742 46.9336 188.486 46.9336 189.404C46.9336 190.322 47.6773 191.066 48.5953 191.066C49.5132 191.066 50.2569 190.322 50.2569 189.404C50.2569 188.486 49.5132 187.742 48.5953 187.742Z" fill="#2A567D"/>
<path d="M32.9527 187.742C32.0347 187.742 31.291 188.486 31.291 189.404C31.291 190.322 32.0347 191.066 32.9527 191.066C33.8706 191.066 34.6143 190.322 34.6143 189.404C34.6143 188.486 33.8706 187.742 32.9527 187.742Z" fill="#2A567D"/>
<path d="M17.3042 187.742C16.3863 187.742 15.6426 188.486 15.6426 189.404C15.6426 190.322 16.3863 191.066 17.3042 191.066C18.2222 191.066 18.9659 190.322 18.9659 189.404C18.9659 188.486 18.2222 187.742 17.3042 187.742Z" fill="#2A567D"/>
<path d="M236.337 172.1C235.419 172.1 234.676 172.843 234.676 173.761C234.676 174.679 235.419 175.423 236.337 175.423C237.255 175.423 237.999 174.679 237.999 173.761C237.999 172.843 237.255 172.1 236.337 172.1Z" fill="#2A567D"/>
<path d="M220.695 172.1C219.777 172.1 219.033 172.843 219.033 173.761C219.033 174.679 219.777 175.423 220.695 175.423C221.613 175.423 222.357 174.679 222.357 173.761C222.357 172.843 221.613 172.1 220.695 172.1Z" fill="#2A567D"/>
<path d="M205.046 172.1C204.128 172.1 203.385 172.843 203.385 173.761C203.385 174.679 204.128 175.423 205.046 175.423C205.964 175.423 206.708 174.679 206.708 173.761C206.708 172.843 205.964 172.1 205.046 172.1Z" fill="#2A567D"/>
<path d="M189.404 172.1C188.486 172.1 187.742 172.843 187.742 173.761C187.742 174.679 188.486 175.423 189.404 175.423C190.322 175.423 191.066 174.679 191.066 173.761C191.066 172.843 190.322 172.1 189.404 172.1Z" fill="#2A567D"/>
<path d="M173.76 172.1C172.842 172.1 172.099 172.843 172.099 173.761C172.099 174.679 172.842 175.423 173.76 175.423C174.678 175.423 175.422 174.679 175.422 173.761C175.422 172.843 174.678 172.1 173.76 172.1Z" fill="#2A567D"/>
<path d="M158.113 175.423C159.031 175.423 159.774 174.679 159.774 173.761C159.774 172.844 159.031 172.1 158.113 172.1C157.195 172.1 156.451 172.844 156.451 173.761C156.451 174.679 157.195 175.423 158.113 175.423Z" fill="#2A567D"/>
<path d="M142.469 172.1C141.551 172.1 140.808 172.843 140.808 173.761C140.808 174.679 141.551 175.423 142.469 175.423C143.387 175.423 144.131 174.679 144.131 173.761C144.131 172.843 143.387 172.1 142.469 172.1Z" fill="#2A567D"/>
<path d="M126.822 172.1C125.904 172.1 125.16 172.843 125.16 173.761C125.16 174.679 125.904 175.423 126.822 175.423C127.74 175.423 128.483 174.679 128.483 173.761C128.483 172.843 127.74 172.1 126.822 172.1Z" fill="#2A567D"/>
<path d="M111.178 172.1C110.26 172.1 109.517 172.843 109.517 173.761C109.517 174.679 110.26 175.423 111.178 175.423C112.096 175.423 112.84 174.679 112.84 173.761C112.84 172.843 112.096 172.1 111.178 172.1Z" fill="#2A567D"/>
<path d="M95.5347 175.423C96.4524 175.423 97.1964 174.679 97.1964 173.761C97.1964 172.844 96.4524 172.1 95.5347 172.1C94.617 172.1 93.873 172.844 93.873 173.761C93.873 174.679 94.617 175.423 95.5347 175.423Z" fill="#2A567D"/>
<path d="M79.8863 172.1C78.9683 172.1 78.2246 172.843 78.2246 173.761C78.2246 174.679 78.9683 175.423 79.8863 175.423C80.8042 175.423 81.5479 174.679 81.5479 173.761C81.5479 172.843 80.8042 172.1 79.8863 172.1Z" fill="#2A567D"/>
<path d="M64.2437 172.1C63.3257 172.1 62.582 172.843 62.582 173.761C62.582 174.679 63.3257 175.423 64.2437 175.423C65.1616 175.423 65.9054 174.679 65.9054 173.761C65.9054 172.843 65.1616 172.1 64.2437 172.1Z" fill="#2A567D"/>
<path d="M48.5953 172.1C47.6773 172.1 46.9336 172.843 46.9336 173.761C46.9336 174.679 47.6773 175.423 48.5953 175.423C49.5132 175.423 50.2569 174.679 50.2569 173.761C50.2569 172.843 49.5132 172.1 48.5953 172.1Z" fill="#2A567D"/>
<path d="M32.9527 172.1C32.0347 172.1 31.291 172.843 31.291 173.761C31.291 174.679 32.0347 175.423 32.9527 175.423C33.8706 175.423 34.6143 174.679 34.6143 173.761C34.6143 172.843 33.8706 172.1 32.9527 172.1Z" fill="#2A567D"/>
<path d="M17.3042 172.1C16.3863 172.1 15.6426 172.843 15.6426 173.761C15.6426 174.679 16.3863 175.423 17.3042 175.423C18.2222 175.423 18.9659 174.679 18.9659 173.761C18.9659 172.843 18.2222 172.1 17.3042 172.1Z" fill="#2A567D"/>
<path d="M236.337 156.451C235.419 156.451 234.676 157.195 234.676 158.113C234.676 159.031 235.419 159.774 236.337 159.774C237.255 159.774 237.999 159.031 237.999 158.113C237.999 157.195 237.255 156.451 236.337 156.451Z" fill="#2A567D"/>
<path d="M220.695 156.451C219.777 156.451 219.033 157.195 219.033 158.113C219.033 159.031 219.777 159.774 220.695 159.774C221.613 159.774 222.357 159.031 222.357 158.113C222.357 157.195 221.613 156.451 220.695 156.451Z" fill="#2A567D"/>
<path d="M205.046 156.451C204.128 156.451 203.385 157.195 203.385 158.113C203.385 159.031 204.128 159.774 205.046 159.774C205.964 159.774 206.708 159.031 206.708 158.113C206.708 157.195 205.964 156.451 205.046 156.451Z" fill="#2A567D"/>
<path d="M189.404 156.451C188.486 156.451 187.742 157.195 187.742 158.113C187.742 159.031 188.486 159.774 189.404 159.774C190.322 159.774 191.066 159.031 191.066 158.113C191.066 157.195 190.322 156.451 189.404 156.451Z" fill="#2A567D"/>
<path d="M173.76 156.451C172.842 156.451 172.099 157.195 172.099 158.113C172.099 159.031 172.842 159.774 173.76 159.774C174.678 159.774 175.422 159.031 175.422 158.113C175.422 157.195 174.678 156.451 173.76 156.451Z" fill="#2A567D"/>
<path d="M158.113 159.774C159.031 159.774 159.774 159.03 159.774 158.113C159.774 157.195 159.031 156.451 158.113 156.451C157.195 156.451 156.451 157.195 156.451 158.113C156.451 159.03 157.195 159.774 158.113 159.774Z" fill="#2A567D"/>
<path d="M142.469 156.451C141.551 156.451 140.808 157.195 140.808 158.113C140.808 159.031 141.551 159.774 142.469 159.774C143.387 159.774 144.131 159.031 144.131 158.113C144.131 157.195 143.387 156.451 142.469 156.451Z" fill="#2A567D"/>
<path d="M126.822 156.451C125.904 156.451 125.16 157.195 125.16 158.113C125.16 159.031 125.904 159.774 126.822 159.774C127.74 159.774 128.483 159.031 128.483 158.113C128.483 157.195 127.74 156.451 126.822 156.451Z" fill="#2A567D"/>
<path d="M111.178 156.451C110.26 156.451 109.517 157.195 109.517 158.113C109.517 159.031 110.26 159.774 111.178 159.774C112.096 159.774 112.84 159.031 112.84 158.113C112.84 157.195 112.096 156.451 111.178 156.451Z" fill="#2A567D"/>
<path d="M95.5347 159.774C96.4524 159.774 97.1964 159.03 97.1964 158.113C97.1964 157.195 96.4524 156.451 95.5347 156.451C94.617 156.451 93.873 157.195 93.873 158.113C93.873 159.03 94.617 159.774 95.5347 159.774Z" fill="#2A567D"/>
<path d="M79.8863 156.451C78.9683 156.451 78.2246 157.195 78.2246 158.113C78.2246 159.031 78.9683 159.774 79.8863 159.774C80.8042 159.774 81.5479 159.031 81.5479 158.113C81.5479 157.195 80.8042 156.451 79.8863 156.451Z" fill="#2A567D"/>
<path d="M64.2437 156.451C63.3257 156.451 62.582 157.195 62.582 158.113C62.582 159.031 63.3257 159.774 64.2437 159.774C65.1616 159.774 65.9054 159.031 65.9054 158.113C65.9054 157.195 65.1616 156.451 64.2437 156.451Z" fill="#2A567D"/>
<path d="M48.5953 156.451C47.6773 156.451 46.9336 157.195 46.9336 158.113C46.9336 159.031 47.6773 159.774 48.5953 159.774C49.5132 159.774 50.2569 159.031 50.2569 158.113C50.2569 157.195 49.5132 156.451 48.5953 156.451Z" fill="#2A567D"/>
<path d="M32.9527 156.451C32.0347 156.451 31.291 157.195 31.291 158.113C31.291 159.031 32.0347 159.774 32.9527 159.774C33.8706 159.774 34.6143 159.031 34.6143 158.113C34.6143 157.195 33.8706 156.451 32.9527 156.451Z" fill="#2A567D"/>
<path d="M17.3042 156.451C16.3863 156.451 15.6426 157.195 15.6426 158.113C15.6426 159.031 16.3863 159.774 17.3042 159.774C18.2222 159.774 18.9659 159.031 18.9659 158.113C18.9659 157.195 18.2222 156.451 17.3042 156.451Z" fill="#2A567D"/>
<path d="M236.337 140.807C235.419 140.807 234.676 141.55 234.676 142.468C234.676 143.386 235.419 144.13 236.337 144.13C237.255 144.13 237.999 143.386 237.999 142.468C237.999 141.55 237.255 140.807 236.337 140.807Z" fill="#2A567D"/>
<path d="M220.695 140.807C219.777 140.807 219.033 141.55 219.033 142.468C219.033 143.386 219.777 144.13 220.695 144.13C221.613 144.13 222.357 143.386 222.357 142.468C222.357 141.55 221.613 140.807 220.695 140.807Z" fill="#2A567D"/>
<path d="M205.046 140.807C204.128 140.807 203.385 141.55 203.385 142.468C203.385 143.386 204.128 144.13 205.046 144.13C205.964 144.13 206.708 143.386 206.708 142.468C206.708 141.55 205.964 140.807 205.046 140.807Z" fill="#2A567D"/>
<path d="M189.404 140.807C188.486 140.807 187.742 141.55 187.742 142.468C187.742 143.386 188.486 144.13 189.404 144.13C190.322 144.13 191.066 143.386 191.066 142.468C191.066 141.55 190.322 140.807 189.404 140.807Z" fill="#2A567D"/>
<path d="M173.76 140.807C172.842 140.807 172.099 141.55 172.099 142.468C172.099 143.386 172.842 144.13 173.76 144.13C174.678 144.13 175.422 143.386 175.422 142.468C175.422 141.55 174.678 140.807 173.76 140.807Z" fill="#2A567D"/>
<path d="M158.113 140.807C157.195 140.807 156.451 141.55 156.451 142.468C156.451 143.386 157.195 144.13 158.113 144.13C159.031 144.13 159.774 143.386 159.774 142.468C159.774 141.55 159.031 140.807 158.113 140.807Z" fill="#2A567D"/>
<path d="M142.469 140.807C141.551 140.807 140.808 141.55 140.808 142.468C140.808 143.386 141.551 144.13 142.469 144.13C143.387 144.13 144.131 143.386 144.131 142.468C144.131 141.55 143.387 140.807 142.469 140.807Z" fill="#2A567D"/>
<path d="M126.822 140.807C125.904 140.807 125.16 141.55 125.16 142.468C125.16 143.386 125.904 144.13 126.822 144.13C127.74 144.13 128.483 143.386 128.483 142.468C128.483 141.55 127.74 140.807 126.822 140.807Z" fill="#2A567D"/>
<path d="M111.178 140.807C110.26 140.807 109.517 141.55 109.517 142.468C109.517 143.386 110.26 144.13 111.178 144.13C112.096 144.13 112.84 143.386 112.84 142.468C112.84 141.55 112.096 140.807 111.178 140.807Z" fill="#2A567D"/>
<path d="M95.5347 140.807C94.6168 140.807 93.873 141.55 93.873 142.468C93.873 143.386 94.6168 144.13 95.5347 144.13C96.4527 144.13 97.1964 143.386 97.1964 142.468C97.1964 141.55 96.4527 140.807 95.5347 140.807Z" fill="#2A567D"/>
<path d="M79.8863 140.807C78.9683 140.807 78.2246 141.55 78.2246 142.468C78.2246 143.386 78.9683 144.13 79.8863 144.13C80.8042 144.13 81.5479 143.386 81.5479 142.468C81.5479 141.55 80.8042 140.807 79.8863 140.807Z" fill="#2A567D"/>
<path d="M64.2437 140.807C63.3257 140.807 62.582 141.55 62.582 142.468C62.582 143.386 63.3257 144.13 64.2437 144.13C65.1616 144.13 65.9054 143.386 65.9054 142.468C65.9054 141.55 65.1616 140.807 64.2437 140.807Z" fill="#2A567D"/>
<path d="M48.5953 140.807C47.6773 140.807 46.9336 141.55 46.9336 142.468C46.9336 143.386 47.6773 144.13 48.5953 144.13C49.5132 144.13 50.2569 143.386 50.2569 142.468C50.2569 141.55 49.5132 140.807 48.5953 140.807Z" fill="#2A567D"/>
<path d="M32.9527 140.807C32.0347 140.807 31.291 141.55 31.291 142.468C31.291 143.386 32.0347 144.13 32.9527 144.13C33.8706 144.13 34.6143 143.386 34.6143 142.468C34.6143 141.55 33.8706 140.807 32.9527 140.807Z" fill="#2A567D"/>
<path d="M17.3042 140.807C16.3863 140.807 15.6426 141.55 15.6426 142.468C15.6426 143.386 16.3863 144.13 17.3042 144.13C18.2222 144.13 18.9659 143.386 18.9659 142.468C18.9659 141.55 18.2222 140.807 17.3042 140.807Z" fill="#2A567D"/>
<path d="M236.337 125.16C235.419 125.16 234.676 125.904 234.676 126.822C234.676 127.74 235.419 128.483 236.337 128.483C237.255 128.483 237.999 127.74 237.999 126.822C237.999 125.904 237.255 125.16 236.337 125.16Z" fill="#2A567D"/>
<path d="M220.695 125.16C219.777 125.16 219.033 125.904 219.033 126.822C219.033 127.74 219.777 128.483 220.695 128.483C221.613 128.483 222.357 127.74 222.357 126.822C222.357 125.904 221.613 125.16 220.695 125.16Z" fill="#2A567D"/>
<path d="M205.046 125.16C204.128 125.16 203.385 125.904 203.385 126.822C203.385 127.74 204.128 128.483 205.046 128.483C205.964 128.483 206.708 127.74 206.708 126.822C206.708 125.904 205.964 125.16 205.046 125.16Z" fill="#2A567D"/>
<path d="M189.404 125.16C188.486 125.16 187.742 125.904 187.742 126.822C187.742 127.74 188.486 128.483 189.404 128.483C190.322 128.483 191.066 127.74 191.066 126.822C191.066 125.904 190.322 125.16 189.404 125.16Z" fill="#2A567D"/>
<path d="M173.76 125.16C172.842 125.16 172.099 125.904 172.099 126.822C172.099 127.74 172.842 128.483 173.76 128.483C174.678 128.483 175.422 127.74 175.422 126.822C175.422 125.904 174.678 125.16 173.76 125.16Z" fill="#2A567D"/>
<path d="M158.113 128.483C159.031 128.483 159.774 127.74 159.774 126.822C159.774 125.904 159.031 125.16 158.113 125.16C157.195 125.16 156.451 125.904 156.451 126.822C156.451 127.74 157.195 128.483 158.113 128.483Z" fill="#2A567D"/>
<path d="M142.469 125.16C141.551 125.16 140.808 125.904 140.808 126.822C140.808 127.74 141.551 128.483 142.469 128.483C143.387 128.483 144.131 127.74 144.131 126.822C144.131 125.904 143.387 125.16 142.469 125.16Z" fill="#2A567D"/>
<path d="M126.822 125.16C125.904 125.16 125.16 125.904 125.16 126.822C125.16 127.74 125.904 128.483 126.822 128.483C127.74 128.483 128.483 127.74 128.483 126.822C128.483 125.904 127.74 125.16 126.822 125.16Z" fill="#2A567D"/>
<path d="M111.178 125.16C110.26 125.16 109.517 125.904 109.517 126.822C109.517 127.74 110.26 128.483 111.178 128.483C112.096 128.483 112.84 127.74 112.84 126.822C112.84 125.904 112.096 125.16 111.178 125.16Z" fill="#2A567D"/>
<path d="M95.5347 128.483C96.4524 128.483 97.1964 127.74 97.1964 126.822C97.1964 125.904 96.4524 125.16 95.5347 125.16C94.617 125.16 93.873 125.904 93.873 126.822C93.873 127.74 94.617 128.483 95.5347 128.483Z" fill="#2A567D"/>
<path d="M79.8863 125.16C78.9683 125.16 78.2246 125.904 78.2246 126.822C78.2246 127.74 78.9683 128.483 79.8863 128.483C80.8042 128.483 81.5479 127.74 81.5479 126.822C81.5479 125.904 80.8042 125.16 79.8863 125.16Z" fill="#2A567D"/>
<path d="M64.2437 125.16C63.3257 125.16 62.582 125.904 62.582 126.822C62.582 127.74 63.3257 128.483 64.2437 128.483C65.1616 128.483 65.9054 127.74 65.9054 126.822C65.9054 125.904 65.1616 125.16 64.2437 125.16Z" fill="#2A567D"/>
<path d="M48.5953 125.16C47.6773 125.16 46.9336 125.904 46.9336 126.822C46.9336 127.74 47.6773 128.483 48.5953 128.483C49.5132 128.483 50.2569 127.74 50.2569 126.822C50.2569 125.904 49.5132 125.16 48.5953 125.16Z" fill="#2A567D"/>
<path d="M32.9527 125.16C32.0347 125.16 31.291 125.904 31.291 126.822C31.291 127.74 32.0347 128.483 32.9527 128.483C33.8706 128.483 34.6143 127.74 34.6143 126.822C34.6143 125.904 33.8706 125.16 32.9527 125.16Z" fill="#2A567D"/>
<path d="M17.3042 125.16C16.3863 125.16 15.6426 125.904 15.6426 126.822C15.6426 127.74 16.3863 128.483 17.3042 128.483C18.2222 128.483 18.9659 127.74 18.9659 126.822C18.9659 125.904 18.2222 125.16 17.3042 125.16Z" fill="#2A567D"/>
<path d="M236.337 109.518C235.419 109.518 234.676 110.261 234.676 111.179C234.676 112.097 235.419 112.841 236.337 112.841C237.255 112.841 237.999 112.097 237.999 111.179C237.999 110.261 237.255 109.518 236.337 109.518Z" fill="#2A567D"/>
<path d="M220.695 109.518C219.777 109.518 219.033 110.261 219.033 111.179C219.033 112.097 219.777 112.841 220.695 112.841C221.613 112.841 222.357 112.097 222.357 111.179C222.357 110.261 221.613 109.518 220.695 109.518Z" fill="#2A567D"/>
<path d="M205.046 109.518C204.128 109.518 203.385 110.261 203.385 111.179C203.385 112.097 204.128 112.841 205.046 112.841C205.964 112.841 206.708 112.097 206.708 111.179C206.708 110.261 205.964 109.518 205.046 109.518Z" fill="#2A567D"/>
<path d="M189.404 109.518C188.486 109.518 187.742 110.261 187.742 111.179C187.742 112.097 188.486 112.841 189.404 112.841C190.322 112.841 191.066 112.097 191.066 111.179C191.066 110.261 190.322 109.518 189.404 109.518Z" fill="#2A567D"/>
<path d="M173.76 109.518C172.842 109.518 172.099 110.261 172.099 111.179C172.099 112.097 172.842 112.841 173.76 112.841C174.678 112.841 175.422 112.097 175.422 111.179C175.422 110.261 174.678 109.518 173.76 109.518Z" fill="#2A567D"/>
<path d="M158.113 112.841C159.031 112.841 159.774 112.097 159.774 111.179C159.774 110.262 159.031 109.518 158.113 109.518C157.195 109.518 156.451 110.262 156.451 111.179C156.451 112.097 157.195 112.841 158.113 112.841Z" fill="#2A567D"/>
<path d="M142.469 109.518C141.551 109.518 140.808 110.261 140.808 111.179C140.808 112.097 141.551 112.841 142.469 112.841C143.387 112.841 144.131 112.097 144.131 111.179C144.131 110.261 143.387 109.518 142.469 109.518Z" fill="#2A567D"/>
<path d="M126.822 109.518C125.904 109.518 125.16 110.261 125.16 111.179C125.16 112.097 125.904 112.841 126.822 112.841C127.74 112.841 128.483 112.097 128.483 111.179C128.483 110.261 127.74 109.518 126.822 109.518Z" fill="#2A567D"/>
<path d="M111.178 109.518C110.26 109.518 109.517 110.261 109.517 111.179C109.517 112.097 110.26 112.841 111.178 112.841C112.096 112.841 112.84 112.097 112.84 111.179C112.84 110.261 112.096 109.518 111.178 109.518Z" fill="#2A567D"/>
<path d="M95.5347 112.841C96.4524 112.841 97.1964 112.097 97.1964 111.179C97.1964 110.262 96.4524 109.518 95.5347 109.518C94.617 109.518 93.873 110.262 93.873 111.179C93.873 112.097 94.617 112.841 95.5347 112.841Z" fill="#2A567D"/>
<path d="M79.8863 109.518C78.9683 109.518 78.2246 110.261 78.2246 111.179C78.2246 112.097 78.9683 112.841 79.8863 112.841C80.8042 112.841 81.5479 112.097 81.5479 111.179C81.5479 110.261 80.8042 109.518 79.8863 109.518Z" fill="#2A567D"/>
<path d="M64.2437 109.518C63.3257 109.518 62.582 110.261 62.582 111.179C62.582 112.097 63.3257 112.841 64.2437 112.841C65.1616 112.841 65.9054 112.097 65.9054 111.179C65.9054 110.261 65.1616 109.518 64.2437 109.518Z" fill="#2A567D"/>
<path d="M48.5953 109.518C47.6773 109.518 46.9336 110.261 46.9336 111.179C46.9336 112.097 47.6773 112.841 48.5953 112.841C49.5132 112.841 50.2569 112.097 50.2569 111.179C50.2569 110.261 49.5132 109.518 48.5953 109.518Z" fill="#2A567D"/>
<path d="M32.9527 109.518C32.0347 109.518 31.291 110.261 31.291 111.179C31.291 112.097 32.0347 112.841 32.9527 112.841C33.8706 112.841 34.6143 112.097 34.6143 111.179C34.6143 110.261 33.8706 109.518 32.9527 109.518Z" fill="#2A567D"/>
<path d="M17.3042 109.518C16.3863 109.518 15.6426 110.261 15.6426 111.179C15.6426 112.097 16.3863 112.841 17.3042 112.841C18.2222 112.841 18.9659 112.097 18.9659 111.179C18.9659 110.261 18.2222 109.518 17.3042 109.518Z" fill="#2A567D"/>
<path d="M236.337 93.8733C235.419 93.8733 234.676 94.617 234.676 95.535C234.676 96.4529 235.419 97.1966 236.337 97.1966C237.255 97.1966 237.999 96.4529 237.999 95.535C237.999 94.617 237.255 93.8733 236.337 93.8733Z" fill="#2A567D"/>
<path d="M220.695 93.8733C219.777 93.8733 219.033 94.617 219.033 95.535C219.033 96.4529 219.777 97.1966 220.695 97.1966C221.613 97.1966 222.357 96.4529 222.357 95.535C222.357 94.617 221.613 93.8733 220.695 93.8733Z" fill="#2A567D"/>
<path d="M205.046 93.8733C204.128 93.8733 203.385 94.617 203.385 95.535C203.385 96.4529 204.128 97.1966 205.046 97.1966C205.964 97.1966 206.708 96.4529 206.708 95.535C206.708 94.617 205.964 93.8733 205.046 93.8733Z" fill="#2A567D"/>
<path d="M189.404 93.8733C188.486 93.8733 187.742 94.617 187.742 95.535C187.742 96.4529 188.486 97.1966 189.404 97.1966C190.322 97.1966 191.066 96.4529 191.066 95.535C191.066 94.617 190.322 93.8733 189.404 93.8733Z" fill="#2A567D"/>
<path d="M173.76 93.8733C172.842 93.8733 172.099 94.617 172.099 95.535C172.099 96.4529 172.842 97.1966 173.76 97.1966C174.678 97.1966 175.422 96.4529 175.422 95.535C175.422 94.617 174.678 93.8733 173.76 93.8733Z" fill="#2A567D"/>
<path d="M158.113 97.1966C159.031 97.1966 159.774 96.4527 159.774 95.535C159.774 94.6172 159.031 93.8733 158.113 93.8733C157.195 93.8733 156.451 94.6172 156.451 95.535C156.451 96.4527 157.195 97.1966 158.113 97.1966Z" fill="#2A567D"/>
<path d="M142.469 93.873C141.551 93.873 140.808 94.6168 140.808 95.5347C140.808 96.4527 141.551 97.1964 142.469 97.1964C143.387 97.1964 144.131 96.4527 144.131 95.5347C144.131 94.6168 143.387 93.873 142.469 93.873Z" fill="#2A567D"/>
<path d="M126.822 93.8733C125.904 93.8733 125.16 94.617 125.16 95.535C125.16 96.4529 125.904 97.1966 126.822 97.1966C127.74 97.1966 128.483 96.4529 128.483 95.535C128.483 94.617 127.74 93.8733 126.822 93.8733Z" fill="#2A567D"/>
<path d="M111.178 93.8733C110.26 93.8733 109.517 94.617 109.517 95.535C109.517 96.4529 110.26 97.1966 111.178 97.1966C112.096 97.1966 112.84 96.4529 112.84 95.535C112.84 94.617 112.096 93.8733 111.178 93.8733Z" fill="#2A567D"/>
<path d="M95.5347 97.1966C96.4524 97.1966 97.1964 96.4527 97.1964 95.535C97.1964 94.6172 96.4524 93.8733 95.5347 93.8733C94.617 93.8733 93.873 94.6172 93.873 95.535C93.873 96.4527 94.617 97.1966 95.5347 97.1966Z" fill="#2A567D"/>
<path d="M79.8863 93.8733C78.9683 93.8733 78.2246 94.617 78.2246 95.535C78.2246 96.4529 78.9683 97.1966 79.8863 97.1966C80.8042 97.1966 81.5479 96.4529 81.5479 95.535C81.5479 94.617 80.8042 93.8733 79.8863 93.8733Z" fill="#2A567D"/>
<path d="M64.2437 93.8733C63.3257 93.8733 62.582 94.617 62.582 95.535C62.582 96.4529 63.3257 97.1966 64.2437 97.1966C65.1616 97.1966 65.9054 96.4529 65.9054 95.535C65.9054 94.617 65.1616 93.8733 64.2437 93.8733Z" fill="#2A567D"/>
<path d="M48.5953 93.8733C47.6773 93.8733 46.9336 94.617 46.9336 95.535C46.9336 96.4529 47.6773 97.1966 48.5953 97.1966C49.5132 97.1966 50.2569 96.4529 50.2569 95.535C50.2569 94.617 49.5132 93.8733 48.5953 93.8733Z" fill="#2A567D"/>
<path d="M32.9527 93.8733C32.0347 93.8733 31.291 94.617 31.291 95.535C31.291 96.4529 32.0347 97.1966 32.9527 97.1966C33.8706 97.1966 34.6143 96.4529 34.6143 95.535C34.6143 94.617 33.8706 93.8733 32.9527 93.8733Z" fill="#2A567D"/>
<path d="M17.3042 93.8733C16.3863 93.8733 15.6426 94.617 15.6426 95.535C15.6426 96.4529 16.3863 97.1966 17.3042 97.1966C18.2222 97.1966 18.9659 96.4529 18.9659 95.535C18.9659 94.617 18.2222 93.8733 17.3042 93.8733Z" fill="#2A567D"/>
<path d="M236.337 78.2266C235.419 78.2266 234.676 78.9703 234.676 79.8882C234.676 80.8062 235.419 81.5499 236.337 81.5499C237.255 81.5499 237.999 80.8062 237.999 79.8882C237.999 78.9703 237.255 78.2266 236.337 78.2266Z" fill="#2A567D"/>
<path d="M220.695 78.2266C219.777 78.2266 219.033 78.9703 219.033 79.8882C219.033 80.8062 219.777 81.5499 220.695 81.5499C221.613 81.5499 222.357 80.8062 222.357 79.8882C222.357 78.9703 221.613 78.2266 220.695 78.2266Z" fill="#2A567D"/>
<path d="M205.046 78.2266C204.128 78.2266 203.385 78.9703 203.385 79.8882C203.385 80.8062 204.128 81.5499 205.046 81.5499C205.964 81.5499 206.708 80.8062 206.708 79.8882C206.708 78.9703 205.964 78.2266 205.046 78.2266Z" fill="#2A567D"/>
<path d="M189.404 78.2266C188.486 78.2266 187.742 78.9703 187.742 79.8882C187.742 80.8062 188.486 81.5499 189.404 81.5499C190.322 81.5499 191.066 80.8062 191.066 79.8882C191.066 78.9703 190.322 78.2266 189.404 78.2266Z" fill="#2A567D"/>
<path d="M173.76 78.2266C172.842 78.2266 172.099 78.9703 172.099 79.8882C172.099 80.8062 172.842 81.5499 173.76 81.5499C174.678 81.5499 175.422 80.8062 175.422 79.8882C175.422 78.9703 174.678 78.2266 173.76 78.2266Z" fill="#2A567D"/>
<path d="M158.113 81.5499C159.031 81.5499 159.774 80.8059 159.774 79.8882C159.774 78.9705 159.031 78.2266 158.113 78.2266C157.195 78.2266 156.451 78.9705 156.451 79.8882C156.451 80.8059 157.195 81.5499 158.113 81.5499Z" fill="#2A567D"/>
<path d="M142.469 78.2266C141.551 78.2266 140.808 78.9703 140.808 79.8882C140.808 80.8062 141.551 81.5499 142.469 81.5499C143.387 81.5499 144.131 80.8062 144.131 79.8882C144.131 78.9703 143.387 78.2266 142.469 78.2266Z" fill="#2A567D"/>
<path d="M126.822 78.2266C125.904 78.2266 125.16 78.9703 125.16 79.8882C125.16 80.8062 125.904 81.5499 126.822 81.5499C127.74 81.5499 128.483 80.8062 128.483 79.8882C128.483 78.9703 127.74 78.2266 126.822 78.2266Z" fill="#2A567D"/>
<path d="M111.178 78.2266C110.26 78.2266 109.517 78.9703 109.517 79.8882C109.517 80.8062 110.26 81.5499 111.178 81.5499C112.096 81.5499 112.84 80.8062 112.84 79.8882C112.84 78.9703 112.096 78.2266 111.178 78.2266Z" fill="#2A567D"/>
<path d="M95.5347 81.5499C96.4524 81.5499 97.1964 80.8059 97.1964 79.8882C97.1964 78.9705 96.4524 78.2266 95.5347 78.2266C94.617 78.2266 93.873 78.9705 93.873 79.8882C93.873 80.8059 94.617 81.5499 95.5347 81.5499Z" fill="#2A567D"/>
<path d="M79.8863 78.2266C78.9683 78.2266 78.2246 78.9703 78.2246 79.8882C78.2246 80.8062 78.9683 81.5499 79.8863 81.5499C80.8042 81.5499 81.5479 80.8062 81.5479 79.8882C81.5479 78.9703 80.8042 78.2266 79.8863 78.2266Z" fill="#2A567D"/>
<path d="M64.2437 78.2266C63.3257 78.2266 62.582 78.9703 62.582 79.8882C62.582 80.8062 63.3257 81.5499 64.2437 81.5499C65.1616 81.5499 65.9054 80.8062 65.9054 79.8882C65.9054 78.9703 65.1616 78.2266 64.2437 78.2266Z" fill="#2A567D"/>
<path d="M48.5953 78.2266C47.6773 78.2266 46.9336 78.9703 46.9336 79.8882C46.9336 80.8062 47.6773 81.5499 48.5953 81.5499C49.5132 81.5499 50.2569 80.8062 50.2569 79.8882C50.2569 78.9703 49.5132 78.2266 48.5953 78.2266Z" fill="#2A567D"/>
<path d="M32.9527 78.2266C32.0347 78.2266 31.291 78.9703 31.291 79.8882C31.291 80.8062 32.0347 81.5499 32.9527 81.5499C33.8706 81.5499 34.6143 80.8062 34.6143 79.8882C34.6143 78.9703 33.8706 78.2266 32.9527 78.2266Z" fill="#2A567D"/>
<path d="M17.3042 78.2266C16.3863 78.2266 15.6426 78.9703 15.6426 79.8882C15.6426 80.8062 16.3863 81.5499 17.3042 81.5499C18.2222 81.5499 18.9659 80.8062 18.9659 79.8882C18.9659 78.9703 18.2222 78.2266 17.3042 78.2266Z" fill="#2A567D"/>
<path d="M236.337 62.5823C235.419 62.5823 234.676 63.326 234.676 64.2439C234.676 65.1619 235.419 65.9056 236.337 65.9056C237.255 65.9056 237.999 65.1619 237.999 64.2439C237.999 63.326 237.255 62.5823 236.337 62.5823Z" fill="#2A567D"/>
<path d="M220.695 62.5823C219.777 62.5823 219.033 63.326 219.033 64.2439C219.033 65.1619 219.777 65.9056 220.695 65.9056C221.613 65.9056 222.357 65.1619 222.357 64.2439C222.357 63.326 221.613 62.5823 220.695 62.5823Z" fill="#2A567D"/>
<path d="M205.046 62.5823C204.128 62.5823 203.385 63.326 203.385 64.2439C203.385 65.1619 204.128 65.9056 205.046 65.9056C205.964 65.9056 206.708 65.1619 206.708 64.2439C206.708 63.326 205.964 62.5823 205.046 62.5823Z" fill="#2A567D"/>
<path d="M189.404 62.5823C188.486 62.5823 187.742 63.326 187.742 64.2439C187.742 65.1619 188.486 65.9056 189.404 65.9056C190.322 65.9056 191.066 65.1619 191.066 64.2439C191.066 63.326 190.322 62.5823 189.404 62.5823Z" fill="#2A567D"/>
<path d="M173.76 62.5823C172.842 62.5823 172.099 63.326 172.099 64.2439C172.099 65.1619 172.842 65.9056 173.76 65.9056C174.678 65.9056 175.422 65.1619 175.422 64.2439C175.422 63.326 174.678 62.5823 173.76 62.5823Z" fill="#2A567D"/>
<path d="M158.113 65.9056C159.031 65.9056 159.774 65.1616 159.774 64.2439C159.774 63.3262 159.031 62.5823 158.113 62.5823C157.195 62.5823 156.451 63.3262 156.451 64.2439C156.451 65.1616 157.195 65.9056 158.113 65.9056Z" fill="#2A567D"/>
<path d="M142.469 62.5823C141.551 62.5823 140.808 63.326 140.808 64.2439C140.808 65.1619 141.551 65.9056 142.469 65.9056C143.387 65.9056 144.131 65.1619 144.131 64.2439C144.131 63.326 143.387 62.5823 142.469 62.5823Z" fill="#2A567D"/>
<path d="M126.822 62.5823C125.904 62.5823 125.16 63.326 125.16 64.2439C125.16 65.1619 125.904 65.9056 126.822 65.9056C127.74 65.9056 128.483 65.1619 128.483 64.2439C128.483 63.326 127.74 62.5823 126.822 62.5823Z" fill="#2A567D"/>
<path d="M111.178 62.5823C110.26 62.5823 109.517 63.326 109.517 64.2439C109.517 65.1619 110.26 65.9056 111.178 65.9056C112.096 65.9056 112.84 65.1619 112.84 64.2439C112.84 63.326 112.096 62.5823 111.178 62.5823Z" fill="#2A567D"/>
<path d="M95.5347 65.9056C96.4524 65.9056 97.1964 65.1616 97.1964 64.2439C97.1964 63.3262 96.4524 62.5823 95.5347 62.5823C94.617 62.5823 93.873 63.3262 93.873 64.2439C93.873 65.1616 94.617 65.9056 95.5347 65.9056Z" fill="#2A567D"/>
<path d="M79.8863 62.5823C78.9683 62.5823 78.2246 63.326 78.2246 64.2439C78.2246 65.1619 78.9683 65.9056 79.8863 65.9056C80.8042 65.9056 81.5479 65.1619 81.5479 64.2439C81.5479 63.326 80.8042 62.5823 79.8863 62.5823Z" fill="#2A567D"/>
<path d="M64.2437 62.5823C63.3257 62.5823 62.582 63.326 62.582 64.2439C62.582 65.1619 63.3257 65.9056 64.2437 65.9056C65.1616 65.9056 65.9054 65.1619 65.9054 64.2439C65.9054 63.326 65.1616 62.5823 64.2437 62.5823Z" fill="#2A567D"/>
<path d="M48.5953 62.5823C47.6773 62.5823 46.9336 63.326 46.9336 64.2439C46.9336 65.1619 47.6773 65.9056 48.5953 65.9056C49.5132 65.9056 50.2569 65.1619 50.2569 64.2439C50.2569 63.326 49.5132 62.5823 48.5953 62.5823Z" fill="#2A567D"/>
<path d="M32.9527 62.5823C32.0347 62.5823 31.291 63.326 31.291 64.2439C31.291 65.1619 32.0347 65.9056 32.9527 65.9056C33.8706 65.9056 34.6143 65.1619 34.6143 64.2439C34.6143 63.326 33.8706 62.5823 32.9527 62.5823Z" fill="#2A567D"/>
<path d="M17.3042 62.5823C16.3863 62.5823 15.6426 63.326 15.6426 64.2439C15.6426 65.1619 16.3863 65.9056 17.3042 65.9056C18.2222 65.9056 18.9659 65.1619 18.9659 64.2439C18.9659 63.326 18.2222 62.5823 17.3042 62.5823Z" fill="#2A567D"/>
<path d="M236.337 46.9336C235.419 46.9336 234.676 47.6773 234.676 48.5953C234.676 49.5132 235.419 50.2569 236.337 50.2569C237.255 50.2569 237.999 49.5132 237.999 48.5953C237.999 47.6773 237.255 46.9336 236.337 46.9336Z" fill="#2A567D"/>
<path d="M220.695 46.9336C219.777 46.9336 219.033 47.6773 219.033 48.5953C219.033 49.5132 219.777 50.2569 220.695 50.2569C221.613 50.2569 222.357 49.5132 222.357 48.5953C222.357 47.6773 221.613 46.9336 220.695 46.9336Z" fill="#2A567D"/>
<path d="M205.046 46.9336C204.128 46.9336 203.385 47.6773 203.385 48.5953C203.385 49.5132 204.128 50.2569 205.046 50.2569C205.964 50.2569 206.708 49.5132 206.708 48.5953C206.708 47.6773 205.964 46.9336 205.046 46.9336Z" fill="#2A567D"/>
<path d="M189.404 46.9336C188.486 46.9336 187.742 47.6773 187.742 48.5953C187.742 49.5132 188.486 50.2569 189.404 50.2569C190.322 50.2569 191.066 49.5132 191.066 48.5953C191.066 47.6773 190.322 46.9336 189.404 46.9336Z" fill="#2A567D"/>
<path d="M173.76 46.9336C172.842 46.9336 172.099 47.6773 172.099 48.5953C172.099 49.5132 172.842 50.2569 173.76 50.2569C174.678 50.2569 175.422 49.5132 175.422 48.5953C175.422 47.6773 174.678 46.9336 173.76 46.9336Z" fill="#2A567D"/>
<path d="M158.113 50.2569C159.031 50.2569 159.774 49.513 159.774 48.5953C159.774 47.6775 159.031 46.9336 158.113 46.9336C157.195 46.9336 156.451 47.6775 156.451 48.5953C156.451 49.513 157.195 50.2569 158.113 50.2569Z" fill="#2A567D"/>
<path d="M142.469 46.9336C141.551 46.9336 140.808 47.6773 140.808 48.5953C140.808 49.5132 141.551 50.2569 142.469 50.2569C143.387 50.2569 144.131 49.5132 144.131 48.5953C144.131 47.6773 143.387 46.9336 142.469 46.9336Z" fill="#2A567D"/>
<path d="M126.822 46.9336C125.904 46.9336 125.16 47.6773 125.16 48.5953C125.16 49.5132 125.904 50.2569 126.822 50.2569C127.74 50.2569 128.483 49.5132 128.483 48.5953C128.483 47.6773 127.74 46.9336 126.822 46.9336Z" fill="#2A567D"/>
<path d="M111.178 46.9336C110.26 46.9336 109.517 47.6773 109.517 48.5953C109.517 49.5132 110.26 50.2569 111.178 50.2569C112.096 50.2569 112.84 49.5132 112.84 48.5953C112.84 47.6773 112.096 46.9336 111.178 46.9336Z" fill="#2A567D"/>
<path d="M95.5347 50.2569C96.4524 50.2569 97.1964 49.513 97.1964 48.5953C97.1964 47.6775 96.4524 46.9336 95.5347 46.9336C94.617 46.9336 93.873 47.6775 93.873 48.5953C93.873 49.513 94.617 50.2569 95.5347 50.2569Z" fill="#2A567D"/>
<path d="M79.8863 46.9336C78.9683 46.9336 78.2246 47.6773 78.2246 48.5953C78.2246 49.5132 78.9683 50.2569 79.8863 50.2569C80.8042 50.2569 81.5479 49.5132 81.5479 48.5953C81.5479 47.6773 80.8042 46.9336 79.8863 46.9336Z" fill="#2A567D"/>
<path d="M64.2437 46.9336C63.3257 46.9336 62.582 47.6773 62.582 48.5953C62.582 49.5132 63.3257 50.2569 64.2437 50.2569C65.1616 50.2569 65.9054 49.5132 65.9054 48.5953C65.9054 47.6773 65.1616 46.9336 64.2437 46.9336Z" fill="#2A567D"/>
<path d="M48.5953 46.9336C47.6773 46.9336 46.9336 47.6773 46.9336 48.5953C46.9336 49.5132 47.6773 50.2569 48.5953 50.2569C49.5132 50.2569 50.2569 49.5132 50.2569 48.5953C50.2569 47.6773 49.5132 46.9336 48.5953 46.9336Z" fill="#2A567D"/>
<path d="M32.9527 46.9336C32.0347 46.9336 31.291 47.6773 31.291 48.5953C31.291 49.5132 32.0347 50.2569 32.9527 50.2569C33.8706 50.2569 34.6143 49.5132 34.6143 48.5953C34.6143 47.6773 33.8706 46.9336 32.9527 46.9336Z" fill="#2A567D"/>
<path d="M17.3042 46.9336C16.3863 46.9336 15.6426 47.6773 15.6426 48.5953C15.6426 49.5132 16.3863 50.2569 17.3042 50.2569C18.2222 50.2569 18.9659 49.5132 18.9659 48.5953C18.9659 47.6773 18.2222 46.9336 17.3042 46.9336Z" fill="#2A567D"/>
<path d="M236.337 31.291C235.419 31.291 234.676 32.0347 234.676 32.9527C234.676 33.8706 235.419 34.6143 236.337 34.6143C237.255 34.6143 237.999 33.8706 237.999 32.9527C237.999 32.0347 237.255 31.291 236.337 31.291Z" fill="#2A567D"/>
<path d="M220.695 31.291C219.777 31.291 219.033 32.0347 219.033 32.9527C219.033 33.8706 219.777 34.6143 220.695 34.6143C221.613 34.6143 222.357 33.8706 222.357 32.9527C222.357 32.0347 221.613 31.291 220.695 31.291Z" fill="#2A567D"/>
<path d="M205.046 31.291C204.128 31.291 203.385 32.0347 203.385 32.9527C203.385 33.8706 204.128 34.6143 205.046 34.6143C205.964 34.6143 206.708 33.8706 206.708 32.9527C206.708 32.0347 205.964 31.291 205.046 31.291Z" fill="#2A567D"/>
<path d="M189.404 31.291C188.486 31.291 187.742 32.0347 187.742 32.9527C187.742 33.8706 188.486 34.6143 189.404 34.6143C190.322 34.6143 191.066 33.8706 191.066 32.9527C191.066 32.0347 190.322 31.291 189.404 31.291Z" fill="#2A567D"/>
<path d="M173.76 31.291C172.842 31.291 172.099 32.0347 172.099 32.9527C172.099 33.8706 172.842 34.6143 173.76 34.6143C174.678 34.6143 175.422 33.8706 175.422 32.9527C175.422 32.0347 174.678 31.291 173.76 31.291Z" fill="#2A567D"/>
<path d="M158.113 34.6143C159.031 34.6143 159.774 33.8704 159.774 32.9527C159.774 32.035 159.031 31.291 158.113 31.291C157.195 31.291 156.451 32.035 156.451 32.9527C156.451 33.8704 157.195 34.6143 158.113 34.6143Z" fill="#2A567D"/>
<path d="M142.469 31.291C141.551 31.291 140.808 32.0347 140.808 32.9527C140.808 33.8706 141.551 34.6143 142.469 34.6143C143.387 34.6143 144.131 33.8706 144.131 32.9527C144.131 32.0347 143.387 31.291 142.469 31.291Z" fill="#2A567D"/>
<path d="M126.822 31.291C125.904 31.291 125.16 32.0347 125.16 32.9527C125.16 33.8706 125.904 34.6143 126.822 34.6143C127.74 34.6143 128.483 33.8706 128.483 32.9527C128.483 32.0347 127.74 31.291 126.822 31.291Z" fill="#2A567D"/>
<path d="M111.178 31.291C110.26 31.291 109.517 32.0347 109.517 32.9527C109.517 33.8706 110.26 34.6143 111.178 34.6143C112.096 34.6143 112.84 33.8706 112.84 32.9527C112.84 32.0347 112.096 31.291 111.178 31.291Z" fill="#2A567D"/>
<path d="M95.5347 34.6143C96.4524 34.6143 97.1964 33.8704 97.1964 32.9527C97.1964 32.035 96.4524 31.291 95.5347 31.291C94.617 31.291 93.873 32.035 93.873 32.9527C93.873 33.8704 94.617 34.6143 95.5347 34.6143Z" fill="#2A567D"/>
<path d="M79.8863 31.291C78.9683 31.291 78.2246 32.0347 78.2246 32.9527C78.2246 33.8706 78.9683 34.6143 79.8863 34.6143C80.8042 34.6143 81.5479 33.8706 81.5479 32.9527C81.5479 32.0347 80.8042 31.291 79.8863 31.291Z" fill="#2A567D"/>
<path d="M64.2437 31.291C63.3257 31.291 62.582 32.0347 62.582 32.9527C62.582 33.8706 63.3257 34.6143 64.2437 34.6143C65.1616 34.6143 65.9054 33.8706 65.9054 32.9527C65.9054 32.0347 65.1616 31.291 64.2437 31.291Z" fill="#2A567D"/>
<path d="M48.5953 31.291C47.6773 31.291 46.9336 32.0347 46.9336 32.9527C46.9336 33.8706 47.6773 34.6143 48.5953 34.6143C49.5132 34.6143 50.2569 33.8706 50.2569 32.9527C50.2569 32.0347 49.5132 31.291 48.5953 31.291Z" fill="#2A567D"/>
<path d="M32.9527 31.291C32.0347 31.291 31.291 32.0347 31.291 32.9527C31.291 33.8706 32.0347 34.6143 32.9527 34.6143C33.8706 34.6143 34.6143 33.8706 34.6143 32.9527C34.6143 32.0347 33.8706 31.291 32.9527 31.291Z" fill="#2A567D"/>
<path d="M17.3042 31.291C16.3863 31.291 15.6426 32.0347 15.6426 32.9527C15.6426 33.8706 16.3863 34.6143 17.3042 34.6143C18.2222 34.6143 18.9659 33.8706 18.9659 32.9527C18.9659 32.0347 18.2222 31.291 17.3042 31.291Z" fill="#2A567D"/>
<path d="M236.337 15.6426C235.419 15.6426 234.676 16.3863 234.676 17.3042C234.676 18.2222 235.419 18.9659 236.337 18.9659C237.255 18.9659 237.999 18.2222 237.999 17.3042C237.999 16.3863 237.255 15.6426 236.337 15.6426Z" fill="#2A567D"/>
<path d="M220.695 15.6426C219.777 15.6426 219.033 16.3863 219.033 17.3042C219.033 18.2222 219.777 18.9659 220.695 18.9659C221.613 18.9659 222.357 18.2222 222.357 17.3042C222.357 16.3863 221.613 15.6426 220.695 15.6426Z" fill="#2A567D"/>
<path d="M205.046 15.6426C204.128 15.6426 203.385 16.3863 203.385 17.3042C203.385 18.2222 204.128 18.9659 205.046 18.9659C205.964 18.9659 206.708 18.2222 206.708 17.3042C206.708 16.3863 205.964 15.6426 205.046 15.6426Z" fill="#2A567D"/>
<path d="M189.404 15.6426C188.486 15.6426 187.742 16.3863 187.742 17.3042C187.742 18.2222 188.486 18.9659 189.404 18.9659C190.322 18.9659 191.066 18.2222 191.066 17.3042C191.066 16.3863 190.322 15.6426 189.404 15.6426Z" fill="#2A567D"/>
<path d="M173.76 15.6426C172.842 15.6426 172.099 16.3863 172.099 17.3042C172.099 18.2222 172.842 18.9659 173.76 18.9659C174.678 18.9659 175.422 18.2222 175.422 17.3042C175.422 16.3863 174.678 15.6426 173.76 15.6426Z" fill="#2A567D"/>
<path d="M158.113 18.9659C159.031 18.9659 159.774 18.2219 159.774 17.3042C159.774 16.3865 159.031 15.6426 158.113 15.6426C157.195 15.6426 156.451 16.3865 156.451 17.3042C156.451 18.2219 157.195 18.9659 158.113 18.9659Z" fill="#2A567D"/>
<path d="M142.469 15.6426C141.551 15.6426 140.808 16.3863 140.808 17.3042C140.808 18.2222 141.551 18.9659 142.469 18.9659C143.387 18.9659 144.131 18.2222 144.131 17.3042C144.131 16.3863 143.387 15.6426 142.469 15.6426Z" fill="#2A567D"/>
<path d="M126.822 15.6426C125.904 15.6426 125.16 16.3863 125.16 17.3042C125.16 18.2222 125.904 18.9659 126.822 18.9659C127.74 18.9659 128.483 18.2222 128.483 17.3042C128.483 16.3863 127.74 15.6426 126.822 15.6426Z" fill="#2A567D"/>
<path d="M111.178 15.6426C110.26 15.6426 109.517 16.3863 109.517 17.3042C109.517 18.2222 110.26 18.9659 111.178 18.9659C112.096 18.9659 112.84 18.2222 112.84 17.3042C112.84 16.3863 112.096 15.6426 111.178 15.6426Z" fill="#2A567D"/>
<path d="M95.5347 18.9659C96.4524 18.9659 97.1964 18.2219 97.1964 17.3042C97.1964 16.3865 96.4524 15.6426 95.5347 15.6426C94.617 15.6426 93.873 16.3865 93.873 17.3042C93.873 18.2219 94.617 18.9659 95.5347 18.9659Z" fill="#2A567D"/>
<path d="M79.8863 15.6426C78.9683 15.6426 78.2246 16.3863 78.2246 17.3042C78.2246 18.2222 78.9683 18.9659 79.8863 18.9659C80.8042 18.9659 81.5479 18.2222 81.5479 17.3042C81.5479 16.3863 80.8042 15.6426 79.8863 15.6426Z" fill="#2A567D"/>
<path d="M64.2437 15.6426C63.3257 15.6426 62.582 16.3863 62.582 17.3042C62.582 18.2222 63.3257 18.9659 64.2437 18.9659C65.1616 18.9659 65.9054 18.2222 65.9054 17.3042C65.9054 16.3863 65.1616 15.6426 64.2437 15.6426Z" fill="#2A567D"/>
<path d="M48.5953 15.6426C47.6773 15.6426 46.9336 16.3863 46.9336 17.3042C46.9336 18.2222 47.6773 18.9659 48.5953 18.9659C49.5132 18.9659 50.2569 18.2222 50.2569 17.3042C50.2569 16.3863 49.5132 15.6426 48.5953 15.6426Z" fill="#2A567D"/>
<path d="M32.9527 15.6426C32.0347 15.6426 31.291 16.3863 31.291 17.3042C31.291 18.2222 32.0347 18.9659 32.9527 18.9659C33.8706 18.9659 34.6143 18.2222 34.6143 17.3042C34.6143 16.3863 33.8706 15.6426 32.9527 15.6426Z" fill="#2A567D"/>
<path d="M17.3042 15.6426C16.3863 15.6426 15.6426 16.3863 15.6426 17.3042C15.6426 18.2222 16.3863 18.9659 17.3042 18.9659C18.2222 18.9659 18.9659 18.2222 18.9659 17.3042C18.9659 16.3863 18.2222 15.6426 17.3042 15.6426Z" fill="#2A567D"/>
<path d="M236.337 3.32332C237.255 3.32332 237.999 2.57961 237.999 1.66166C237.999 0.74371 237.255 0 236.337 0C235.419 0 234.676 0.74371 234.676 1.66166C234.676 2.57961 235.419 3.32332 236.337 3.32332Z" fill="#2A567D"/>
<path d="M220.695 0C219.777 0 219.033 0.74371 219.033 1.66166C219.033 2.57961 219.777 3.32332 220.695 3.32332C221.613 3.32332 222.357 2.57961 222.357 1.66166C222.357 0.74371 221.613 0 220.695 0Z" fill="#2A567D"/>
<path d="M205.046 0C204.128 0 203.385 0.74371 203.385 1.66166C203.385 2.57961 204.128 3.32332 205.046 3.32332C205.964 3.32332 206.708 2.57961 206.708 1.66166C206.708 0.74371 205.964 0 205.046 0Z" fill="#2A567D"/>
<path d="M189.404 0C188.486 0 187.742 0.74371 187.742 1.66166C187.742 2.57961 188.486 3.32332 189.404 3.32332C190.322 3.32332 191.066 2.57961 191.066 1.66166C191.066 0.74371 190.322 0 189.404 0Z" fill="#2A567D"/>
<path d="M173.76 0C172.842 0 172.099 0.74371 172.099 1.66166C172.099 2.57961 172.842 3.32332 173.76 3.32332C174.678 3.32332 175.422 2.57961 175.422 1.66166C175.422 0.74371 174.678 0 173.76 0Z" fill="#2A567D"/>
<path d="M158.113 3.32332C159.031 3.32332 159.774 2.57937 159.774 1.66166C159.774 0.743951 159.031 0 158.113 0C157.195 0 156.451 0.743951 156.451 1.66166C156.451 2.57937 157.195 3.32332 158.113 3.32332Z" fill="#2A567D"/>
<path d="M142.469 0C141.551 0 140.808 0.74371 140.808 1.66166C140.808 2.57961 141.551 3.32332 142.469 3.32332C143.387 3.32332 144.131 2.57961 144.131 1.66166C144.131 0.74371 143.387 0 142.469 0Z" fill="#2A567D"/>
<path d="M126.822 0C125.904 0 125.16 0.74371 125.16 1.66166C125.16 2.57961 125.904 3.32332 126.822 3.32332C127.74 3.32332 128.483 2.57961 128.483 1.66166C128.483 0.74371 127.74 0 126.822 0Z" fill="#2A567D"/>
<path d="M111.178 0C110.26 0 109.517 0.74371 109.517 1.66166C109.517 2.57961 110.26 3.32332 111.178 3.32332C112.096 3.32332 112.84 2.57961 112.84 1.66166C112.84 0.74371 112.096 0 111.178 0Z" fill="#2A567D"/>
<path d="M95.5347 3.32332C96.4524 3.32332 97.1964 2.57937 97.1964 1.66166C97.1964 0.743951 96.4524 0 95.5347 0C94.617 0 93.873 0.743951 93.873 1.66166C93.873 2.57937 94.617 3.32332 95.5347 3.32332Z" fill="#2A567D"/>
<path d="M79.8863 0C78.9683 0 78.2246 0.74371 78.2246 1.66166C78.2246 2.57961 78.9683 3.32332 79.8863 3.32332C80.8042 3.32332 81.5479 2.57961 81.5479 1.66166C81.5479 0.74371 80.8042 0 79.8863 0Z" fill="#2A567D"/>
<path d="M64.2437 0C63.3257 0 62.582 0.74371 62.582 1.66166C62.582 2.57961 63.3257 3.32332 64.2437 3.32332C65.1616 3.32332 65.9054 2.57961 65.9054 1.66166C65.9054 0.74371 65.1616 0 64.2437 0Z" fill="#2A567D"/>
<path d="M48.5953 0C47.6773 0 46.9336 0.74371 46.9336 1.66166C46.9336 2.57961 47.6773 3.32332 48.5953 3.32332C49.5132 3.32332 50.2569 2.57961 50.2569 1.66166C50.2569 0.74371 49.5132 0 48.5953 0Z" fill="#2A567D"/>
<path d="M32.9527 0C32.0347 0 31.291 0.74371 31.291 1.66166C31.291 2.57961 32.0347 3.32332 32.9527 3.32332C33.8706 3.32332 34.6143 2.57961 34.6143 1.66166C34.6143 0.74371 33.8706 0 32.9527 0Z" fill="#2A567D"/>
<path d="M17.3042 0C16.3863 0 15.6426 0.74371 15.6426 1.66166C15.6426 2.57961 16.3863 3.32332 17.3042 3.32332C18.2222 3.32332 18.9659 2.57961 18.9659 1.66166C18.9659 0.74371 18.2222 0 17.3042 0Z" fill="#2A567D"/>
</g>
<defs>
<clipPath id="clip0_585_10756">
<rect width="238" height="238" fill="white"/>
</clipPath>
</defs>
</svg>
