<svg width="40" height="40" viewBox="0 0 40 40" fill="none" xmlns="http://www.w3.org/2000/svg">
<path d="M26.751 23.2759C26.5504 22.4969 25.8601 21.953 25.0425 21.9608L22.5279 21.9801C22.3042 21.6407 22.0573 21.3128 21.7951 21.0043L22.497 18.59C22.7246 17.8187 22.3967 16.9934 21.7026 16.5884L20.3257 15.7784C19.6354 15.3696 18.756 15.4853 18.189 16.06L16.4226 17.8495C16.0254 17.7647 15.6204 17.7107 15.2154 17.6798L14.0044 15.4738C13.6187 14.768 12.805 14.417 12.0259 14.6215L10.4833 15.0226C9.70419 15.2231 9.16427 15.9251 9.1681 16.7311L9.18357 19.2457C8.84419 19.4694 8.52021 19.7163 8.21169 19.9785L5.7974 19.2766C5.02607 19.049 4.20068 19.3769 3.79576 20.071L2.98576 21.444C2.57693 22.1382 2.69263 23.0175 3.26732 23.5845L5.05302 25.3509C4.97201 25.7481 4.91419 26.153 4.88716 26.558L2.68107 27.7691C1.97529 28.1548 1.62435 28.9685 1.82873 29.7476L2.22599 31.2902C2.43044 32.0655 3.12458 32.6054 3.92685 32.6054H3.93841L6.44912 32.59C6.67279 32.9294 6.91966 33.2534 7.18576 33.5619L6.48388 35.9762C6.2563 36.7475 6.58412 37.5729 7.27833 37.9778L8.6513 38.7877C9.34552 39.1966 10.2248 39.0809 10.7918 38.5062L12.5582 36.7205C12.9554 36.8015 13.3604 36.8593 13.7653 36.8863L14.9725 39.0924C15.3358 39.7481 16.0921 40.1477 16.9548 39.9486L18.4975 39.5475C19.2765 39.3431 19.8165 38.6412 19.8088 37.8351L19.7933 35.3244C20.1327 35.1007 20.4606 34.8538 20.7691 34.5877L23.1834 35.2897C23.9547 35.5172 24.7801 35.1894 25.1851 34.4952L25.995 33.1222C26.4038 32.428 26.2881 31.5487 25.7134 30.9817L23.9239 29.2153C24.0087 28.818 24.0627 28.4131 24.0936 28.0081L26.2996 26.8009C26.8704 26.4847 27.2098 25.8907 27.2098 25.2659C27.2098 25.1155 27.1905 24.9652 27.1519 24.8186L26.751 23.2759ZM15.6277 31.666C13.207 32.2945 10.7358 30.8418 10.1075 28.4211C9.47912 26.0004 10.9317 23.5292 13.3524 22.9009C15.7731 22.2725 18.2443 23.7251 18.8726 26.1458C19.501 28.5664 18.0484 31.0376 15.6277 31.666Z" fill="#F26B35"/>
<path d="M37.5113 11.2584C37.9626 11.0116 38.2287 10.5448 38.2287 10.0513C38.2287 9.93555 38.2132 9.81984 38.1823 9.70414L37.9085 8.65508C37.7504 8.04188 37.1988 7.62149 36.5664 7.62149L34.9581 7.63305C34.8347 7.45563 34.7036 7.28211 34.5648 7.11234L35.016 5.56969C35.1934 4.96031 34.935 4.31242 34.3912 3.99227L33.4579 3.44461C32.9102 3.12453 32.2199 3.21703 31.7763 3.66445L30.6463 4.80992C30.4342 4.7675 30.2182 4.74047 30.0023 4.72125L29.227 3.30969C28.9223 2.7543 28.2821 2.48047 27.6727 2.63859L26.6237 2.90859C26.0105 3.06672 25.5862 3.62211 25.5902 4.2507L25.6017 5.86281C25.4205 5.98234 25.2469 6.11352 25.0811 6.25617L23.5345 5.80492C22.929 5.6275 22.2811 5.88203 21.961 6.42969L21.4134 7.36305C21.0932 7.90688 21.1819 8.59719 21.6332 9.0407L22.7787 10.1746C22.7362 10.3867 22.7092 10.6027 22.6861 10.8187L21.2784 11.5939C20.723 11.8947 20.4454 12.5349 20.6073 13.1481L20.8773 14.1972C21.0354 14.8066 21.583 15.227 22.2194 15.227L23.8316 15.2192C23.9511 15.3966 24.0823 15.5702 24.2211 15.736L23.7737 17.2826C23.5962 17.888 23.8508 18.536 24.3984 18.8561L25.3318 19.4076C25.8756 19.7277 26.5659 19.6352 27.0094 19.1877L28.1394 18.0423C28.3554 18.0809 28.5714 18.1117 28.7873 18.1309L29.5626 19.5425C29.862 20.0939 30.5037 20.3771 31.1169 20.2136L32.1659 19.9398C32.7752 19.7816 33.1994 19.2302 33.1956 18.5977L33.1841 16.9894C33.3653 16.8659 33.5389 16.7348 33.7047 16.596L35.2512 17.0473C35.8568 17.2247 36.5047 16.9663 36.8248 16.4225L37.3762 15.4891C37.6964 14.9415 37.6037 14.2511 37.1564 13.8076L36.0109 12.6776C36.0495 12.4655 36.0804 12.2495 36.0996 12.0335L37.5113 11.2584ZM30.1673 14.405C28.5216 14.8322 26.8416 13.8447 26.4144 12.199C25.9873 10.5533 26.9748 8.87328 28.6205 8.44609C30.2662 8.01891 31.9462 9.00641 32.3734 10.6521C32.8005 12.2978 31.813 13.9778 30.1673 14.405Z" fill="#F26B35"/>
<path d="M13.76 9.25102C14.4457 10.012 15.0548 11.0298 15.4892 12.3936C15.5864 12.6992 15.9127 12.8661 16.2159 12.7693C16.5204 12.6723 16.6886 12.3469 16.5916 12.0426C16.2913 11.0997 15.9114 10.3043 15.4814 9.62687C15.4661 9.47242 15.4531 9.3182 15.4495 9.16578C19.3289 7.23781 20.2996 4.21961 18.381 0.353985C18.2253 0.040391 17.8494 -0.0883591 17.5342 0.0641409C13.7397 1.89945 12.8343 4.60734 14.0757 7.9507C14.0611 7.9375 14.0465 7.92399 14.0318 7.91094C11.57 3.04328 7.69996 1.45852 2.37785 4.10023C1.96168 4.3068 1.7909 4.80563 1.99324 5.22383C4.5041 10.4152 8.53488 11.8446 13.76 9.25102Z" fill="#2A567D"/>
</svg>
