<svg width="34" height="36" viewBox="0 0 34 36" fill="none" xmlns="http://www.w3.org/2000/svg">
<path d="M33.8876 30.366L29.7146 21.5127C27.4105 24.8319 23.8129 27.1955 19.6484 27.9122L23.1416 35.3232C23.5882 36.2715 24.9704 36.2082 25.3301 35.2289L27.1205 30.363L27.4895 30.1928L32.4079 31.9642C33.3948 32.3225 34.3336 31.3105 33.8876 30.366Z" fill="#2A567D"/>
<path d="M16.9955 0C9.80428 0 3.95312 5.78848 3.95312 12.9035C3.95312 20.0185 9.80435 25.8069 16.9955 25.8069C24.1868 25.8069 30.0379 20.0185 30.0379 12.9035C30.0379 5.78848 24.1868 0 16.9955 0ZM23.3416 11.9554L21.0289 14.1858L21.5754 17.3361C21.7425 18.2979 20.7182 19.0205 19.8548 18.5726L16.9956 17.0856L14.1364 18.5725C13.268 19.0236 12.2496 18.2925 12.4157 17.336L12.9622 14.1858L10.6496 11.9553C9.9467 11.2774 10.3368 10.0939 11.3066 9.95449L14.5031 9.49514L15.9327 6.6297C16.3653 5.75951 17.6255 5.75873 18.0586 6.6297L19.4883 9.49514L22.6848 9.95449C23.6544 10.0939 24.0445 11.2774 23.3416 11.9554Z" fill="#F26B35"/>
<path d="M4.28727 21.5127L0.114355 30.366C-0.333738 31.315 0.613476 32.3213 1.59409 31.9639L6.51239 30.1926L6.88138 30.3628L8.67183 35.2288C9.03081 36.206 10.4128 36.2734 10.8603 35.3231L14.3535 27.9121C10.189 27.1955 6.59149 24.832 4.28727 21.5127Z" fill="#2A567D"/>
</svg>
