<svg width="36" height="36" viewBox="0 0 36 36" fill="none" xmlns="http://www.w3.org/2000/svg">
<g clip-path="url(#clip0_1621_7813)">
<path d="M34.149 17.2926L32.3138 18.2369V17.0819C32.3138 14.3024 31.614 11.5431 30.1125 9.20089C25.941 2.68414 17.3258 0.572139 10.6268 4.82464C9.44628 5.57689 10.2765 7.51189 11.6588 7.08889C14.5755 6.19564 17.493 6.69664 19.7025 8.00014C22.464 9.60889 24.4193 12.5384 24.4193 16.0461C24.4193 17.0084 24.4193 18.2301 24.4253 18.2361L22.6155 17.2986C21.4283 16.6889 20.2088 18.0749 20.9723 19.1729L27.3255 28.3116C27.8325 29.0436 28.9238 29.0436 29.4308 28.3116L35.79 19.1669C36.5558 18.0629 35.337 16.6769 34.149 17.2926Z" fill="#2A567D"/>
<path d="M24.3383 28.9116C21.4223 29.8049 18.504 29.3039 16.2945 27.9996C13.5405 26.3954 11.5778 23.4696 11.5778 19.9536C11.5778 18.9906 11.5778 17.7696 11.5718 17.7636L13.3815 18.7011C14.5688 19.3109 15.7883 17.9241 15.0248 16.8276L8.6715 7.68889C8.1645 6.95689 7.07325 6.95689 6.56625 7.68889L0.206251 16.8336C-0.557249 17.9376 0.662251 19.3236 1.8495 18.7079L3.68475 17.7644C3.68475 20.7404 3.861 23.6421 5.886 26.8004C7.965 30.0479 11.1098 32.1329 14.3895 32.9549C18.1425 33.9021 22.056 33.2811 25.3718 31.1751C26.5523 30.4251 25.7213 28.4871 24.3383 28.9116Z" fill="#F26B35"/>
</g>
<defs>
<clipPath id="clip0_1621_7813">
<rect width="36" height="36" fill="white"/>
</clipPath>
</defs>
</svg>
