<svg width="32" height="36" viewBox="0 0 32 36" fill="none" xmlns="http://www.w3.org/2000/svg">
<path d="M15.9985 31.4519C14.2274 31.4512 12.5083 31.102 10.8888 30.4141C10.3849 30.2001 9.89783 29.9559 9.42841 29.6833C7.72479 31.2491 6.65625 33.4992 6.65625 36H25.3424C25.3424 33.4992 24.274 31.249 22.5703 29.6833C22.1009 29.9559 21.6138 30.2001 21.1099 30.4141C19.4905 31.102 17.7713 31.4512 15.9985 31.4519Z" fill="#F26B35"/>
<path d="M2.87411 18.2761C2.87418 17.8307 2.90578 17.3854 2.96773 16.9452H1.00274C0.379655 17.6448 0 18.5669 0 19.5768C0 21.7572 1.78861 23.531 3.9615 23.531C3.27661 21.9057 2.87411 20.0538 2.87411 18.2761Z" fill="#F26B35"/>
<path d="M31.2989 17.334H29.0765C29.107 17.6452 29.1225 17.9596 29.1225 18.2765C29.1225 20.0537 28.7201 21.9056 28.0352 23.531C30.208 23.531 31.9967 21.7571 31.9967 19.5768C31.9967 18.7445 31.7384 17.9718 31.2989 17.334Z" fill="#F26B35"/>
<path d="M5.09853 4.68579C3.75159 5.47048 2.67086 6.54014 1.90783 7.86026C0.781623 9.80883 0.368263 12.2226 0.685553 14.8358H4.03847C5.40265 14.2586 7.1298 13.3234 8.49321 11.4737C6.7128 9.57701 5.56627 7.28981 5.09853 4.68579Z" fill="#F26B35"/>
<path d="M16.0003 29.3425C22.0889 29.3401 27.024 24.3867 27.024 18.2766C27.0239 17.9573 27.0035 17.6428 26.9641 17.3342C26.9641 17.3342 23.5094 17.3217 22.9842 17.293V19.4754H20.882V17.1004C17.5511 16.6715 14.4242 15.6711 11.9426 14.2037C11.2656 13.8033 10.6355 13.3699 10.0522 12.9055C8.4058 15.0639 6.65734 16.0187 5.1563 16.6538C5.039 17.176 4.9767 17.719 4.97656 18.2768C4.97656 24.3867 9.9116 29.3401 16.0003 29.3425ZM9.01628 19.4753V17.3659H11.1185V19.4753H9.01628ZM16.0003 21.4206C16.6903 21.4206 17.3341 21.0476 17.6803 20.4472L19.4999 21.5034C18.7793 22.7535 17.4383 23.53 16.0003 23.53C14.5623 23.53 13.2213 22.7535 12.5007 21.5034L14.3204 20.4472C14.6665 21.0477 15.3102 21.4206 16.0003 21.4206Z" fill="#2A567D"/>
<path d="M29.2977 7.48284C28.0594 5.16343 26.1606 3.28973 23.654 1.91392C20.6872 0.28534 17.3186 -0.333483 14.1693 0.171504C12.0373 0.513294 10.1727 1.33722 8.80957 2.5087C8.32396 1.59885 7.43144 0.615951 5.78984 0.0559799L5.11328 2.05314C5.49217 2.18238 5.80448 2.34431 6.06284 2.5234C6.61229 2.90435 6.9314 3.40273 7.09817 3.79585C7.59786 7.46097 9.57498 10.355 13.0098 12.3862C16.169 14.2543 20.5208 15.2886 24.9509 15.2248L24.9661 15.2246H30.946C31.0404 12.3121 30.4875 9.71154 29.2977 7.48284Z" fill="#F26B35"/>
</svg>
