<svg width="20" height="20" viewBox="0 0 20 20" fill="none" xmlns="http://www.w3.org/2000/svg">
<path d="M17.0823 2.92135C13.192 -0.973783 6.80798 -0.973783 2.91771 2.92135C-0.972568 6.81648 -0.972568 13.2085 2.91771 17.1036C4.91272 19.1011 7.40648 20 10 20C12.5935 20 15.0873 19.0012 17.0823 17.1036C20.9726 13.2085 20.9726 6.81648 17.0823 2.92135ZM14.0898 12.9089C14.389 13.2085 14.389 13.8077 14.0898 14.1074C13.8903 14.3071 13.6908 14.3071 13.4913 14.3071C13.2918 14.3071 13.0923 14.2072 12.8928 14.1074L10 11.211L7.10723 14.1074C6.90773 14.3071 6.70823 14.3071 6.50873 14.3071C6.30923 14.3071 6.10973 14.2072 5.91022 14.1074C5.61097 13.8077 5.61097 13.2085 5.91022 12.9089L8.80299 10.0125L5.91022 7.11611C5.61097 6.81648 5.61097 6.21723 5.91022 5.9176C6.20948 5.61798 6.80798 5.61798 7.10723 5.9176L10 8.81398L12.8928 5.9176C13.192 5.61798 13.7905 5.61798 14.0898 5.9176C14.389 6.21723 14.389 6.81648 14.0898 7.11611L11.197 10.0125L14.0898 12.9089Z" fill="#B5B5B5"/>
</svg>
