<svg width="36" height="36" viewBox="0 0 36 36" fill="none" xmlns="http://www.w3.org/2000/svg">
<g clip-path="url(#clip0_1621_7847)">
<path d="M0 33H21V36H0V33Z" fill="#2A567D"/>
<path d="M18 29.9756C18 29.5778 17.842 29.1963 17.5607 28.915C17.2794 28.6337 16.8978 28.4756 16.5 28.4756H4.5C4.10218 28.4756 3.72064 28.6337 3.43934 28.915C3.15804 29.1963 3 29.5778 3 29.9756V31.5H18V29.9756Z" fill="#2A567D"/>
<path d="M20.4115 17.7116C19.7126 18.4565 19.1265 19.2997 18.6719 20.2144L31.0184 32.5609C31.2997 32.8421 31.6811 33 32.0789 33C32.4766 33 32.8581 32.8421 33.1394 32.5609L35.2608 30.4395C35.4 30.3002 35.5105 30.1348 35.5859 29.9528C35.6613 29.7708 35.7001 29.5758 35.7001 29.3788C35.7001 29.1818 35.6613 28.9867 35.5859 28.8047C35.5105 28.6228 35.4 28.4574 35.2608 28.3181L22.9142 15.975C21.998 16.4256 21.1543 17.011 20.4115 17.7116Z" fill="#F26B35"/>
<path d="M12.9869 10.287C11.8525 11.3397 10.5395 12.1815 9.10938 12.7729L16.8621 20.5256C17.4588 19.098 18.3015 17.7862 19.3518 16.65C20.4862 15.5973 21.7992 14.7554 23.2293 14.1637L15.4761 6.41248C14.8792 7.83956 14.0367 9.15092 12.9869 10.287Z" fill="#F26B35"/>
<path d="M18.2831 0.743305L16.1621 2.8643C15.5764 3.45 15.5764 4.39961 16.1621 4.9853L24.6461 13.4693C25.2318 14.055 26.1814 14.055 26.7671 13.4693L28.8881 11.3483C29.4738 10.7626 29.4738 9.813 28.8881 9.22731L20.4041 0.743305C19.8184 0.157607 18.8688 0.157607 18.2831 0.743305Z" fill="#F26B35"/>
<path d="M5.5565 13.4688L3.4355 15.5898C2.8498 16.1755 2.8498 17.1251 3.4355 17.7108L11.9195 26.1948C12.5052 26.7805 13.4548 26.7805 14.0405 26.1948L16.1615 24.0738C16.7472 23.4881 16.7472 22.5385 16.1615 21.9528L7.6775 13.4688C7.0918 12.8831 6.1422 12.8831 5.5565 13.4688Z" fill="#F26B35"/>
</g>
<defs>
<clipPath id="clip0_1621_7847">
<rect width="36" height="36" fill="white"/>
</clipPath>
</defs>
</svg>
