<svg width="36" height="33" viewBox="0 0 36 33" fill="none" xmlns="http://www.w3.org/2000/svg">
<path fill-rule="evenodd" clip-rule="evenodd" d="M7.25234 10.3966L10.3298 8.51319C11.2431 7.95428 11.5462 6.7618 11.0115 5.83101L8.23322 0.994197C7.9482 0.497928 7.51678 0.178679 6.96071 0.0525026C6.40458 -0.0737484 5.87867 0.0281633 5.40907 0.353161L0.342236 3.85952C-2.06958 12.401 8.76863 30.8929 17.0809 33L22.6355 30.3428C23.1503 30.0965 23.5011 29.6896 23.6704 29.1424C23.8397 28.5952 23.7803 28.0602 23.4952 27.5639L20.7169 22.7271C20.1823 21.7963 19.0032 21.4639 18.065 21.9794L14.9035 23.7165C11.7771 20.9217 8.09721 14.5155 7.25234 10.3966Z" fill="#2A567D"/>
<path d="M34.4284 5.38148H13.3153C13.6859 6.28263 13.6831 7.27061 13.3583 8.14467L21.8883 14.0222L34.4284 5.38148Z" fill="#F26B35"/>
<path d="M22.3897 15.8446L35.9619 6.49273C35.9877 6.60091 36.0015 6.71372 36.0015 6.82959V23.3826C36.0015 24.1791 35.3531 24.8307 34.5607 24.8307H24.5248L22.8018 21.8311C21.7838 20.0588 19.5375 19.4255 17.7509 20.4071L15.7514 21.5059C13.4046 18.9572 10.8742 14.552 9.85156 11.2349L11.798 10.0437C12.0011 9.91942 12.1881 9.77846 12.3588 9.62384L21.369 15.8322C21.6641 16.0454 22.0721 16.0624 22.3897 15.8446Z" fill="#F26B35"/>
</svg>
