<svg width="37" height="37" viewBox="0 0 37 37" fill="none" xmlns="http://www.w3.org/2000/svg">
<path d="M33.386 20.305C30.5559 19.877 28.1848 18.053 26.9913 15.553C26.9513 15.557 26.9154 15.557 26.8795 15.557C22.1812 15.557 18.3811 11.7451 18.3811 7.0451C18.3811 6.04111 18.5568 5.07713 18.8761 4.18114C19.1874 3.31313 18.5887 2.37314 17.6666 2.36914H17.5788C7.74716 2.36914 -0.148463 10.6971 0.542098 20.697C1.13686 29.3089 8.21818 36.2089 16.8243 36.5809C25.8217 36.9688 33.3621 30.3809 34.5117 21.765C34.6075 21.057 34.0925 20.409 33.386 20.305ZM7.50766 23.609C7.35198 23.757 7.1524 23.829 6.9568 23.829C6.74523 23.829 6.53368 23.749 6.378 23.585L5.17649 22.325C4.87311 22.005 4.8851 21.497 5.20443 21.193C5.52376 20.889 6.03072 20.901 6.3341 21.221L7.53161 22.477C7.83896 22.797 7.827 23.305 7.50766 23.609ZM9.73903 15.817C8.67724 15.817 7.81102 14.953 7.81102 13.885C7.81102 12.8211 8.67724 11.9531 9.73903 11.9531C10.8048 11.9531 11.667 12.8211 11.667 13.885C11.667 14.953 10.8048 15.817 9.73903 15.817ZM13.1799 6.45712L14.4852 6.11711C14.9123 6.00512 15.3474 6.25712 15.4592 6.6851C15.5749 7.11309 15.3195 7.5491 14.8924 7.66109L13.5831 8.0051C13.5152 8.0251 13.4474 8.03311 13.3835 8.03311C13.0282 8.03311 12.7049 7.79309 12.6091 7.43709C12.4973 7.00912 12.7528 6.56911 13.1799 6.45712ZM14.6888 33.2049C13.635 33.2049 12.7807 32.3489 12.7807 31.2929C12.7807 30.2409 13.635 29.3849 14.6888 29.3849C15.7426 29.3849 16.5968 30.2409 16.5968 31.2929C16.5968 32.3489 15.7426 33.2049 14.6888 33.2049ZM18.936 21.165C18.8242 21.497 18.5129 21.705 18.1815 21.705C18.0937 21.705 18.0099 21.693 17.9261 21.665L16.3374 21.125C15.9222 20.985 15.6987 20.533 15.8384 20.113C15.9821 19.693 16.4332 19.469 16.8523 19.613L18.437 20.149C18.8521 20.289 19.0797 20.745 18.936 21.165ZM22.7241 22.665C22.7241 21.693 23.5105 20.905 24.4805 20.905C25.4505 20.905 26.2368 21.693 26.2368 22.665C26.2368 23.637 25.4505 24.425 24.4805 24.425C23.5105 24.425 22.7241 23.637 22.7241 22.665ZM27.6818 31.2929C27.5262 31.4689 27.3106 31.5569 27.0911 31.5569C26.8995 31.5569 26.7079 31.4889 26.5562 31.3529L25.7019 30.5769C25.3746 30.2809 25.3507 29.7769 25.6461 29.4489C25.9415 29.1209 26.4484 29.0969 26.7717 29.3929L27.6259 30.1649C27.9533 30.4609 27.9812 30.9649 27.6818 31.2929Z" fill="#F26B35"/>
<path d="M26.2176 6.17312C27.7344 5.60113 29.3032 4.00114 29.4469 3.38513C29.7982 1.88515 28.0019 0.597168 26.2176 0.597168C24.4333 0.597168 22.9883 1.84516 22.9883 3.38513C22.9883 4.92513 24.5451 6.79712 26.2176 6.17312Z" fill="#2A567D"/>
<path d="M31.9995 9.35327C30.9657 9.95326 30.315 11.7333 31.3848 12.6172C32.3548 13.4172 34.0433 13.8492 34.5103 13.7092C35.6519 13.3612 35.8196 11.6492 35.1251 10.4452C34.4305 9.24526 33.0334 8.75327 31.9995 9.35327Z" fill="#2A567D"/>
<path d="M35.173 2.47314C34.4385 2.47314 33.8438 3.06914 33.8438 3.80114C33.8438 4.53712 34.4385 5.13313 35.173 5.13313C35.9035 5.13313 36.4983 4.53712 36.4983 3.80114C36.4983 3.06914 35.9035 2.47314 35.173 2.47314Z" fill="#2A567D"/>
</svg>
