<svg width="16" height="16" viewBox="0 0 16 16" fill="none" xmlns="http://www.w3.org/2000/svg">
<path d="M6.18724 7.44012C5.86584 7.12012 5.38374 7.12012 5.06234 7.44012C4.74094 7.76012 4.74094 8.24012 5.06234 8.56012L7.47284 10.9601C7.63354 11.1201 7.79424 11.2001 8.03529 11.2001C8.27634 11.2001 8.43704 11.1201 8.59774 10.9601L14.2222 4.56012C14.4633 4.16012 14.4633 3.68012 14.0615 3.44012C13.7401 3.20012 13.258 3.20012 13.017 3.52012L8.03529 9.20012L6.18724 7.44012Z" fill="#34A853"/>
<path d="M15.2665 7.2C14.7844 7.2 14.463 7.52 14.463 8C14.463 11.52 11.5704 14.4 8.035 14.4C4.4996 14.4 1.607 11.52 1.607 8C1.607 6.32 2.2498 4.72 3.45505 3.52C4.6603 2.24 6.2673 1.6 8.035 1.6C8.5171 1.6 9.07955 1.68 9.56166 1.76C9.9634 1.92 10.4455 1.68 10.6062 1.2C10.7669 0.72 10.4455 0.4 10.0438 0.24H9.9634C9.3206 0.08 8.6778 0 8.035 0C3.61575 0 0 3.6 0 8.08C0 10.16 0.883851 12.24 2.33015 13.68C3.8568 15.2 5.86555 16 7.95465 16C12.3739 16 15.9897 12.4 15.9897 8C16.07 7.52 15.6683 7.2 15.2665 7.2Z" fill="#34A853"/>
</svg>
