<svg width="36" height="36" viewBox="0 0 36 36" fill="none" xmlns="http://www.w3.org/2000/svg">
<path d="M35.2629 10.0463H25.9531V0.736572L35.2629 10.0463Z" fill="#F26B35"/>
<path d="M36.0015 12.5581V31.3953C36.0015 33.9405 33.942 36 31.3969 36H20.329C24.2304 33.3712 26.7922 28.9005 26.7922 23.8605C26.7922 15.773 20.2285 9.2093 12.1411 9.2093C10.2155 9.2093 8.39038 9.59442 6.69922 10.2642V4.60465C6.69922 2.05953 8.75875 0 11.3039 0H23.4434V11.3023C23.4434 11.9888 24.0127 12.5581 24.6992 12.5581H36.0015Z" fill="#F26B35"/>
<path d="M12.1395 11.7209C5.44186 11.7209 0 17.1628 0 23.8605C0 30.5582 5.44186 36 12.1395 36C18.8372 36 24.2791 30.5582 24.2791 23.8605C24.2791 17.1628 18.8372 11.7209 12.1395 11.7209ZM16.5935 28.3144C16.3423 28.5656 16.0242 28.6828 15.706 28.6828C15.3879 28.6828 15.0698 28.5656 14.8186 28.3144L11.2521 24.7479C11.0177 24.5135 10.8837 24.1954 10.8837 23.8605V18.8372C10.8837 18.1507 11.453 17.5814 12.1395 17.5814C12.826 17.5814 13.3953 18.1507 13.3953 18.8372V23.3414L16.5935 26.5396C17.0791 27.0251 17.0791 27.8289 16.5935 28.3144Z" fill="#2A567D"/>
</svg>
