<svg width="35" height="32" viewBox="0 0 35 32" fill="none" xmlns="http://www.w3.org/2000/svg">
<path d="M0 8.63281V28.7101C0 30.6849 1.19938 32.0014 2.94393 32.0014H31.2928C33.0374 32.0014 35 30.5752 35 28.7101V8.63281H0ZM9.70405 27.0644H7.08723C6.65109 27.0644 6.21495 26.7353 6.21495 26.1867V23.4439C6.21495 23.0051 6.54206 22.5662 7.08723 22.5662H9.81308C10.2492 22.5662 10.6854 22.8954 10.6854 23.4439V26.1867C10.5763 26.7353 10.2492 27.0644 9.70405 27.0644ZM9.70405 17.1903H7.08723C6.65109 17.1903 6.21495 16.8612 6.21495 16.3126V13.5698C6.21495 13.131 6.54206 12.6922 7.08723 12.6922H9.81308C10.2492 12.6922 10.6854 13.0213 10.6854 13.5698V16.3126C10.5763 16.8612 10.2492 17.1903 9.70405 17.1903ZM18.4268 27.0644H15.7009C15.2648 27.0644 14.8287 26.7353 14.8287 26.1867V23.4439C14.8287 23.0051 15.1558 22.5662 15.7009 22.5662H18.4268C18.8629 22.5662 19.2991 22.8954 19.2991 23.4439V26.1867C19.2991 26.7353 18.972 27.0644 18.4268 27.0644ZM18.4268 17.1903H15.7009C15.2648 17.1903 14.8287 16.8612 14.8287 16.3126V13.5698C14.8287 13.131 15.1558 12.6922 15.7009 12.6922H18.4268C18.8629 12.6922 19.2991 13.0213 19.2991 13.5698V16.3126C19.2991 16.8612 18.972 17.1903 18.4268 17.1903ZM27.1495 27.0644H24.4237C23.9875 27.0644 23.5514 26.7353 23.5514 26.1867V23.4439C23.5514 23.0051 23.8785 22.5662 24.4237 22.5662H27.1495C27.5857 22.5662 28.0218 22.8954 28.0218 23.4439V26.1867C28.0218 26.7353 27.6947 27.0644 27.1495 27.0644ZM27.1495 17.1903H24.4237C23.9875 17.1903 23.5514 16.8612 23.5514 16.3126V13.5698C23.5514 13.131 23.8785 12.6922 24.4237 12.6922H27.1495C27.5857 12.6922 28.0218 13.0213 28.0218 13.5698V16.3126C28.0218 16.8612 27.6947 17.1903 27.1495 17.1903Z" fill="#F26B35"/>
<path d="M27.9128 0H31.1838C32.9284 0 34.891 1.42625 34.891 3.29136V7.24099H0V3.29136C0 1.42625 1.19938 0 2.83489 0H6.10592V3.29136C6.10592 3.94963 6.65109 4.38848 7.19626 4.38848C7.74143 4.38848 8.28661 3.94963 8.28661 3.29136V0H25.7321V3.29136C25.7321 3.94963 26.2773 4.38848 26.8224 4.38848C27.3676 4.38848 27.9128 3.94963 27.9128 3.29136V0Z" fill="#2A567D"/>
</svg>
