<svg width="36" height="36" viewBox="0 0 36 36" fill="none" xmlns="http://www.w3.org/2000/svg">
<g clip-path="url(#clip0_1621_7912)">
<path d="M21.375 0H4.125C1.845 0 0 1.845 0 4.125V27.375C0 29.655 1.845 31.5 4.125 31.5H15.195L15.525 29.655C15.675 28.815 16.065 28.065 16.665 27.45L25.5 18.63V4.125C25.5 1.845 23.655 0 21.375 0ZM6 6H12C12.825 6 13.5 6.675 13.5 7.5C13.5 8.325 12.825 9 12 9H6C5.175 9 4.5 8.325 4.5 7.5C4.5 6.675 5.175 6 6 6ZM13.5 21H6C5.175 21 4.5 20.325 4.5 19.5C4.5 18.675 5.175 18 6 18H13.5C14.325 18 15 18.675 15 19.5C15 20.325 14.325 21 13.5 21ZM19.5 15H6C5.175 15 4.5 14.325 4.5 13.5C4.5 12.675 5.175 12 6 12H19.5C20.325 12 21 12.675 21 13.5C21 14.325 20.325 15 19.5 15Z" fill="#F26B35"/>
<path d="M18.7885 36C18.493 36 18.205 35.883 17.9935 35.67C17.734 35.4105 17.617 35.0415 17.6815 34.6784L18.4765 30.171C18.5155 29.9445 18.6265 29.7345 18.7885 29.571L29.926 18.435C31.294 17.064 32.638 17.4345 33.373 18.1695L35.2285 20.025C36.253 21.048 36.253 22.713 35.2285 23.7375L24.091 34.875C23.929 35.0385 23.719 35.148 23.491 35.187L18.9835 35.982C18.919 35.994 18.853 36 18.7885 36Z" fill="#2A567D"/>
</g>
<defs>
<clipPath id="clip0_1621_7912">
<rect width="36" height="36" fill="white"/>
</clipPath>
</defs>
</svg>
