<svg width="33" height="36" viewBox="0 0 33 36" fill="none" xmlns="http://www.w3.org/2000/svg">
<path d="M19.9131 10.5459L28.8209 25.8965L27.8556 27.5599H5.1444L4.17913 25.8965L13.0869 10.5459H0V31.7783H12.835L16.5 36L20.165 31.7783H33V10.5459H19.9131Z" fill="#F26B35"/>
<path d="M6.88281 25.4507H26.1116L16.4972 8.88245L6.88281 25.4507ZM17.5571 23.3416H15.4372V21.2324H17.5571V23.3416ZM17.5571 19.1232H15.4372V14.9049H17.5571V19.1232Z" fill="#2A567D"/>
<path d="M15.4375 0H17.5574V3.16377H15.4375V0Z" fill="#F26B35"/>
<path d="M10.0391 2.42981L11.7541 1.18961L13.6238 3.7491L11.9088 4.9893L10.0391 2.42981Z" fill="#F26B35"/>
<path d="M7.10156 7.56177L7.75662 5.55594L10.7807 6.53354L10.1256 8.53937L7.10156 7.56177Z" fill="#F26B35"/>
<path d="M22.2188 6.53308L25.2428 5.55548L25.8979 7.5613L22.8738 8.53891L22.2188 6.53308Z" fill="#F26B35"/>
<path d="M19.3906 3.75305L21.2604 1.19357L22.9754 2.43376L21.1056 4.99325L19.3906 3.75305Z" fill="#F26B35"/>
</svg>
