<svg width="36" height="36" viewBox="0 0 36 36" fill="none" xmlns="http://www.w3.org/2000/svg">
<path d="M35.8485 12.5084C35.8224 12.4109 34.002 9.78523 34.1701 9.71893V5.48336C34.1704 4.718 33.909 3.97587 33.4299 3.38175C26.8578 -4.42647 14.746 2.46639 17.8517 12.0842C18.2796 11.7036 20.7934 9.45395 21.2723 9.02482C21.6182 8.7253 22.0587 8.55962 22.5149 8.55746C22.9711 8.55531 23.4132 8.71683 23.7618 9.01307C24.1105 9.30931 24.3431 9.72092 24.4178 10.1741C24.4926 10.6274 24.4046 11.0926 24.1697 11.4864L21.1958 16.339C22.2277 16.6855 23.562 16.8935 23.8059 18.1965C23.8721 18.5213 23.8559 18.8576 23.7589 19.1744C23.6619 19.4912 23.4871 19.7782 23.2507 20.009L22.1275 21.0116H30.1687C30.3378 21.0111 30.4998 20.9432 30.6194 20.8228C30.739 20.7024 30.8064 20.5392 30.8069 20.3689V17.6373C30.8065 17.6102 30.8116 17.5833 30.8217 17.5582C30.8319 17.5331 30.8469 17.5103 30.8659 17.4911C30.885 17.4719 30.9076 17.4568 30.9325 17.4466C30.9575 17.4364 30.9842 17.4313 31.0111 17.4317H32.6896C33.0821 17.4314 33.4586 17.2742 33.7362 16.9946C34.0138 16.715 34.1698 16.3359 34.1701 15.9405L34.1701 14.0444C34.7148 14.0417 35.5384 14.1545 35.8422 13.5624C35.9412 13.405 35.9942 13.2227 35.9954 13.0363C35.9965 12.85 35.9456 12.667 35.8485 12.5084Z" fill="#2A567D"/>
<path d="M12.2066 27.6638C11.8573 27.3644 11.626 26.949 11.5546 26.4927C11.4831 26.0364 11.5764 25.5694 11.8174 25.1764L14.7977 20.3303L13.4576 19.8868C13.1396 19.7781 12.8553 19.5877 12.6328 19.3344C12.4103 19.0811 12.2574 18.7737 12.189 18.4426C12.1207 18.1115 12.1393 17.7681 12.2432 17.4465C12.347 17.1249 12.5324 16.8362 12.781 16.6089L13.5532 15.9212C11.7147 15.0182 9.62659 14.7694 7.62959 15.2153C5.63258 15.6611 3.84456 16.7755 2.55725 18.3764C2.07917 18.9686 1.8178 19.7084 1.81697 20.4717V24.7072C1.81604 24.7933 1.7987 24.8784 1.7659 24.9579L0.138573 27.4966C0.048842 27.6512 0.00105842 27.8268 1.73821e-05 28.0059C-0.00102366 28.1849 0.0447145 28.3611 0.132642 28.5167C0.220569 28.6724 0.347593 28.802 0.500967 28.8925C0.654341 28.9831 0.82867 29.0315 1.00646 29.0328H1.81697V30.9288C1.81724 31.3242 1.97331 31.7033 2.25091 31.9829C2.52851 32.2624 2.90494 32.4196 3.29753 32.4199H4.97597C5.00288 32.4196 5.0296 32.4246 5.05454 32.4349C5.07947 32.4451 5.10213 32.4602 5.12116 32.4794C5.1402 32.4985 5.15523 32.5214 5.16537 32.5465C5.1755 32.5716 5.18055 32.5985 5.18019 32.6256V35.3572C5.18069 35.5275 5.24809 35.6907 5.36766 35.8111C5.48724 35.9315 5.64928 35.9994 5.81838 35.9999H14.2297C14.3988 35.9994 14.5608 35.9315 14.6804 35.8111C14.8 35.6907 14.8674 35.5275 14.8679 35.3572V32.3942C14.8659 32.1534 14.9472 31.9194 15.0977 31.7322L16.6165 29.8426C17.9135 28.2293 18.623 26.2174 18.6268 24.1416L14.7147 27.6316C14.3699 27.9388 13.927 28.111 13.4666 28.1169C13.0063 28.1228 12.5591 27.962 12.2066 27.6638Z" fill="#F26B35"/>
<path d="M22.1294 17.9973C21.4981 17.7849 19.8996 17.2698 19.2512 17.0525C19.6295 16.4358 20.4014 15.1793 20.7764 14.5651L23.0803 10.8116C23.158 10.6805 23.1871 10.5259 23.1622 10.3753C23.1374 10.2246 23.0603 10.0877 22.9446 9.989C22.8289 9.89026 22.6822 9.83607 22.5306 9.83606C22.379 9.83605 22.2323 9.89023 22.1166 9.98896C19.6657 12.179 16.0928 15.3661 13.6223 17.5731C13.5388 17.6484 13.4763 17.7444 13.4412 17.8516C13.4061 17.9588 13.3995 18.0735 13.4221 18.1841C13.4447 18.2947 13.4957 18.3973 13.57 18.4818C13.6444 18.5664 13.7394 18.6298 13.8457 18.6657C14.5071 18.8809 16.0777 19.4027 16.724 19.6105C16.6081 19.8111 13.1266 25.4742 12.8949 25.8513C12.8172 25.9823 12.7884 26.1368 12.8135 26.2871C12.8386 26.4375 12.9161 26.574 13.032 26.6722C13.1478 26.7704 13.2946 26.8238 13.4461 26.823C13.5975 26.8221 13.7437 26.7671 13.8585 26.6676C15.9093 24.831 19.0591 22.0344 21.1147 20.1954L22.3527 19.0899C22.4359 19.0144 22.498 18.9183 22.5329 18.8112C22.5677 18.7041 22.5742 18.5896 22.5517 18.4792C22.5291 18.3688 22.4782 18.2662 22.4042 18.1817C22.3301 18.0971 22.2354 18.0336 22.1294 17.9973Z" fill="#F26B35"/>
</svg>
