<svg width="88" height="150" viewBox="0 0 88 150" fill="none" xmlns="http://www.w3.org/2000/svg">
<path d="M82.567 147.288C82.567 145.789 83.7827 144.576 85.2835 144.576C86.7843 144.576 88 145.791 88 147.288C88 148.786 86.7828 150 85.2835 150C83.7841 150 82.567 148.786 82.567 147.288Z" fill="#F26B35"/>
<path d="M66.0539 147.288C66.0539 145.789 67.271 144.576 68.7718 144.576C70.2726 144.576 71.4883 145.791 71.4883 147.288C71.4883 148.786 70.2726 150 68.7718 150C67.271 150 66.0539 148.786 66.0539 147.288Z" fill="#F26B35"/>
<path d="M49.5398 147.288C49.5398 145.789 50.7554 144.576 52.2562 144.576C53.757 144.576 54.9727 145.791 54.9727 147.288C54.9727 148.786 53.757 150 52.2562 150C50.7554 150 49.5398 148.786 49.5398 147.288Z" fill="#F26B35"/>
<path d="M33.0266 147.288C33.0266 145.789 34.2422 144.576 35.743 144.576C37.2438 144.576 38.4609 145.791 38.4609 147.288C38.4609 148.786 37.2438 150 35.743 150C34.2422 150 33.0266 148.786 33.0266 147.288Z" fill="#F26B35"/>
<path d="M16.5129 147.288C16.5129 145.789 17.73 144.576 19.2308 144.576C20.7316 144.576 21.9473 145.791 21.9473 147.288C21.9473 148.786 20.7302 150 19.2308 150C17.73 150 16.5129 148.786 16.5129 147.288Z" fill="#F26B35"/>
<path d="M-0.000776528 147.288C-0.000776659 145.789 1.21492 144.576 2.71714 144.576C4.21795 144.576 5.43359 145.791 5.43359 147.288C5.43359 148.786 4.21795 150 2.71714 150C1.21492 150 -0.000776397 148.786 -0.000776528 147.288Z" fill="#F26B35"/>
<path d="M82.567 129.215C82.567 127.717 83.7827 126.503 85.2835 126.503C86.7843 126.503 88 127.717 88 129.215C88 130.714 86.7828 131.927 85.2835 131.927C83.7841 131.929 82.567 130.714 82.567 129.215Z" fill="#F26B35"/>
<path d="M66.0539 129.215C66.0539 127.717 67.271 126.503 68.7718 126.503C70.2726 126.503 71.4883 127.717 71.4883 129.215C71.4883 130.714 70.2726 131.927 68.7718 131.927C67.271 131.929 66.0539 130.714 66.0539 129.215Z" fill="#F26B35"/>
<path d="M49.5398 129.215C49.5398 127.717 50.7554 126.503 52.2562 126.503C53.757 126.503 54.9727 127.717 54.9727 129.215C54.9727 130.714 53.757 131.927 52.2562 131.927C50.7554 131.929 49.5398 130.714 49.5398 129.215Z" fill="#F26B35"/>
<path d="M33.0266 129.215C33.0266 127.717 34.2422 126.503 35.743 126.503C37.2438 126.503 38.4609 127.717 38.4609 129.215C38.4609 130.714 37.2438 131.927 35.743 131.927C34.2422 131.929 33.0266 130.714 33.0266 129.215Z" fill="#F26B35"/>
<path d="M16.5129 129.215C16.5129 127.717 17.73 126.503 19.2308 126.503C20.7316 126.503 21.9473 127.717 21.9473 129.215C21.9473 130.714 20.7302 131.927 19.2308 131.927C17.73 131.929 16.5129 130.714 16.5129 129.215Z" fill="#F26B35"/>
<path d="M-0.000776528 129.215C-0.000776659 127.717 1.21492 126.503 2.71714 126.503C4.21795 126.503 5.43359 127.717 5.43359 129.215C5.43359 130.714 4.21795 131.927 2.71714 131.927C1.21492 131.929 -0.000776397 130.714 -0.000776528 129.215Z" fill="#F26B35"/>
<path d="M82.567 111.144C82.567 109.646 83.7827 108.432 85.2835 108.432C86.7843 108.432 88 109.646 88 111.144C88 112.642 86.7828 113.857 85.2835 113.857C83.7841 113.857 82.567 112.641 82.567 111.144Z" fill="#F26B35"/>
<path d="M66.0539 111.144C66.0539 109.646 67.271 108.432 68.7718 108.432C70.2726 108.432 71.4883 109.646 71.4883 111.144C71.4883 112.643 70.2726 113.858 68.7718 113.858C67.271 113.858 66.0539 112.641 66.0539 111.144Z" fill="#F26B35"/>
<path d="M49.5398 111.144C49.5398 109.646 50.7554 108.432 52.2562 108.432C53.757 108.432 54.9727 109.646 54.9727 111.144C54.9727 112.642 53.757 113.857 52.2562 113.857C50.7554 113.857 49.5398 112.641 49.5398 111.144Z" fill="#F26B35"/>
<path d="M33.0285 111.144C33.0285 109.646 34.2442 108.432 35.745 108.432C37.2458 108.432 38.4629 109.646 38.4629 111.144C38.4629 112.643 37.2458 113.858 35.745 113.858C34.2442 113.858 33.0285 112.641 33.0285 111.144Z" fill="#F26B35"/>
<path d="M16.5129 111.144C16.5129 109.646 17.73 108.432 19.2308 108.432C20.7316 108.432 21.9473 109.646 21.9473 111.144C21.9473 112.642 20.7302 113.857 19.2308 113.857C17.73 113.857 16.5129 112.641 16.5129 111.144Z" fill="#F26B35"/>
<path d="M-0.000776528 111.144C-0.000776659 109.646 1.21492 108.432 2.71714 108.432C4.21795 108.432 5.43359 109.646 5.43359 111.144C5.43359 112.642 4.21795 113.857 2.71714 113.857C1.21492 113.857 -0.000776397 112.641 -0.000776528 111.144Z" fill="#F26B35"/>
<path d="M82.567 93.0726C82.567 91.5727 83.7827 90.3604 85.2835 90.3604C86.7843 90.3604 88 91.5727 88 93.0725C88 94.5695 86.7828 95.7847 85.2835 95.7847C83.7841 95.7847 82.567 94.5695 82.567 93.0726Z" fill="#F26B35"/>
<path d="M66.052 93.0726C66.052 91.5727 67.2691 90.3604 68.7699 90.3604C70.2707 90.3604 71.4863 91.5727 71.4863 93.0725C71.4863 94.5695 70.2707 95.7847 68.7699 95.7847C67.2691 95.7847 66.052 94.5695 66.052 93.0726Z" fill="#F26B35"/>
<path d="M49.5398 93.0726C49.5398 91.5727 50.7554 90.3604 52.2562 90.3604C53.757 90.3604 54.9727 91.5727 54.9727 93.0725C54.9727 94.5695 53.757 95.7847 52.2562 95.7847C50.7554 95.7847 49.5398 94.5695 49.5398 93.0726Z" fill="#F26B35"/>
<path d="M33.0266 93.0726C33.0266 91.5727 34.2422 90.3604 35.743 90.3604C37.2438 90.3604 38.4609 91.5727 38.4609 93.0725C38.4609 94.5695 37.2438 95.7847 35.743 95.7847C34.2422 95.7847 33.0266 94.5695 33.0266 93.0726Z" fill="#F26B35"/>
<path d="M16.5129 93.0726C16.5129 91.5727 17.73 90.3604 19.2308 90.3604C20.7316 90.3604 21.9473 91.5727 21.9473 93.0725C21.9473 94.5695 20.7302 95.7847 19.2308 95.7847C17.73 95.7847 16.5129 94.5695 16.5129 93.0726Z" fill="#F26B35"/>
<path d="M-0.000776528 93.0726C-0.000776659 91.5727 1.21492 90.3604 2.71714 90.3604C4.21795 90.3604 5.43359 91.5727 5.43359 93.0725C5.43359 94.5695 4.21795 95.7847 2.71714 95.7847C1.21492 95.7847 -0.000776397 94.5695 -0.000776528 93.0726Z" fill="#F26B35"/>
<path d="M82.567 75.0001C82.567 73.5017 83.7827 72.288 85.2835 72.288C86.7843 72.288 88 73.5017 88 75.0001C88 76.4985 86.7828 77.7122 85.2835 77.7122C83.7841 77.7122 82.567 76.4985 82.567 75.0001Z" fill="#F26B35"/>
<path d="M66.052 75.0001C66.052 73.5017 67.2691 72.288 68.7699 72.288C70.2707 72.288 71.4863 73.5017 71.4863 75.0001C71.4863 76.4985 70.2707 77.7122 68.7699 77.7122C67.2691 77.7122 66.052 76.4985 66.052 75.0001Z" fill="#F26B35"/>
<path d="M49.5398 75.0001C49.5398 73.5017 50.7554 72.288 52.2562 72.288C53.757 72.288 54.9727 73.5017 54.9727 75.0001C54.9727 76.4985 53.757 77.7122 52.2562 77.7122C50.7554 77.7122 49.5398 76.4985 49.5398 75.0001Z" fill="#F26B35"/>
<path d="M33.0285 75.0001C33.0285 73.5017 34.2442 72.288 35.745 72.288C37.2458 72.288 38.4629 73.5017 38.4629 75.0001C38.4629 76.4985 37.2458 77.7122 35.745 77.7122C34.2442 77.7122 33.0285 76.4985 33.0285 75.0001Z" fill="#F26B35"/>
<path d="M16.5129 75.0001C16.5129 73.5017 17.73 72.288 19.2308 72.288C20.7316 72.288 21.9473 73.5017 21.9473 75.0001C21.9473 76.4985 20.7302 77.7122 19.2308 77.7122C17.73 77.7122 16.5129 76.4985 16.5129 75.0001Z" fill="#F26B35"/>
<path d="M-0.000776528 75.0001C-0.000776659 73.5017 1.21492 72.288 2.71714 72.288C4.21795 72.288 5.43359 73.5017 5.43359 75.0001C5.43359 76.4985 4.21795 77.7122 2.71714 77.7122C1.21492 77.7122 -0.000776397 76.4985 -0.000776528 75.0001Z" fill="#F26B35"/>
<path d="M82.567 56.929C82.567 55.4306 83.7827 54.2169 85.2835 54.2169C86.7843 54.2169 88 55.4306 88 56.929C88 58.4274 86.7828 59.6411 85.2835 59.6411C83.7841 59.6397 82.567 58.426 82.567 56.929Z" fill="#F26B35"/>
<path d="M66.052 56.929C66.052 55.4306 67.2691 54.2169 68.7699 54.2169C70.2707 54.2169 71.4863 55.4306 71.4863 56.929C71.4863 58.4274 70.2707 59.6411 68.7699 59.6411C67.2691 59.6397 66.052 58.426 66.052 56.929Z" fill="#F26B35"/>
<path d="M49.5398 56.929C49.5398 55.4306 50.7554 54.2169 52.2562 54.2169C53.757 54.2169 54.9727 55.4306 54.9727 56.929C54.9727 58.4274 53.757 59.6411 52.2562 59.6411C50.7554 59.6397 49.5398 58.426 49.5398 56.929Z" fill="#F26B35"/>
<path d="M33.0266 56.929C33.0266 55.4306 34.2422 54.2169 35.743 54.2169C37.2438 54.2169 38.4609 55.4306 38.4609 56.929C38.4609 58.4274 37.2438 59.6411 35.743 59.6411C34.2422 59.6397 33.0266 58.426 33.0266 56.929Z" fill="#F26B35"/>
<path d="M16.5129 56.929C16.5129 55.4306 17.73 54.2169 19.2308 54.2169C20.7316 54.2169 21.9473 55.4306 21.9473 56.929C21.9473 58.4274 20.7302 59.6411 19.2308 59.6411C17.73 59.6397 16.5129 58.426 16.5129 56.929Z" fill="#F26B35"/>
<path d="M-0.000776528 56.929C-0.000776659 55.4306 1.21492 54.2169 2.71714 54.2169C4.21795 54.2169 5.43359 55.4306 5.43359 56.929C5.43359 58.4274 4.21795 59.6411 2.71714 59.6411C1.21492 59.6397 -0.000776397 58.426 -0.000776528 56.929Z" fill="#F26B35"/>
<path d="M82.567 38.8558C82.567 37.3574 83.7827 36.1437 85.2835 36.1437C86.7843 36.1437 88 37.3574 88 38.8558C88 40.3542 86.7828 41.5679 85.2835 41.5679C83.7841 41.5679 82.567 40.3528 82.567 38.8558Z" fill="#F26B35"/>
<path d="M66.0539 38.8558C66.0539 37.3574 67.271 36.1437 68.7718 36.1437C70.2726 36.1437 71.4883 37.3574 71.4883 38.8558C71.4883 40.3542 70.2726 41.5679 68.7718 41.5679C67.271 41.5679 66.0539 40.3528 66.0539 38.8558Z" fill="#F26B35"/>
<path d="M49.5398 38.8558C49.5398 37.3574 50.7554 36.1437 52.2562 36.1437C53.757 36.1437 54.9727 37.3574 54.9727 38.8558C54.9727 40.3542 53.757 41.5679 52.2562 41.5679C50.7554 41.5679 49.5398 40.3528 49.5398 38.8558Z" fill="#F26B35"/>
<path d="M33.0266 38.8558C33.0266 37.3574 34.2422 36.1437 35.743 36.1437C37.2438 36.1437 38.4609 37.3574 38.4609 38.8558C38.4609 40.3542 37.2438 41.5679 35.743 41.5679C34.2422 41.5679 33.0266 40.3528 33.0266 38.8558Z" fill="#F26B35"/>
<path d="M16.5129 38.8558C16.5129 37.3574 17.73 36.1437 19.2308 36.1437C20.7316 36.1437 21.9473 37.3574 21.9473 38.8558C21.9473 40.3542 20.7302 41.5679 19.2308 41.5679C17.73 41.5679 16.5129 40.3528 16.5129 38.8558Z" fill="#F26B35"/>
<path d="M-0.000776528 38.8558C-0.000776659 37.3574 1.21492 36.1437 2.71714 36.1437C4.21795 36.1437 5.43359 37.3574 5.43359 38.8558C5.43359 40.3542 4.21795 41.5679 2.71714 41.5679C1.21492 41.5679 -0.000776397 40.3528 -0.000776528 38.8558Z" fill="#F26B35"/>
<path d="M82.567 20.7847C82.567 19.2849 83.7827 18.0726 85.2835 18.0726C86.7843 18.0726 88 19.2863 88 20.7847C88 22.2817 86.7828 23.4968 85.2835 23.4968C83.7841 23.4968 82.567 22.2817 82.567 20.7847Z" fill="#F26B35"/>
<path d="M66.0539 20.7847C66.0539 19.2849 67.271 18.0726 68.7718 18.0726C70.2726 18.0726 71.4883 19.2863 71.4883 20.7847C71.4883 22.2817 70.2726 23.4968 68.7718 23.4968C67.271 23.4968 66.0539 22.2817 66.0539 20.7847Z" fill="#F26B35"/>
<path d="M49.5398 20.7847C49.5398 19.2849 50.7554 18.0726 52.2562 18.0726C53.757 18.0726 54.9727 19.2863 54.9727 20.7847C54.9727 22.2817 53.757 23.4968 52.2562 23.4968C50.7554 23.4968 49.5398 22.2817 49.5398 20.7847Z" fill="#F26B35"/>
<path d="M33.0285 20.7847C33.0285 19.2849 34.2442 18.0726 35.745 18.0726C37.2458 18.0726 38.4629 19.2863 38.4629 20.7847C38.4629 22.2817 37.2458 23.4968 35.745 23.4968C34.2442 23.4968 33.0285 22.2817 33.0285 20.7847Z" fill="#F26B35"/>
<path d="M16.5129 20.7847C16.5129 19.2849 17.73 18.0726 19.2308 18.0726C20.7316 18.0726 21.9473 19.2863 21.9473 20.7847C21.9473 22.2817 20.7302 23.4968 19.2308 23.4968C17.73 23.4968 16.5129 22.2817 16.5129 20.7847Z" fill="#F26B35"/>
<path d="M-0.000776528 20.7847C-0.000776659 19.2849 1.21492 18.0726 2.71714 18.0726C4.21795 18.0726 5.43359 19.2863 5.43359 20.7847C5.43359 22.2817 4.21795 23.4968 2.71714 23.4968C1.21492 23.4968 -0.000776397 22.2817 -0.000776528 20.7847Z" fill="#F26B35"/>
<path d="M82.567 2.7122C82.567 1.21381 83.7827 0.00012387 85.2835 0.000123738C86.7843 0.000123607 88 1.21381 88 2.7122C88 4.20917 86.7828 5.42432 85.2835 5.42432C83.7841 5.42432 82.567 4.20917 82.567 2.7122Z" fill="#F26B35"/>
<path d="M66.0539 2.7122C66.0539 1.21381 67.271 0.00012387 68.7718 0.000123738C70.2726 0.000123607 71.4883 1.21381 71.4883 2.7122C71.4883 4.20917 70.2726 5.42432 68.7718 5.42432C67.271 5.42432 66.0539 4.20917 66.0539 2.7122Z" fill="#F26B35"/>
<path d="M49.5398 2.7122C49.5398 1.21381 50.7554 0.00012387 52.2562 0.000123738C53.757 0.000123607 54.9727 1.21381 54.9727 2.7122C54.9727 4.20917 53.757 5.42432 52.2562 5.42432C50.7554 5.42432 49.5398 4.20917 49.5398 2.7122Z" fill="#F26B35"/>
<path d="M33.0266 2.7122C33.0266 1.21381 34.2422 0.00012387 35.743 0.000123738C37.2438 0.000123607 38.4609 1.21381 38.4609 2.7122C38.4609 4.20917 37.2438 5.42432 35.743 5.42432C34.2422 5.42432 33.0266 4.20917 33.0266 2.7122Z" fill="#F26B35"/>
<path d="M16.5129 2.7122C16.5129 1.21381 17.73 0.00012387 19.2308 0.000123738C20.7316 0.000123607 21.9473 1.21381 21.9473 2.7122C21.9473 4.20917 20.7302 5.42432 19.2308 5.42432C17.73 5.42432 16.5129 4.20917 16.5129 2.7122Z" fill="#F26B35"/>
<path d="M-0.000776528 2.7122C-0.000776659 1.21381 1.21492 0.00012387 2.71714 0.000123738C4.21795 0.000123607 5.43359 1.21381 5.43359 2.7122C5.43359 4.20917 4.21795 5.42432 2.71714 5.42432C1.21492 5.42432 -0.000776397 4.20917 -0.000776528 2.7122Z" fill="#F26B35"/>
</svg>
