<svg width="36" height="36" viewBox="0 0 36 36" fill="none" xmlns="http://www.w3.org/2000/svg">
<g clip-path="url(#clip0_1691_4235)">
<path d="M11.8438 27.6328C12.9946 31.7504 14.8758 35.1507 16.9388 36V27.6328H11.8438Z" fill="#F26B35"/>
<path d="M10.5703 19.1953C10.6377 21.3363 10.9049 23.4927 11.3331 25.5234H16.9362V19.1953H10.5703Z" fill="#F26B35"/>
<path d="M19.0547 27.6328V36C21.1177 35.1507 23.0059 31.7504 24.1568 27.6328H19.0547Z" fill="#F26B35"/>
<path d="M8.46582 19.1953H0.0546875C0.186242 21.4402 0.724695 23.5736 1.61042 25.5234H9.1757C8.7669 23.4998 8.52798 21.3567 8.46582 19.1953Z" fill="#F26B35"/>
<path d="M9.68105 27.6328H2.75C5.12509 31.4182 8.8667 34.4199 13.2854 35.609C11.7739 33.7125 10.531 30.7941 9.68105 27.6328Z" fill="#F26B35"/>
<path d="M26.3231 27.6328C25.4732 30.7941 24.2303 33.7125 22.7188 35.609C27.1375 34.4199 30.8791 31.4182 33.2542 27.6328H26.3231Z" fill="#F26B35"/>
<path d="M27.538 19.1953C27.4758 21.3567 27.2369 23.4998 26.8281 25.5234H34.3934C35.2791 23.5736 35.8176 21.4402 35.9491 19.1953H27.538Z" fill="#F26B35"/>
<path d="M19.0547 19.1953V25.5234H24.6648C25.093 23.4927 25.3602 21.3363 25.4276 19.1953H19.0547Z" fill="#F26B35"/>
<path d="M18 0C15.6733 0 13.7109 2.10298 13.7109 4.42969C13.7109 6.7564 15.6733 8.64844 18 8.64844C20.3267 8.64844 22.2891 6.7564 22.2891 4.42969C22.2891 2.10298 20.3267 0 18 0Z" fill="#2A567D"/>
<path d="M30.7266 4.42969C28.9818 4.42969 27.5625 5.84902 27.5625 7.59375C27.5625 9.33848 28.9818 10.7578 30.7266 10.7578C32.4713 10.7578 33.8906 9.33848 33.8906 7.59375C33.8906 5.84902 32.4713 4.42969 30.7266 4.42969Z" fill="#2A567D"/>
<path d="M5.27344 4.42969C3.5287 4.42969 2.10938 5.84902 2.10938 7.59375C2.10938 9.33848 3.5287 10.7578 5.27344 10.7578C7.01817 10.7578 8.4375 9.33848 8.4375 7.59375C8.4375 5.84902 7.01817 4.42969 5.27344 4.42969Z" fill="#2A567D"/>
<path d="M33.8282 11.8371C32.9554 12.477 31.8893 12.8671 30.7266 12.8671C29.5616 12.8671 28.4934 12.4751 27.6198 11.8328C27.1126 12.2113 26.6497 12.6447 26.3047 13.1774C26.4316 13.7584 26.5078 14.3579 26.5078 14.9765V17.0859H35.255C35.6664 17.0859 36 16.7523 36 16.3408C36 14.5537 35.1606 12.8789 33.8282 11.8371Z" fill="#2A567D"/>
<path d="M21.5458 9.7085C20.547 10.3683 19.2841 10.7579 18 10.7579C16.7176 10.7579 15.4562 10.3689 14.4581 9.71068C12.7061 10.9099 11.6016 13.0027 11.6016 15.2298V16.0313C11.6016 16.622 12.0656 17.086 12.6562 17.086H23.3438C23.9344 17.086 24.3984 16.622 24.3984 16.0313V14.9767C24.3984 12.715 23.2586 10.8367 21.5458 9.7085Z" fill="#2A567D"/>
<path d="M8.3802 11.8328C7.50642 12.4751 6.43845 12.8671 5.27344 12.8671C4.11075 12.8671 3.0446 12.477 2.17181 11.8371C0.839391 12.8789 0 14.5537 0 16.3408V17.0859H9.49219V14.9765C9.49219 14.3579 9.56841 13.7584 9.69532 13.1774C9.3503 12.6447 8.88729 12.2113 8.3802 11.8328Z" fill="#2A567D"/>
</g>
<defs>
<clipPath id="clip0_1691_4235">
<rect width="36" height="36" fill="white"/>
</clipPath>
</defs>
</svg>
