<svg width="36" height="36" viewBox="0 0 36 36" fill="none" xmlns="http://www.w3.org/2000/svg">
<g clip-path="url(#clip0_328_108970)">
<path d="M8.09014 22.6217L9.95755 24.4891L13.1467 21.2689C10.0823 17.6163 9.43037 12.791 10.8548 8.70529L15.0983 12.9488C15.0622 17.2152 18.5358 20.944 23.0681 20.944C25.7288 20.944 28.0888 19.6332 29.5371 17.6238L24.7192 12.8058L21.3782 16.147L8.9531 3.7219V6.53921H6.77409L6.77416 0.00219727H13.3111V2.18113L10.4939 2.1812L21.3782 13.0656L24.7192 9.72426L30.5937 15.5986C31.5571 12.8443 30.9709 9.60536 28.7039 7.33833C25.7994 4.434 21.2372 4.24792 18.1212 6.72428L14.5982 3.20127C19.6731 -1.2102 27.3732 -1.00944 32.2124 3.82969C34.6548 6.27214 35.9999 9.51966 35.9999 12.9739C35.9999 20.1046 30.1988 25.906 23.068 25.9061C19.959 25.9061 17.0179 24.8158 14.6802 22.8171L11.4982 26.0299L13.3732 27.9049L5.28329 35.9951L0 30.7118L8.09014 22.6217Z" fill="#F26B35"/>
<path d="M18.5303 29.4608H35.9622V31.6398H18.5303V29.4608Z" fill="white"/>
<path d="M11.9932 33.8188H25.0672V35.9978H11.9932V33.8188Z" fill="white"/>
</g>
<defs>
<clipPath id="clip0_328_108970">
<rect width="36" height="36" fill="white"/>
</clipPath>
</defs>
</svg>
