<svg width="200" height="117" viewBox="0 0 200 117" fill="none" xmlns="http://www.w3.org/2000/svg">
<path d="M3.61616 109.777C5.614 109.777 7.23231 111.393 7.23231 113.388C7.23231 115.384 5.61212 117 3.61616 117C1.61831 117 -7.07363e-08 115.382 -1.57875e-07 113.388C-2.45014e-07 111.395 1.61831 109.777 3.61616 109.777Z" fill="#F26B35"/>
<path d="M3.61616 87.8207C5.614 87.8207 7.23231 89.4389 7.23231 91.4343C7.23231 93.4296 5.61212 95.0459 3.61616 95.0459C1.61831 95.0459 -7.06489e-08 93.4296 -1.5787e-07 91.4343C-2.45091e-07 89.4389 1.61831 87.8207 3.61616 87.8207Z" fill="#F26B35"/>
<path d="M3.61616 65.8666C5.614 65.8666 7.23231 67.4828 7.23231 69.4782C7.23231 71.4736 5.61212 73.0898 3.61616 73.0898C1.61831 73.0898 -7.06489e-08 71.4736 -1.5787e-07 69.4782C-2.45091e-07 67.4828 1.61831 65.8666 3.61616 65.8666Z" fill="#F26B35"/>
<path d="M3.61616 43.9115C5.614 43.9115 7.23231 45.5277 7.23231 47.5231C7.23231 49.5185 5.61212 51.1367 3.61616 51.1367C1.61831 51.1367 -7.07344e-08 49.5185 -1.57955e-07 47.5231C-2.45176e-07 45.5277 1.61831 43.9115 3.61616 43.9115Z" fill="#F26B35"/>
<path d="M3.61616 21.9554C5.614 21.9554 7.23231 23.5736 7.23231 25.569C7.23231 27.5644 5.61212 29.1807 3.61616 29.1807C1.61831 29.1807 -7.07313e-08 27.5625 -1.5787e-07 25.569C-2.45091e-07 23.5736 1.61831 21.9554 3.61616 21.9554Z" fill="#F26B35"/>
<path d="M3.61616 0.000343642C5.614 0.000343554 7.23231 1.61667 7.23231 3.61394C7.23231 5.60933 5.61212 7.22559 3.61616 7.22559C1.61831 7.22559 -7.06489e-08 5.60933 -1.5787e-07 3.61394C-2.45173e-07 1.61667 1.61831 0.000343729 3.61616 0.000343642Z" fill="#F26B35"/>
<path d="M27.7128 109.776C29.7107 109.776 31.3289 111.393 31.3289 113.388C31.3289 115.383 29.7107 117 27.7128 117C25.715 117 24.0967 115.381 24.0967 113.388C24.0948 111.394 25.715 109.776 27.7128 109.776Z" fill="#F26B35"/>
<path d="M27.7128 87.8207C29.7107 87.8207 31.3289 89.4389 31.3289 91.4343C31.3289 93.4296 29.7107 95.0459 27.7128 95.0459C25.715 95.0459 24.0967 93.4296 24.0967 91.4343C24.0948 89.4389 25.715 87.8207 27.7128 87.8207Z" fill="#F26B35"/>
<path d="M27.7128 65.8666C29.7107 65.8666 31.3289 67.4828 31.3289 69.4782C31.3289 71.4736 29.7107 73.0898 27.7128 73.0898C25.715 73.0898 24.0967 71.4736 24.0967 69.4782C24.0948 67.4828 25.715 65.8666 27.7128 65.8666Z" fill="#F26B35"/>
<path d="M27.7128 43.9115C29.7107 43.9115 31.3289 45.5277 31.3289 47.5231C31.3289 49.5185 29.7107 51.1367 27.7128 51.1367C25.715 51.1367 24.0967 49.5185 24.0967 47.5231C24.0948 45.5277 25.715 43.9115 27.7128 43.9115Z" fill="#F26B35"/>
<path d="M27.7128 21.9554C29.7107 21.9554 31.3289 23.5736 31.3289 25.569C31.3289 27.5644 29.7107 29.1807 27.7128 29.1807C25.715 29.1807 24.0967 27.5625 24.0967 25.569C24.0948 23.5736 25.715 21.9554 27.7128 21.9554Z" fill="#F26B35"/>
<path d="M27.7128 0.000343642C29.7107 0.000343554 31.3289 1.61667 31.3289 3.61394C31.3289 5.60933 29.7107 7.22559 27.7128 7.22559C25.715 7.22559 24.0967 5.60933 24.0967 3.61394C24.0948 1.61667 25.715 0.000343729 27.7128 0.000343642Z" fill="#F26B35"/>
<path d="M51.8075 109.776C53.8053 109.776 55.4236 111.393 55.4236 113.388C55.4236 115.383 53.8053 117 51.8075 117C49.8096 117 48.1895 115.381 48.1895 113.388C48.1895 111.394 49.8115 109.776 51.8075 109.776Z" fill="#F26B35"/>
<path d="M51.8075 87.8207C53.8053 87.8207 55.4236 89.4389 55.4236 91.4343C55.4236 93.4296 53.8053 95.0459 51.8075 95.0459C49.8096 95.0459 48.1895 93.4296 48.1895 91.4343C48.1895 89.4389 49.8115 87.8207 51.8075 87.8207Z" fill="#F26B35"/>
<path d="M51.8084 65.8666C53.8063 65.8666 55.4246 67.4828 55.4246 69.4782C55.4246 71.4736 53.8063 73.0898 51.8084 73.0898C49.8106 73.0898 48.1904 71.4736 48.1904 69.4782C48.1904 67.4828 49.8125 65.8666 51.8084 65.8666Z" fill="#F26B35"/>
<path d="M51.8084 43.9115C53.8063 43.9115 55.4246 45.5277 55.4246 47.5231C55.4246 49.5185 53.8063 51.1367 51.8084 51.1367C49.8106 51.1367 48.1904 49.5185 48.1904 47.5231C48.1904 45.5277 49.8125 43.9115 51.8084 43.9115Z" fill="#F26B35"/>
<path d="M51.8075 21.9554C53.8053 21.9554 55.4236 23.5736 55.4236 25.569C55.4236 27.5644 53.8053 29.1807 51.8075 29.1807C49.8096 29.1807 48.1895 27.5625 48.1895 25.569C48.1895 23.5736 49.8115 21.9554 51.8075 21.9554Z" fill="#F26B35"/>
<path d="M51.8075 0.000343641C53.8053 0.000343554 55.4236 1.61667 55.4236 3.61394C55.4236 5.60933 53.8053 7.22559 51.8075 7.22559C49.8096 7.22559 48.1895 5.60933 48.1895 3.61394C48.1895 1.61667 49.8115 0.000343729 51.8075 0.000343641Z" fill="#F26B35"/>
<path d="M75.9033 109.776C77.903 109.776 79.5194 111.393 79.5194 113.388C79.5194 115.383 77.903 117 75.9033 117C73.9073 117 72.2871 115.381 72.2871 113.388C72.2871 111.394 73.9073 109.776 75.9033 109.776Z" fill="#F26B35"/>
<path d="M75.9033 87.8207C77.903 87.8207 79.5194 89.4389 79.5194 91.4343C79.5194 93.4296 77.903 95.0459 75.9033 95.0459C73.9073 95.0459 72.2871 93.4296 72.2871 91.4343C72.2871 89.4389 73.9073 87.8207 75.9033 87.8207Z" fill="#F26B35"/>
<path d="M75.9033 65.8666C77.903 65.8666 79.5194 67.4828 79.5194 69.4782C79.5194 71.4736 77.903 73.0898 75.9033 73.0898C73.9073 73.0898 72.2871 71.4736 72.2871 69.4782C72.2871 67.4828 73.9073 65.8666 75.9033 65.8666Z" fill="#F26B35"/>
<path d="M75.9033 43.9115C77.903 43.9115 79.5194 45.5277 79.5194 47.5231C79.5194 49.5185 77.903 51.1367 75.9033 51.1367C73.9073 51.1367 72.2871 49.5185 72.2871 47.5231C72.2871 45.5277 73.9073 43.9115 75.9033 43.9115Z" fill="#F26B35"/>
<path d="M75.9033 21.9554C77.903 21.9554 79.5194 23.5736 79.5194 25.569C79.5194 27.5644 77.903 29.1807 75.9033 29.1807C73.9073 29.1807 72.2871 27.5625 72.2871 25.569C72.2871 23.5736 73.9073 21.9554 75.9033 21.9554Z" fill="#F26B35"/>
<path d="M75.9033 0.000343642C77.903 0.000343554 79.5194 1.61667 79.5194 3.61394C79.5194 5.60933 77.903 7.22559 75.9033 7.22559C73.9073 7.22559 72.2871 5.60933 72.2871 3.61394C72.2871 1.61667 73.9073 0.000343729 75.9033 0.000343642Z" fill="#F26B35"/>
<path d="M99.9999 109.776C101.998 109.776 103.616 111.393 103.616 113.388C103.616 115.383 101.998 117 99.9999 117C98.002 117 96.3838 115.381 96.3838 113.388C96.3838 111.394 98.002 109.776 99.9999 109.776Z" fill="#F26B35"/>
<path d="M99.9999 87.8207C101.998 87.8207 103.616 89.4389 103.616 91.4343C103.616 93.4296 101.998 95.0459 99.9999 95.0459C98.002 95.0459 96.3838 93.4296 96.3838 91.4343C96.3838 89.4389 98.002 87.8207 99.9999 87.8207Z" fill="#F26B35"/>
<path d="M99.9999 65.8666C101.998 65.8666 103.616 67.4828 103.616 69.4782C103.616 71.4736 101.998 73.0898 99.9999 73.0898C98.002 73.0898 96.3838 71.4736 96.3838 69.4782C96.3838 67.4828 98.002 65.8666 99.9999 65.8666Z" fill="#F26B35"/>
<path d="M99.9999 43.9115C101.998 43.9115 103.616 45.5277 103.616 47.5231C103.616 49.5185 101.998 51.1367 99.9999 51.1367C98.002 51.1367 96.3838 49.5185 96.3838 47.5231C96.3838 45.5277 98.002 43.9115 99.9999 43.9115Z" fill="#F26B35"/>
<path d="M99.9999 21.9554C101.998 21.9554 103.616 23.5736 103.616 25.569C103.616 27.5644 101.998 29.1807 99.9999 29.1807C98.002 29.1807 96.3838 27.5625 96.3838 25.569C96.3838 23.5736 98.002 21.9554 99.9999 21.9554Z" fill="#F26B35"/>
<path d="M99.9999 0.000343642C101.998 0.000343554 103.616 1.61667 103.616 3.61394C103.616 5.60933 101.998 7.22559 99.9999 7.22559C98.002 7.22559 96.3838 5.60933 96.3838 3.61394C96.3838 1.61667 98.002 0.000343729 99.9999 0.000343642Z" fill="#F26B35"/>
<path d="M124.095 109.776C126.093 109.776 127.711 111.393 127.711 113.388C127.711 115.383 126.093 117 124.095 117C122.097 117 120.479 115.381 120.479 113.388C120.48 111.394 122.099 109.776 124.095 109.776Z" fill="#F26B35"/>
<path d="M124.095 87.8207C126.093 87.8207 127.711 89.4389 127.711 91.4343C127.711 93.4296 126.093 95.0459 124.095 95.0459C122.097 95.0459 120.479 93.4296 120.479 91.4343C120.48 89.4389 122.099 87.8207 124.095 87.8207Z" fill="#F26B35"/>
<path d="M124.095 65.8666C126.093 65.8666 127.711 67.4828 127.711 69.4782C127.711 71.4736 126.093 73.0898 124.095 73.0898C122.097 73.0898 120.479 71.4736 120.479 69.4782C120.48 67.4828 122.099 65.8666 124.095 65.8666Z" fill="#F26B35"/>
<path d="M124.095 43.9115C126.093 43.9115 127.711 45.5277 127.711 47.5231C127.711 49.5185 126.093 51.1367 124.095 51.1367C122.097 51.1367 120.479 49.5185 120.479 47.5231C120.48 45.5277 122.099 43.9115 124.095 43.9115Z" fill="#F26B35"/>
<path d="M124.095 21.9554C126.093 21.9554 127.711 23.5736 127.711 25.569C127.711 27.5644 126.093 29.1807 124.095 29.1807C122.097 29.1807 120.479 27.5625 120.479 25.569C120.48 23.5736 122.099 21.9554 124.095 21.9554Z" fill="#F26B35"/>
<path d="M124.095 0.000343642C126.093 0.000343554 127.711 1.61667 127.711 3.61394C127.711 5.60933 126.093 7.22559 124.095 7.22559C122.097 7.22559 120.479 5.60933 120.479 3.61394C120.48 1.61667 122.099 0.000343729 124.095 0.000343642Z" fill="#F26B35"/>
<path d="M148.192 109.776C150.19 109.776 151.808 111.393 151.808 113.388C151.808 115.383 150.19 117 148.192 117C146.194 117 144.576 115.381 144.576 113.388C144.576 111.394 146.196 109.776 148.192 109.776Z" fill="#F26B35"/>
<path d="M148.192 87.8207C150.19 87.8207 151.808 89.4389 151.808 91.4343C151.808 93.4296 150.19 95.0459 148.192 95.0459C146.194 95.0459 144.576 93.4296 144.576 91.4343C144.576 89.4389 146.196 87.8207 148.192 87.8207Z" fill="#F26B35"/>
<path d="M148.192 65.8666C150.19 65.8666 151.808 67.4828 151.808 69.4782C151.808 71.4736 150.19 73.0898 148.192 73.0898C146.194 73.0898 144.576 71.4736 144.576 69.4782C144.576 67.4828 146.196 65.8666 148.192 65.8666Z" fill="#F26B35"/>
<path d="M148.192 43.9115C150.19 43.9115 151.808 45.5277 151.808 47.5231C151.808 49.5185 150.19 51.1367 148.192 51.1367C146.194 51.1367 144.576 49.5185 144.576 47.5231C144.576 45.5277 146.196 43.9115 148.192 43.9115Z" fill="#F26B35"/>
<path d="M148.192 21.9554C150.19 21.9554 151.808 23.5736 151.808 25.569C151.808 27.5644 150.19 29.1807 148.192 29.1807C146.194 29.1807 144.576 27.5625 144.576 25.569C144.576 23.5736 146.196 21.9554 148.192 21.9554Z" fill="#F26B35"/>
<path d="M148.192 0.000343642C150.19 0.000343554 151.808 1.61667 151.808 3.61394C151.808 5.60933 150.19 7.22559 148.192 7.22559C146.194 7.22559 144.576 5.60933 144.576 3.61394C144.576 1.61667 146.196 0.000343729 148.192 0.000343642Z" fill="#F26B35"/>
<path d="M172.287 109.776C174.287 109.776 175.903 111.393 175.903 113.388C175.903 115.383 174.285 117 172.287 117C170.291 117 168.671 115.381 168.671 113.388C168.671 111.394 170.291 109.776 172.287 109.776Z" fill="#F26B35"/>
<path d="M172.287 87.8207C174.287 87.8207 175.903 89.4389 175.903 91.4343C175.903 93.4296 174.285 95.0459 172.287 95.0459C170.291 95.0459 168.671 93.4296 168.671 91.4343C168.671 89.4389 170.291 87.8207 172.287 87.8207Z" fill="#F26B35"/>
<path d="M172.287 65.8666C174.287 65.8666 175.903 67.4828 175.903 69.4782C175.903 71.4736 174.285 73.0898 172.287 73.0898C170.291 73.0898 168.671 71.4736 168.671 69.4782C168.671 67.4828 170.291 65.8666 172.287 65.8666Z" fill="#F26B35"/>
<path d="M172.287 43.9115C174.287 43.9115 175.903 45.5277 175.903 47.5231C175.903 49.5185 174.285 51.1367 172.287 51.1367C170.291 51.1367 168.671 49.5185 168.671 47.5231C168.671 45.5277 170.291 43.9115 172.287 43.9115Z" fill="#F26B35"/>
<path d="M172.287 21.9554C174.287 21.9554 175.903 23.5736 175.903 25.569C175.903 27.5644 174.285 29.1807 172.287 29.1807C170.291 29.1807 168.671 27.5625 168.671 25.569C168.671 23.5736 170.291 21.9554 172.287 21.9554Z" fill="#F26B35"/>
<path d="M172.287 0.000343642C174.287 0.000343554 175.903 1.61667 175.903 3.61394C175.903 5.60933 174.285 7.22559 172.287 7.22559C170.291 7.22559 168.671 5.60933 168.671 3.61394C168.671 1.61667 170.291 0.000343729 172.287 0.000343642Z" fill="#F26B35"/>
<path d="M196.384 109.776C198.382 109.776 200 111.393 200 113.388C200 115.383 198.382 117 196.384 117C194.388 117 192.768 115.381 192.768 113.388C192.768 111.394 194.388 109.776 196.384 109.776Z" fill="#F26B35"/>
<path d="M196.384 87.8207C198.382 87.8207 200 89.4389 200 91.4343C200 93.4296 198.382 95.0459 196.384 95.0459C194.388 95.0459 192.768 93.4296 192.768 91.4343C192.768 89.4389 194.388 87.8207 196.384 87.8207Z" fill="#F26B35"/>
<path d="M196.384 65.8666C198.382 65.8666 200 67.4828 200 69.4782C200 71.4736 198.382 73.0898 196.384 73.0898C194.388 73.0898 192.768 71.4736 192.768 69.4782C192.768 67.4828 194.388 65.8666 196.384 65.8666Z" fill="#F26B35"/>
<path d="M196.384 43.9115C198.382 43.9115 200 45.5277 200 47.5231C200 49.5185 198.382 51.1367 196.384 51.1367C194.388 51.1367 192.768 49.5185 192.768 47.5231C192.768 45.5277 194.388 43.9115 196.384 43.9115Z" fill="#F26B35"/>
<path d="M196.384 21.9554C198.382 21.9554 200 23.5736 200 25.569C200 27.5644 198.382 29.1807 196.384 29.1807C194.388 29.1807 192.768 27.5625 192.768 25.569C192.768 23.5736 194.388 21.9554 196.384 21.9554Z" fill="#F26B35"/>
<path d="M196.384 0.000343642C198.382 0.000343554 200 1.61667 200 3.61394C200 5.60933 198.382 7.22559 196.384 7.22559C194.388 7.22559 192.768 5.60933 192.768 3.61394C192.768 1.61667 194.388 0.000343729 196.384 0.000343642Z" fill="#F26B35"/>
</svg>
