<svg width="160" height="60" viewBox="0 0 160 60" fill="none" xmlns="http://www.w3.org/2000/svg">
<path d="M37.9961 9.39384L44.1425 2.85037L60.3698 17.9034L79.6741 0L98.9851 17.9043L118.289 0.000937041L137.611 17.9062L153.858 2.84848L160 9.39478L137.61 30.1457L118.292 12.2423L98.987 30.1466L79.6751 12.2432L60.3698 30.1476L37.9961 9.39384Z" fill="#F26B35"/>
<path d="M0 39.2454L6.14547 32.701L22.3728 47.7559L41.6771 29.8525L60.9871 47.7559L80.2933 29.8525L99.6128 47.7578L115.86 32.7001L122.003 39.2473L99.6128 59.9982L80.2952 42.0948L60.989 59.9982L41.678 42.0958L22.3728 60.0001L0 39.2454Z" fill="#2A567D"/>
</svg>
