<svg width="36" height="36" viewBox="0 0 36 36" fill="none" xmlns="http://www.w3.org/2000/svg">
<g clip-path="url(#clip0_342_40669)">
<path d="M3.06598 0C2.82982 0 2.62467 0.159923 2.56705 0.388846L0.154362 9.974C-0.662177 13.2182 1.86844 16.456 5.20482 16.455C8.07652 16.455 10.4128 14.1182 10.4128 11.2458V0L3.06598 0Z" fill="#2A567D"/>
<path d="M13.0898 0V11.4988C13.0898 14.2316 15.314 16.455 18.0479 16.455C20.7818 16.455 23.0059 14.2316 23.0059 11.4988V0L13.0898 0Z" fill="#F26B35"/>
<path d="M25.6797 0V11.2919C25.6797 14.1388 27.9954 16.4551 30.8417 16.4551C34.1458 16.4551 36.6563 13.2444 35.8475 10.0313L33.4205 0.388692C33.3628 0.159923 33.1577 0 32.9215 0L25.6797 0Z" fill="#2A567D"/>
<path d="M14.3867 26.0264H21.6073V36H14.3867V26.0264Z" fill="#2A567D"/>
<path d="M30.8401 19.1292C28.1682 19.1292 25.8044 17.7854 24.389 15.7378C23.0181 17.7815 20.686 19.1292 18.0448 19.1292C15.3968 19.1292 13.0594 17.7745 11.6898 15.7217C10.2658 17.7792 7.88952 19.1292 5.20345 19.1292C4.09868 19.1292 3.02491 18.9019 2.03906 18.4702V35.4857C2.03906 35.7692 2.26991 36 2.55352 36H11.7131V24.6891C11.7131 23.9507 12.312 23.352 13.0508 23.352H22.9467C23.6854 23.352 24.2843 23.9507 24.2843 24.6891V35.9999H33.4431C33.7268 35.9999 33.9576 35.7692 33.9576 35.4856V18.4861C32.9851 18.9075 31.9274 19.1292 30.8401 19.1292Z" fill="#F26B35"/>
</g>
<defs>
<clipPath id="clip0_342_40669">
<rect width="36" height="36" fill="white"/>
</clipPath>
</defs>
</svg>
