<svg width="36" height="36" viewBox="0 0 36 36" fill="none" xmlns="http://www.w3.org/2000/svg">
<path d="M17.1663 18.4135C22.2525 18.4135 26.3756 14.2915 26.3756 9.20673C26.3756 4.12199 22.2525 0 17.1663 0C12.0802 0 7.95703 4.12199 7.95703 9.20673C7.95703 14.2915 12.0802 18.4135 17.1663 18.4135Z" fill="#F26B35"/>
<path fill-rule="evenodd" clip-rule="evenodd" d="M19.5488 34.3361C17.8091 32.468 16.7442 29.9638 16.7442 27.2118C16.7442 24.3945 17.861 21.8351 19.6761 19.9535C18.8556 19.8899 18.0167 19.8564 17.1628 19.8564C11.6004 19.8564 6.67591 21.2475 3.61842 23.3316C1.28595 24.9218 0 26.9423 0 29.0632V31.4904C0 32.2454 0.299721 32.9702 0.833861 33.5025C1.368 34.0365 2.09135 34.3361 2.84651 34.3361H19.5488Z" fill="#F26B35"/>
<path fill-rule="evenodd" clip-rule="evenodd" d="M27.2087 18.4236C22.3562 18.4236 18.418 22.3607 18.418 27.2118C18.418 32.0629 22.3562 36.0001 27.2087 36.0001C32.0611 36.0001 35.9994 32.0629 35.9994 27.2118C35.9994 22.3607 32.0611 18.4236 27.2087 18.4236ZM25.9529 27.2118V31.3967C25.9529 32.0897 26.5155 32.6522 27.2087 32.6522C27.9019 32.6522 28.4645 32.0897 28.4645 31.3967V27.2118C28.4645 26.5188 27.9019 25.9564 27.2087 25.9564C26.5155 25.9564 25.9529 26.5188 25.9529 27.2118ZM27.2087 21.7715C28.1329 21.7715 28.8831 22.5214 28.8831 23.4454C28.8831 24.3695 28.1329 25.1194 27.2087 25.1194C26.2844 25.1194 25.5342 24.3695 25.5342 23.4454C25.5342 22.5214 26.2844 21.7715 27.2087 21.7715Z" fill="#2A567D"/>
</svg>
