<svg width="36" height="36" viewBox="0 0 36 36" fill="none" xmlns="http://www.w3.org/2000/svg">
<g clip-path="url(#clip0_1621_7915)">
<path d="M20.1213 5.29419H1.0625V24.353H13.7684V14.8236H20.1213V5.29419ZM11.6507 20.1177H6.35662C4.60511 20.1177 3.18015 18.6928 3.18015 16.9412C3.18015 15.4784 4.17438 14.2441 5.52241 13.8767C5.37805 13.5141 5.29779 13.1193 5.29779 12.706C5.29779 10.9545 6.72276 9.52948 8.47427 9.52948H10.5919V11.6471H8.47427C7.89036 11.6471 7.41544 12.1221 7.41544 12.706C7.41544 13.2898 7.89036 13.7648 8.47427 13.7648H10.5919V15.8824C10.0795 15.8824 6.87241 15.8824 6.35662 15.8824C5.77271 15.8824 5.29779 16.3574 5.29779 16.9412C5.29779 17.5251 5.77271 18.0001 6.35662 18.0001H11.6507V20.1177Z" fill="#F26B35"/>
<path d="M25.4145 23.2942C24.2469 23.2942 23.2969 24.2442 23.2969 25.4118V26.4707H27.5322V25.4118C27.5322 24.2442 26.5822 23.2942 25.4145 23.2942Z" fill="#2A567D"/>
<path d="M15.8828 16.9412V36H34.9416V16.9412H15.8828ZM29.6475 31.7647H27.5299V28.5882H23.2946V31.7647H21.1769V25.4118C21.1769 23.0764 23.0769 21.1765 25.4122 21.1765C27.7476 21.1765 29.6475 23.0764 29.6475 25.4118V31.7647Z" fill="#2A567D"/>
<path d="M22.2362 14.8235H32.8244V0H13.7656V3.17647H22.2362V14.8235ZM24.3539 2.11765H30.7068V4.23529H24.3539V2.11765ZM24.3539 6.35294H30.7068V8.47059H24.3539V6.35294ZM24.3539 10.5882H30.7068V12.7059H24.3539V10.5882Z" fill="#F26B35"/>
</g>
<defs>
<clipPath id="clip0_1621_7915">
<rect width="36" height="36" fill="white"/>
</clipPath>
</defs>
</svg>
