<svg width="36" height="36" viewBox="0 0 36 36" fill="none" xmlns="http://www.w3.org/2000/svg">
<path d="M14.1328 12.6921H10.2658C10.1831 9.20497 11.5864 6.1217 13.8476 3.96008L11.1705 3.16C10.9955 3.10783 10.8067 3.12547 10.6441 3.2102L4.29012 6.5229V6.01307C4.29012 5.43067 3.81797 4.95852 3.23557 4.95852H1.05455C0.472148 4.95852 0 5.43067 0 6.01307V19.7225C0 20.3049 0.472148 20.7771 1.05455 20.7771H3.2355C3.8179 20.7771 4.29005 20.3049 4.29005 19.7225V18.3164H14.1328C15.6942 18.3164 16.945 17.0349 16.945 15.5042C16.945 13.9536 15.6834 12.6921 14.1328 12.6921Z" fill="#F26B35"/>
<path d="M24.1026 28.3677L22.9201 29.5502V24.6404C22.9201 24.058 22.448 23.5858 21.8656 23.5858C21.2832 23.5858 20.811 24.058 20.811 24.6404V29.5502L19.6284 28.3676C19.2166 27.9558 18.5489 27.9558 18.137 28.3676C17.7252 28.7794 17.7252 29.4472 18.137 29.859L21.1198 32.8418C21.5312 33.2534 22.1995 33.2536 22.6112 32.8418L25.594 29.859C26.0059 29.4472 26.0059 28.7794 25.594 28.3676C25.1822 27.9559 24.5145 27.9559 24.1026 28.3677Z" fill="#2A567D"/>
<path d="M35.2208 23.7911C34.6586 23.6409 34.08 23.9742 33.9292 24.5368L33.4963 26.1522L31.0414 21.9C30.7501 21.3956 30.1051 21.2228 29.6008 21.514C29.0964 21.8052 28.9235 22.4502 29.2148 22.9546L31.6697 27.2067L30.0543 26.7738C29.4926 26.6236 28.9136 26.9569 28.7627 27.5196C28.6121 28.0821 28.9458 28.6604 29.5085 28.8111L33.5831 29.9029C34.1454 30.0533 34.7238 29.7203 34.8747 29.1573L35.9665 25.0827C36.1172 24.5201 35.7834 23.9419 35.2208 23.7911Z" fill="#2A567D"/>
<path d="M13.6826 26.7738L12.0673 27.2067L14.5222 22.9546C14.8134 22.4502 14.6406 21.8052 14.1362 21.514C13.6318 21.2227 12.9868 21.3957 12.6956 21.9001L10.2407 26.1521L9.80788 24.5367C9.65713 23.9742 9.07909 23.6406 8.51624 23.791C7.95367 23.9418 7.61982 24.52 7.77057 25.0827L8.86239 29.1572C9.01279 29.7185 9.58963 30.0538 10.154 29.9029L14.2286 28.8111C14.7911 28.6603 15.125 28.082 14.9742 27.5194C14.8235 26.9571 14.2452 26.6234 13.6826 26.7738Z" fill="#2A567D"/>
<path d="M21.8664 2.84937C17.2334 2.84937 13.3657 6.18633 12.5391 10.5829H14.1329C16.8465 10.5829 19.0543 12.7906 19.0543 15.5043C19.0543 17.4775 17.8864 19.1821 16.2061 19.9661C17.8199 21.1704 19.785 21.8318 21.8665 21.8318C27.0999 21.8318 31.3577 17.5741 31.3577 12.3406C31.3577 7.10707 27.0999 2.84937 21.8664 2.84937ZM22.88 16.4233V16.5142C22.88 17.0966 22.4078 17.5687 21.8254 17.5687C21.243 17.5687 20.7709 17.0966 20.7709 16.5142V16.5057C20.3059 16.3939 19.8746 16.2103 19.5321 15.9863C19.0447 15.6673 18.9081 15.0138 19.227 14.5264C19.5459 14.039 20.1995 13.9024 20.6868 14.2213C21.1031 14.4937 21.8149 14.6017 22.1513 14.4431C22.3718 14.3393 22.5425 14.1181 22.5663 13.9052C22.6171 13.4516 21.8927 13.1945 21.4701 13.0277C20.8146 12.7688 19.9989 12.4467 19.5247 11.5904C18.8499 10.3721 19.4379 8.76469 20.771 8.21154V8.16703C20.771 7.58463 21.2431 7.11248 21.8255 7.11248C22.3994 7.11248 22.8652 7.57113 22.8788 8.14172C23.2527 8.25963 23.5972 8.44715 23.8734 8.70183C24.3015 9.09677 24.3284 9.76397 23.9335 10.192C23.5386 10.6202 22.8714 10.6471 22.4434 10.2521C22.2783 10.0999 21.7494 10.0366 21.5282 10.1854C21.3828 10.2832 21.3195 10.4778 21.3698 10.5686C21.5869 10.9605 22.7421 11.1002 23.6129 11.7787C25.3977 13.1697 24.7902 15.6846 22.88 16.4233Z" fill="#F26B35"/>
</svg>
