<svg width="36" height="36" viewBox="0 0 36 36" fill="none" xmlns="http://www.w3.org/2000/svg">
<path d="M32.6864 18.1526C34.6321 16.192 35.7252 13.5328 35.7251 10.76C35.725 7.9873 34.6319 5.32816 32.6861 3.36758C30.7402 1.40701 28.1012 0.305601 25.3495 0.305664C22.5977 0.305727 19.9587 1.40725 18.013 3.36792L17.0347 4.35343C16.9062 4.48286 16.8043 4.63652 16.7347 4.80565C16.6652 4.97478 16.6294 5.15605 16.6294 5.33912C16.6293 5.52219 16.6651 5.70347 16.7346 5.87261C16.8041 6.04175 16.906 6.19543 17.0345 6.32489L18.9905 8.29579C19.2499 8.55716 19.6017 8.70401 19.9686 8.70405C20.3354 8.70408 20.6873 8.55729 20.9467 8.29596L21.9254 7.31015C22.8335 6.39524 24.0651 5.88129 25.3493 5.88134C26.6335 5.88139 27.865 6.39545 28.7731 7.31043C29.6811 8.22541 30.1913 9.46638 30.1913 10.7604C30.1914 12.0543 29.6813 13.2954 28.7734 14.2104L23.8816 19.1381C23.0245 19.9921 21.8837 20.4957 20.6797 20.5515C19.4756 20.6073 18.2938 20.2114 17.3626 19.4403L16.3009 18.5469C16.1615 18.4296 16.0005 18.341 15.827 18.2864C15.6536 18.2317 15.4712 18.212 15.2902 18.2284C15.1092 18.2448 14.9332 18.297 14.7723 18.382C14.6113 18.4669 14.4685 18.583 14.3521 18.7236L12.5791 20.864C12.344 21.1479 12.2305 21.5142 12.2634 21.8824C12.2963 22.2506 12.4731 22.5906 12.7548 22.8275L13.8164 23.7202C15.7998 25.403 18.3394 26.2715 20.9296 26.153C23.5198 26.0344 25.9708 24.9374 27.7946 23.0804L32.6864 18.1526Z" fill="#2A567D"/>
<path d="M17.0354 28.0099C16.776 27.7486 16.4242 27.6017 16.0573 27.6017C15.6905 27.6016 15.3386 27.7484 15.0792 28.0098L14.1005 28.9956C13.1924 29.9105 11.9608 30.4244 10.6766 30.4244C9.39242 30.4243 8.16086 29.9103 7.25281 28.9953C6.34476 28.0803 5.8346 26.8393 5.83454 25.5454C5.83449 24.2514 6.34455 23.0104 7.25253 22.0953L12.1443 17.1676C13.001 16.313 14.1419 15.809 15.3461 15.7532C16.5504 15.6973 17.7324 16.0936 18.6633 16.8654L19.7249 17.7588C19.8644 17.8762 20.0254 17.9647 20.1989 18.0194C20.3723 18.074 20.5547 18.0937 20.7357 18.0773C20.9166 18.0609 21.0926 18.0087 21.2536 17.9238C21.4146 17.8388 21.5573 17.7227 21.6738 17.5822L23.4468 15.4417C23.6818 15.1578 23.7954 14.7915 23.7625 14.4233C23.7295 14.0551 23.5527 13.7151 23.2711 13.4782L22.2095 12.5855C20.2261 10.9026 17.6865 10.034 15.0962 10.1526C12.506 10.2711 10.055 11.3682 8.23117 13.2253L3.3395 18.1531C1.39378 20.1137 0.300719 22.7729 0.300781 25.5457C0.300844 28.3184 1.39402 30.9776 3.33983 32.9381C5.28564 34.8987 7.92469 36.0001 10.6764 36.0001C13.4281 36 16.0671 34.8985 18.0129 32.9378L18.9912 31.9523C19.1197 31.8229 19.2216 31.6692 19.2912 31.5001C19.3607 31.3309 19.3965 31.1497 19.3965 30.9666C19.3965 30.7835 19.3608 30.6022 19.2913 30.4331C19.2217 30.264 19.1198 30.1103 18.9914 29.9808L17.0354 28.0099Z" fill="#F26B35"/>
<path d="M0.826471 8.5853L4.33421 10.1487C4.50035 10.2227 4.67934 10.263 4.86094 10.2673C5.04255 10.2716 5.22322 10.2399 5.39263 10.1738C5.56205 10.1078 5.7169 10.0088 5.84834 9.88241C5.97977 9.75606 6.08523 9.60486 6.15867 9.43745C6.23212 9.27004 6.27213 9.08969 6.2764 8.9067C6.28068 8.72371 6.24915 8.54166 6.1836 8.37095C6.11805 8.20024 6.01978 8.04421 5.89439 7.91177C5.769 7.77933 5.61895 7.67307 5.45281 7.59906L1.94505 6.03565C1.77884 5.96122 1.5997 5.92055 1.41787 5.91596C1.23605 5.91138 1.05511 5.94297 0.885416 6.00893C0.715721 6.0749 0.560603 6.17393 0.428939 6.30037C0.297275 6.42682 0.19165 6.57818 0.11811 6.7458C0.0445703 6.91343 0.00455945 7.09402 0.000367469 7.27724C-0.00382451 7.46046 0.0278846 7.64272 0.0936801 7.81358C0.159476 7.98444 0.258066 8.14055 0.383808 8.27297C0.509549 8.40539 0.659973 8.51153 0.826471 8.5853Z" fill="#F26B35"/>
<path d="M7.54187 5.49451C7.6902 5.83261 7.96576 6.09749 8.30791 6.23088C8.65007 6.36427 9.03079 6.35523 9.36633 6.20576C9.70188 6.0563 9.96475 5.77864 10.0971 5.43387C10.2295 5.08911 10.2205 4.70548 10.0722 4.36737L8.52064 0.83278C8.44742 0.665012 8.34209 0.513439 8.21068 0.386738C8.07926 0.260036 7.92433 0.160693 7.75477 0.0943953C7.5852 0.0280974 7.40432 -0.00385371 7.22249 0.000370275C7.04065 0.00459426 6.86143 0.0449106 6.69508 0.119012C6.52873 0.193113 6.37851 0.299544 6.25303 0.432214C6.12754 0.564883 6.02926 0.721186 5.96379 0.892176C5.89833 1.06317 5.86698 1.24549 5.87153 1.4287C5.87608 1.61191 5.91644 1.79243 5.9903 1.9599L7.54187 5.49451Z" fill="#F26B35"/>
<path d="M35.1783 27.2648L31.6706 25.7014C31.3352 25.5528 30.9549 25.5443 30.6133 25.6779C30.2718 25.8114 29.9967 26.0761 29.8486 26.4138C29.7004 26.7514 29.6913 27.1345 29.8232 27.479C29.955 27.8235 30.2171 28.1011 30.552 28.2511L34.0597 29.8145C34.3952 29.964 34.7759 29.973 35.1181 29.8396C35.4602 29.7062 35.7358 29.4414 35.8841 29.1033C36.0325 28.7652 36.0414 28.3815 35.9091 28.0368C35.7767 27.692 35.5139 27.4143 35.1783 27.2648Z" fill="#2A567D"/>
<path d="M28.4638 30.3554C28.315 30.018 28.0394 29.7539 27.6975 29.621C27.3557 29.4881 26.9755 29.4973 26.6404 29.6466C26.3053 29.7959 26.0426 30.073 25.9101 30.4172C25.7775 30.7614 25.7859 31.1445 25.9334 31.4825L27.485 35.017C27.5584 35.1844 27.6639 35.3356 27.7953 35.462C27.9268 35.5883 28.0816 35.6873 28.251 35.7534C28.4204 35.8194 28.6011 35.8512 28.7827 35.8469C28.9643 35.8426 29.1433 35.8023 29.3095 35.7283C29.4756 35.6543 29.6257 35.548 29.751 35.4156C29.8764 35.2831 29.9747 35.1271 30.0403 34.9564C30.1058 34.7857 30.1373 34.6036 30.1331 34.4206C30.1288 34.2376 30.0888 34.0573 30.0153 33.8899L28.4638 30.3554Z" fill="#2A567D"/>
</svg>
