<svg width="20" height="20" viewBox="0 0 20 20" fill="none" xmlns="http://www.w3.org/2000/svg">
<path d="M7.73283 9.29978C7.33108 8.89978 6.72845 8.89978 6.3267 9.29978C5.92495 9.69978 5.92495 10.2998 6.3267 10.6998L9.33983 13.6998C9.54071 13.8998 9.74158 13.9998 10.0429 13.9998C10.3442 13.9998 10.5451 13.8998 10.746 13.6998L17.7766 5.69978C18.0779 5.19978 18.0779 4.59978 17.5757 4.29978C17.174 3.99978 16.5713 3.99978 16.27 4.39978L10.0429 11.4998L7.73283 9.29978Z" fill="#2A567D"/>
<path d="M19.0831 9C18.4805 9 18.0788 9.4 18.0788 10C18.0788 14.4 14.463 18 10.0438 18C5.6245 18 2.00875 14.4 2.00875 10C2.00875 7.9 2.81225 5.9 4.31882 4.4C5.82538 2.8 7.83413 2 10.0438 2C10.6464 2 11.3494 2.1 11.9521 2.2C12.4543 2.4 13.0569 2.1 13.2578 1.5C13.4586 0.9 13.0569 0.5 12.5547 0.3H12.4543C11.6508 0.0999999 10.8473 0 10.0438 0C4.51969 0 0 4.5 0 10.1C0 12.7 1.10481 15.3 2.91269 17.1C4.821 19 7.33194 20 9.94332 20C15.4674 20 19.9871 15.5 19.9871 10C20.0875 9.4 19.5853 9 19.0831 9Z" fill="#2A567D"/>
</svg>
