<svg width="162" height="130" viewBox="0 0 162 130" fill="none" xmlns="http://www.w3.org/2000/svg">
<path fill-rule="evenodd" clip-rule="evenodd" d="M47.1177 79.7309L52.6362 80.6416L52.0646 79.1775C51.3547 78.3228 49.5477 77.766 46.6389 77.5153C46.6991 77.9426 46.8563 78.6798 47.1177 79.7309ZM113.577 42.5513C112.8 44.0226 112.024 45.5845 111.164 47.0095C111.488 48.7977 111.609 50.8031 111.516 53.0287C111.726 52.9453 111.927 52.8549 112.121 52.7617C113.637 52.031 114.644 51.0532 115.163 49.9023C115.681 48.758 115.731 47.4163 115.334 45.955C115.177 45.378 114.953 44.7871 114.661 44.1901C114.387 43.6224 114.021 43.0683 113.577 42.5513ZM110.668 44.9505C111.391 43.8894 112.107 42.8149 112.754 41.711C112.047 41.0766 111.211 40.526 110.267 40.0994C109.317 39.6685 108.258 39.3715 107.118 39.2447C108.754 40.6726 109.938 42.5749 110.668 44.9505ZM111.267 55.5104C111.214 56.3179 111.127 57.1291 110.99 57.9268C112.78 58.0764 114.253 57.7494 115.407 56.9553C114.51 56.6121 113.128 56.1279 111.267 55.5104ZM63.7833 9.14904C63.8804 5.86527 64.4933 1.44497 67.7532 0.263461C69.1045 -0.227285 70.5173 0.0134821 71.7889 0.607436L71.919 0.670825L72.0432 0.747022C74.4734 2.28531 73.5718 6.04265 70.8489 6.03906C70.4805 6.03906 70.1189 5.95583 69.8176 5.81546C69.3889 7.08019 69.3817 10.02 69.4032 10.8775L69.409 11.2343L69.5203 11.4843C70.1261 12.8459 70.0318 15.315 69.9746 16.7863L69.8702 19.4627C76.183 23.67 82.6887 27.8005 89.3343 31.3876C91.787 32.715 94.3171 33.9963 96.9014 35.0574C98.427 35.6848 100.224 36.3521 101.864 36.6021L102.215 36.6555L102.53 36.8129C103.045 37.063 103.53 37.3534 103.988 37.6704C106.595 37.28 108.971 37.6902 110.953 38.5841C113.37 39.6786 115.207 41.4939 116.164 43.4694C116.501 44.1695 116.762 44.8575 116.942 45.5211C117.445 47.3563 117.365 49.0776 116.682 50.5859C116.177 51.704 115.344 52.6847 114.178 53.4887C115.357 53.8591 116.424 54.2229 117.378 54.5832C117.76 53.7957 118.054 52.8713 118.251 51.8108C118.57 49.0042 119.674 47.5165 121.565 47.3392C128.605 47.3698 132.381 48.6944 132.889 51.3131C133.508 51.0061 134.241 50.9199 134.948 50.8531C135.881 50.7663 136.838 50.7327 137.775 50.7263C138.705 50.7199 139.66 50.7363 140.587 50.8197C141.708 50.9165 142.905 51.1002 143.612 52.098L143.802 52.3714C148.708 52.5815 153.082 55.7911 156.449 59.1177L156.731 59.3947L156.901 59.7486C157.477 60.9294 157.952 62.2241 158.095 63.5386L158.486 67.1286C158.805 67.7197 159.116 68.4839 159.408 69.3948C159.216 69.9417 159.052 70.6325 158.915 71.4664C158.939 71.8334 159.124 72.7277 159.461 74.1456C159.678 74.6228 160.111 75.0102 160.759 75.31C160.899 76.1575 161.034 77.042 161.155 77.9663C160.358 79.281 160.552 81.4829 161.629 82.4743C161.696 83.2484 161.749 84.0324 161.801 84.8265C160.856 85.877 160.926 87.9593 161.971 88.9536C161.995 89.9747 162.005 90.999 161.998 92.0266C161.238 93.0079 161.118 95.1699 161.878 96.3807C161.816 97.6191 161.726 98.8399 161.612 100.038C160.716 100.629 160.619 101.496 161.318 102.63C161.181 103.668 161.021 104.682 160.836 105.664C160.006 106.084 159.658 107.628 160.231 108.4C160.003 109.294 159.749 110.151 159.471 110.955C158.574 111.168 158.032 112.58 158.431 113.464C157.433 115.483 156.198 117.007 154.692 117.835C137.551 124.078 134.114 109.731 129.604 97.6118C125.905 97.7584 122.522 97.7122 119.443 97.4822C119.296 97.839 119.148 98.1892 118.998 98.5361L119.644 99.3637L118.627 101.649L117.398 101.94C117.03 102.654 116.663 103.331 116.291 103.968L116.88 104.979L115.524 107.345L114.173 107.131C113.801 107.612 113.425 108.052 113.051 108.452L113.54 109.661L110.83 111.816L109.554 111.091C109.373 111.172 109.193 111.245 109.011 111.312C106.994 119.466 101.824 126.277 92.5342 128.993C74.7272 134.194 58.7175 118.375 57.7332 101.546L53.5533 101.035C52.3919 111.455 46.1505 117.121 36.1048 119.113C24.7022 121.361 15.178 118.829 7.52527 111.519C-6.73162 98.8028 0.296755 71.9397 19.9635 69.8445C18.1908 69.5675 16.7051 69.3339 15.5038 69.1437C13.8337 68.126 12.4437 64.7296 11.3295 58.9506C11.518 58.1863 12.271 57.4457 13.5894 56.7252C10.0453 42.7982 8.61664 27.8036 8.01106 13.5328L8.00088 13.329L8.03095 13.1254C8.45221 10.0696 11.1052 8.05419 13.6695 6.72607C17.3766 4.80743 22.0321 3.62951 26.1021 2.77574L26.152 2.76574L26.2048 2.75576C37.399 0.93408 50.8016 7.3934 61.1502 13.7601C61.1931 11.9583 61.6416 10.0798 63.3616 9.30564C63.4989 9.24225 63.6402 9.19244 63.7833 9.14904Z" fill="black"/>
<path fill-rule="evenodd" clip-rule="evenodd" d="M45.974 26.4578C42.6011 25.02 38.7627 24.0194 34.4657 23.4583C30.1287 22.8879 25.3158 22.7647 20.0287 23.0851C19.6372 23.1087 19.2958 22.8581 19.1815 22.5047C18.7029 20.9728 18.4057 19.4345 18.2887 17.8836C18.1717 16.3417 18.2343 14.7836 18.4788 13.2118C18.5059 13.0452 18.5789 12.8948 18.6858 12.7816C19.7501 11.6071 26.8659 11.3437 34.0072 12.4746C39.1142 13.2822 44.3142 14.7563 47.4128 17.0389C47.5772 17.1627 47.6843 17.3359 47.7285 17.5231C48.0027 18.7238 48.0899 20.0285 47.9856 21.4436C47.8857 22.8343 47.6043 24.3362 47.1428 25.9407C47.0184 26.3815 46.5571 26.6379 46.1144 26.5147C46.0641 26.4984 46.0169 26.4814 45.974 26.4578ZM125.876 76.8843C125.602 77.4049 125.357 77.8086 125.146 78.0986C121.652 78.7894 116.475 78.6462 109.619 77.6684C109.415 77.4114 109.213 77.1579 109.012 76.9043C115.592 77.5046 121.214 77.4982 125.876 76.8843ZM15.2659 53.9087C14.9316 52.4936 14.6173 51.0459 14.316 49.561C14.5504 49.427 14.7873 49.3004 15.0288 49.1772C15.3975 48.9906 15.7746 48.8204 16.1631 48.6601C16.5275 48.5099 16.7317 48.1359 16.6617 47.7493C16.3745 46.1676 16.063 44.4157 15.7288 42.4971C15.7088 42.3803 15.6416 42.2905 15.5373 42.2401C15.433 42.1867 15.3229 42.1903 15.216 42.2401C14.523 42.5905 13.8474 42.9814 13.1915 43.3952C12.9544 41.9539 12.7302 40.4818 12.5218 38.9805C12.713 38.8737 12.9032 38.7704 13.0945 38.6736C13.5129 38.4536 13.9245 38.2534 14.3288 38.0696C14.6774 37.913 14.8717 37.5555 14.8046 37.1787C14.5974 35.9574 14.3759 34.6825 14.1518 33.358C14.1318 33.2412 14.0616 33.1478 13.9544 33.098C13.8444 33.0482 13.7303 33.051 13.626 33.1116C13.0616 33.4384 12.4959 33.8821 11.9359 34.4461C11.6659 32.1437 11.4216 29.7814 11.203 27.3522C12.2843 26.4179 13.5259 25.527 14.9316 24.6794C15.1831 24.5291 15.3472 24.2493 15.3331 23.9353C15.2229 21.4462 15.0686 19.5178 14.8744 18.1569C14.6644 16.6785 14.3559 15.7376 13.9515 15.3339C13.8045 15.1807 13.5931 15.0839 13.3615 15.0839C12.913 15.0804 12.1772 15.2769 11.3574 15.5938C11.0603 15.7106 10.7445 15.8446 10.4245 15.9912C10.4002 15.561 10.3802 15.1301 10.36 14.7001C13.7072 12.7444 17.21 11.3564 20.8642 10.5596C26.3599 9.3581 28.5483 9.29471 33.5954 9.20789C29.1169 8.62737 24.727 8.43719 20.6 9.33811C17.0371 10.1187 13.6101 11.4368 10.3301 13.282C10.9458 9.91848 16.3601 7.16605 26.5771 5.01383C36.2525 3.43854 49.341 8.27699 65.8494 19.5212C83.839 31.536 95.7305 37.9859 101.519 38.8633C103.719 39.9408 105.475 41.9427 106.79 44.876C103.627 44.0349 99.4376 42.2966 94.1934 39.681C84.9377 35.0661 72.4852 27.7359 56.7396 17.8561C52.1611 14.9833 43.7312 11.5364 38.5512 10.4554C42.517 11.9103 51.9068 16.2915 56.0737 18.9073C71.8422 28.8034 84.3279 36.1543 93.6392 40.7953C99.382 43.6583 103.946 45.4962 107.356 46.2669C108.079 48.236 108.638 50.5512 109.029 53.214C109.036 53.6576 109.029 54.0914 109.019 54.5152C108.045 56.4608 106.985 57.6286 105.841 58.0217C103.183 57.9049 97.1692 55.827 87.7951 51.7827C93.5322 55.8634 99.4951 58.5695 105.683 59.8976C106.781 59.9839 107.728 59.5602 108.514 58.6194C108.189 60.0245 107.711 61.2651 107.075 62.3398C107.289 68.9393 109.378 72.4232 113.333 72.7936C119.799 73.6945 124.049 74.2649 126.086 74.5085C126.729 74.7257 126.863 75.1188 126.489 75.6864C119.411 76.6307 112.878 76.1736 106.888 74.3119L106.529 73.8846C105.073 68.3026 104.069 64.3352 103.518 61.993C86.6481 54.7825 76.1325 50.7951 71.977 50.0346C72.5798 48.9236 73.2624 47.539 74.2354 47.1916C75.9253 46.5912 78.3282 48.2599 81.0126 48.7399C79.7211 47.9223 76.5483 46.0671 75.1697 45.6739C72.981 45.1662 71.0897 47.2286 69.4898 51.8563C67.9239 54.6857 66.227 59.8073 64.4041 67.2182C64.0027 67.8619 63.3228 68.1989 62.3684 68.2323C52.1715 64.235 37.3771 63.458 17.9733 65.8901C16.4976 65.92 15.5246 60.1009 15.5405 59.1303C15.5477 58.5934 16.2104 58.3596 16.3305 58.129C17.6333 57.6418 18.3047 57.1085 18.3491 56.5379C18.1518 55.6236 17.9133 54.4493 17.6391 53.0206C17.6191 52.9074 17.552 52.8206 17.4491 52.7706C17.3477 52.7208 17.2405 52.7172 17.1376 52.767C16.4744 53.0841 15.8488 53.4643 15.2659 53.9087Z" fill="#FD1604"/>
<path fill-rule="evenodd" clip-rule="evenodd" d="M15.7345 60.7726C15.6015 60.0121 15.5345 59.3947 15.5401 59.1311C15.5473 58.5942 16.2101 58.3604 16.3302 58.1298C16.4672 58.08 16.5988 58.0266 16.7215 57.9731C19.7672 56.9591 24.5757 56.0146 31.1455 55.1338C31.2528 54.9002 31.3228 54.4295 31.3527 53.7322C31.577 50.6493 31.7683 42.6047 31.9256 29.6021C31.3297 26.7891 31.8784 24.7038 33.5713 23.3457C33.8726 23.3827 34.1714 23.4191 34.4657 23.4589C35.7541 23.6263 36.9984 23.8329 38.1998 24.0799C38.8655 24.6204 39.3984 25.4716 39.8027 26.6387C39.6028 29.7225 39.3384 38.5439 39.0199 53.1046C38.5684 53.512 38.2398 54.0326 38.0298 54.6663C48.7782 56.4445 56.7069 59.0275 61.8096 62.4138C47.4867 57.3329 32.1254 56.7853 15.7345 60.7726ZM31.7384 9.24587C32.3141 9.22885 32.9297 9.21886 33.5954 9.20887C29.1169 8.62834 24.727 8.43816 20.6 9.33909C17.0371 10.1196 13.6101 11.4378 10.3301 13.283C10.9458 9.91946 16.3601 7.16703 26.5771 5.01481C36.2525 3.43952 49.341 8.27797 65.8494 19.5222C77.3178 27.1828 86.3062 32.5781 92.8192 35.7116C81.4504 30.9566 65.6251 22.5516 58.8152 19.1554C58.1282 18.7281 57.4395 18.2943 56.7396 17.857C52.7741 15.3681 45.9209 12.4481 40.7898 11.0102C40.3455 10.8137 39.9269 10.6335 39.5428 10.4663C39.5085 10.5268 39.4784 10.5902 39.4484 10.6564C39.1398 10.583 38.8398 10.5168 38.5513 10.4563C38.8129 10.5495 39.09 10.6564 39.3915 10.7767C39.13 11.3706 38.8628 12.2416 38.5914 13.3925C37.0929 13.0221 35.5456 12.7187 34.0072 12.4751C33.2743 12.3584 32.5443 12.258 31.8186 12.171C31.9156 11.3311 31.8883 10.3534 31.7384 9.24587ZM13.5188 15.1013C13.4687 15.0878 13.4158 15.0849 13.3615 15.0849C12.9129 15.0814 12.1772 15.2778 11.3574 15.5948C11.0603 15.7116 10.7444 15.8456 10.4245 15.9922C10.4002 15.562 10.3802 15.1311 10.36 14.7011C11.6858 13.9269 13.0301 13.2426 14.4057 12.6456C13.9614 13.3466 13.6671 14.1641 13.5188 15.1013Z" fill="#FA8179"/>
<path fill-rule="evenodd" clip-rule="evenodd" d="M125.876 76.8855C125.602 77.406 125.357 77.8098 125.145 78.0998C121.651 78.7905 116.474 78.6473 109.619 77.6696C109.414 77.4126 109.213 77.159 109.012 76.9054C115.591 77.5058 121.214 77.4994 125.876 76.8855ZM64.7205 65.9382C64.6178 66.3548 64.5105 66.7822 64.4034 67.2195C64.002 67.8633 63.3221 68.2002 62.3677 68.2336C52.1708 64.2363 37.3764 63.4594 17.9726 65.8914C17.434 65.9014 16.9653 65.1372 16.584 64.1131C30.7367 59.959 46.7836 60.5664 64.7205 65.9382ZM52.2781 58.4307C55.8665 41.7813 57.4222 31.8046 56.9464 28.5051C57.278 28.4845 57.8436 28.4047 58.6437 28.2715C61.8464 29.0884 64.6535 30.4401 67.0663 32.3286C67.4578 32.7858 67.4793 33.7067 67.1178 35.0846C64.0921 47.3901 61.6993 55.0706 59.9452 58.12C58.5334 60.246 55.9792 60.3492 52.2781 58.4307ZM88.7761 52.4684C94.2101 56.1681 99.8462 58.6442 105.683 59.8989C106.78 59.9853 107.727 59.5615 108.513 58.6208C108.189 60.0259 107.71 61.2664 107.074 62.3411C107.289 68.9406 109.377 72.4246 113.333 72.7949C119.799 73.6958 124.049 74.2662 126.086 74.5098C126.728 74.727 126.863 75.1201 126.489 75.6877C119.41 76.632 112.877 76.1749 106.887 74.3132L106.529 73.8859C105.073 68.3039 104.069 64.3365 103.517 61.9943C86.6476 54.7838 76.1319 50.7965 71.9765 50.0359C72.5792 48.925 73.2619 47.5403 74.2349 47.1929C75.8477 46.6189 78.1205 48.1173 80.6605 48.6714C83.6618 50.0955 86.3662 51.3604 88.7761 52.4684Z" fill="#9E100E"/>
<path fill-rule="evenodd" clip-rule="evenodd" d="M128.94 79.4635C128.365 78.8868 127.896 78.3298 127.53 77.7857C127.809 72.9772 128.003 68.0761 128.12 63.0811C128.686 58.7768 130.265 56.0876 132.852 55.0103C133.39 57.1921 135.11 58.1394 138.016 57.8596C141.025 57.7058 142.627 56.6418 142.824 54.6599C146.543 54.4761 150.544 56.505 154.836 60.7424C155.391 61.8868 155.716 62.9009 155.813 63.7854C152.713 61.1796 150.556 58.5568 147.363 58.3268C139.544 57.7628 134.816 59.8315 133.477 61.446C131.075 64.3422 129.297 70.108 128.94 79.4635Z" fill="#FD1604"/>
<path fill-rule="evenodd" clip-rule="evenodd" d="M142.593 55.6146C142.715 55.3241 142.792 55.0035 142.825 54.6603C143.879 54.6069 144.953 54.7337 146.051 55.0371C144.993 55.8148 143.839 56.0084 142.593 55.6146ZM128.106 63.5587L128.121 63.0815C128.686 58.7772 130.265 56.0881 132.852 55.0107C133.11 56.0646 133.645 56.8288 134.459 57.3094C131.456 58.0403 129.238 60.1055 128.106 63.5587Z" fill="#FA8179"/>
<path fill-rule="evenodd" clip-rule="evenodd" d="M146.93 55.3145C149.447 56.2152 152.081 58.0235 154.835 60.7433C155.391 61.8876 155.715 62.9017 155.813 63.7863C152.713 61.1805 150.556 58.5576 147.363 58.3276C146.63 58.2741 145.927 58.2443 145.247 58.2343C145.666 57.1026 146.224 56.1284 146.93 55.3145Z" fill="#9E100E"/>
<path fill-rule="evenodd" clip-rule="evenodd" d="M141.731 53.4116C141.313 52.8148 134.129 52.9516 133.85 53.4116C133.576 54.5233 133.9 55.4071 134.827 56.0643C136.671 57.1426 138.817 57.1624 141.263 56.1212C141.886 55.4306 142.04 54.5297 141.731 53.4116Z" fill="#B1E6F4"/>
<path fill-rule="evenodd" clip-rule="evenodd" d="M126.146 66.9453C119.289 66.4746 114.02 65.1935 110.343 63.101C110.303 62.4637 110.343 61.8269 110.46 61.1924C117.856 62.5739 122.959 63.4514 125.774 63.8252C126.199 63.8188 126.543 64.7759 126.812 66.6916C126.814 66.9353 126.595 67.0215 126.146 66.9453Z" fill="#5F5F5F"/>
<path fill-rule="evenodd" clip-rule="evenodd" d="M110.381 61.7165C110.401 61.5428 110.426 61.3662 110.461 61.1924C117.856 62.5739 122.959 63.4514 125.775 63.8252C126.129 63.8216 126.426 64.4861 126.671 65.8171C123.796 64.6727 118.365 63.3084 110.381 61.7165Z" fill="#B1BDBD"/>
<path fill-rule="evenodd" clip-rule="evenodd" d="M95.2519 69.1077C100.806 71.8231 104.806 77.3352 107.312 85.3698C101.623 74.7899 95.8232 69.6609 89.9476 70.2385C81.6819 71.0524 71.7848 82.447 71.0934 96.0037C70.5605 106.42 72.3377 115.796 76.5575 121.382L76.5448 121.375C72.4977 117.154 69.8877 109.416 68.7134 98.1621C68.115 102.51 68.8606 108.869 70.9548 117.244C68.9578 113.274 67.0435 107.034 65.2192 98.5261C65.4435 104.098 66.5248 110.251 68.452 116.985C65.5707 112.006 63.3992 105.729 61.9335 98.1621C62.2378 103.387 63.1777 108.456 64.7577 113.37C57.7137 100.685 58.4765 86.007 65.615 76.1677C67.3177 73.8219 69.2649 71.9332 71.4134 70.4853C64.3563 76.9781 61.1605 84.9393 61.8291 94.3653C64.102 80.1543 69.4562 71.6633 77.8933 68.8865C70.2634 73.3845 66.1235 81.2688 65.4106 93.6211C68.6833 79.9277 74.5834 71.5093 83.1104 68.3665C77.2033 71.7159 71.1962 79.7875 69.965 89.6872C74.6562 73.011 85.3259 65.7877 95.2519 69.1077Z" fill="#5F5F5F"/>
<path fill-rule="evenodd" clip-rule="evenodd" d="M73.3786 85.8437C72.106 88.9729 71.2759 92.4134 71.0931 96.0034C70.9243 99.253 70.9859 102.4 71.2731 105.362C70.6503 105.519 70.0343 104.889 69.4187 103.481C69.1445 101.802 68.9102 100.03 68.7129 98.1619C68.5159 99.6004 68.4656 101.262 68.563 103.141C68.2243 104.775 67.6359 105.479 66.8016 105.249C66.266 103.19 65.7415 100.951 65.2188 98.5258C65.3058 100.625 65.5101 102.806 65.8386 105.069C65.6773 105.97 65.3231 106.384 64.7743 106.313C64.3758 106.053 63.9601 105.596 63.5331 104.942C62.9302 102.81 62.3974 100.551 61.9331 98.1619C61.983 99.0166 62.0502 99.8668 62.133 100.715C61.936 102.674 61.6047 103.927 61.143 104.468C59.416 98.0487 59.4503 91.5253 61.0788 85.6799C61.5845 85.5866 62.0259 85.5631 62.4073 85.6165C61.8061 88.3762 61.6116 91.2925 61.8288 94.3653C62.2474 91.7489 62.7731 89.3305 63.3989 87.1014C64.2387 85.3995 64.9218 84.3754 65.4402 84.0349C65.6602 83.9815 65.7818 84.1154 65.8018 84.435C65.8317 86.5573 65.8644 88.0058 65.8989 88.7829C65.6717 90.311 65.5074 91.9227 65.4103 93.6212C65.8018 91.9725 66.2359 90.4042 66.7046 88.9095C67.4789 87.9188 68.1873 86.7375 68.8404 85.373C69.2988 84.5854 69.7903 84.3887 70.3159 84.7754C70.413 84.9657 70.4531 85.6863 70.436 86.9376C70.239 87.8357 70.0816 88.7529 69.9646 89.6872C70.1089 89.1731 70.2591 88.6731 70.4161 88.176C70.4061 88.8831 70.4033 89.4138 70.4061 89.7669C71.5717 87.8357 72.5614 86.5237 73.3786 85.8437Z" fill="#B1BDBD"/>
<path fill-rule="evenodd" clip-rule="evenodd" d="M92.2055 80.4551C98.8554 80.4551 104.247 88.3131 104.247 98.0055C104.247 107.699 98.8554 115.553 92.2055 115.553C85.5553 115.553 80.1641 107.699 80.1641 98.0055C80.1641 88.3131 85.5553 80.4551 92.2055 80.4551Z" fill="#5F5F5F"/>
<path fill-rule="evenodd" clip-rule="evenodd" d="M80.5423 102.37C80.298 100.972 80.168 99.5107 80.168 98.006C80.168 96.5384 80.2879 95.1133 80.5222 93.7516L85.3209 94.2494L86.8336 92.1172L90.5879 94.1988L92.2576 93.7287L94.762 94.3028L95.9362 96.4613L94.4734 98.2795L90.5621 102.154L89.5705 100.856L88.9992 98.9306L88.3192 100.228L85.0092 100.178L86.442 103.999L82.7134 106.261C81.9008 105.26 81.1751 103.962 80.5423 102.37Z" fill="#B1BDBD"/>
<path fill-rule="evenodd" clip-rule="evenodd" d="M31.5442 82.2666C32.2401 82.2666 32.9256 82.3164 33.6057 82.417C34.037 83.4245 34.5055 84.3988 35.0214 85.2862C35.9883 86.9478 37.3999 88.7195 39.5012 88.7701H39.5353H39.5726C40.1613 88.7494 40.744 88.6162 41.2356 88.2822L42.7285 87.2816L42.8312 87.3216C45.124 89.7644 46.6841 92.9069 47.0511 96.3374C47.8955 104.108 42.3127 110.407 34.5857 110.407C26.8615 110.407 19.9185 104.108 19.0788 96.3374C18.2386 88.5664 23.82 82.2666 31.5442 82.2666Z" fill="#5F5F5F"/>
<path d="M33.2937 92.4875C32.2824 91.5496 31.0209 90.9656 29.7424 90.9656C29.5124 90.9656 29.2909 90.9856 29.0811 91.019C28.1838 91.1728 27.431 91.6466 26.9052 92.3337C26.3695 93.0381 26.0624 93.9688 26.0624 95.0264C26.0624 95.3469 26.0882 95.6773 26.1454 96.0077C26.3967 97.4656 27.1597 98.7837 28.1839 99.7408C29.194 100.679 30.4597 101.263 31.734 101.263C31.9654 101.263 32.1853 101.243 32.3967 101.206C33.2939 101.053 34.0468 100.582 34.5682 99.8948C35.108 99.1904 35.4154 98.2567 35.4154 97.202C35.4154 96.8816 35.3882 96.5512 35.3326 96.2179C35.0809 94.7628 34.3212 93.4447 33.2937 92.4875ZM29.7426 89.7178C31.3454 89.7178 32.908 90.4285 34.1438 91.5765C35.3623 92.711 36.2651 94.2792 36.5638 96.0075C36.6336 96.4177 36.6667 96.8179 36.6667 97.2017C36.6667 98.5328 36.2651 99.7305 35.5623 100.649C34.8496 101.583 33.8293 102.227 32.6037 102.437C32.3239 102.484 32.0281 102.51 31.7338 102.51C30.131 102.51 28.5681 101.799 27.3337 100.651C26.1152 99.5177 25.2124 97.9488 24.9139 96.2177C24.8439 95.8075 24.8096 95.41 24.8096 95.0262C24.8096 93.6917 25.2124 92.4974 25.9139 91.5794C26.6268 90.6423 27.6482 90.0013 28.8725 89.7912C29.1567 89.7449 29.448 89.7178 29.7426 89.7178Z" fill="black"/>
<path d="M39.8268 87.4388C42.1824 89.5773 43.818 92.5371 44.1738 95.8138C44.2197 96.2638 44.2437 96.6982 44.2437 97.1149C44.2437 99.9079 43.2567 102.417 41.5723 104.306C39.531 106.608 35.1039 108.527 30.9182 106.354C34.4453 107.025 38.5138 105.25 40.3279 103.207C41.7439 101.619 42.5764 99.4906 42.5764 97.1149C42.5764 96.7345 42.5564 96.3578 42.5166 95.9874C42.2092 93.1346 40.7738 90.5452 38.705 88.6701C34.7795 85.11 27.2896 84.1956 23.7295 88.5469C26.8755 82.0504 35.4254 83.4485 39.8268 87.4388Z" fill="black"/>
<path d="M35.5958 81.9103C35.0558 83.178 34.5816 84.3125 34.1702 85.3202C33.8016 86.2211 33.5272 86.9119 33.3458 87.3989C33.3258 87.6027 33.3559 87.8362 33.4373 88.0961C33.5346 88.4166 33.7073 88.777 33.9517 89.1736L33.9788 89.217C34.1758 89.6008 34.2603 90.0281 34.2302 90.5018C34.2031 90.9326 34.0789 91.4028 33.8587 91.9098L32.7146 91.4126C32.8745 91.0422 32.9647 90.7119 32.9817 90.4249C32.9988 90.1849 32.9647 89.9783 32.8817 89.8045C32.5874 89.3274 32.3733 88.8766 32.2416 88.4564C32.1018 87.9927 32.0573 87.5619 32.1189 87.1651L32.1245 87.1018L32.1488 87.042C32.3458 86.5014 32.6331 85.7707 33.0088 84.8527C33.3603 83.9988 33.8388 82.8545 34.4444 81.4258L35.5958 81.9103Z" fill="black"/>
<path fill-rule="evenodd" clip-rule="evenodd" d="M31.6594 92.2796C30.9026 92.353 29.0324 91.6727 28.1053 92.8672C26.3683 95.1126 28.6312 99.0365 31.0396 99.4205C32.4182 99.6405 33.8511 98.9597 35.1597 98.7831L39.7682 99.3471C39.2724 101.165 38.2324 102.713 36.6454 103.991C38.9138 103.354 40.6039 101.886 41.7225 99.5871C41.2766 101.759 40.264 103.411 38.7938 104.519C40.3909 104.178 42.4623 102.096 43.7565 99.8371L58.4578 101.636L48.5052 85.5967L36.8567 85.8837L35.0496 88.4695V89.9039L33.858 91.9094L31.6594 92.2796Z" fill="black"/>
<path d="M25.1456 73.6982C19.7542 74.5258 15.0685 77.566 12.0872 81.6765C10.4642 83.9183 9.25865 86.4843 8.54297 89.2041C6.19423 98.1495 9.93142 109.594 17.1371 113.871C8.70004 110.578 4.54441 97.8852 6.93293 88.7902C7.69997 85.8704 8.99414 83.1142 10.7385 80.7086C13.9715 76.2477 19.0371 72.9509 24.9043 72.0566C25.1013 72.0268 25.2828 72.0736 25.4399 72.1934C25.5998 72.3137 25.6912 72.4775 25.7143 72.6741L25.7442 72.9213C25.7871 73.2979 25.5227 73.6419 25.1456 73.6982Z" fill="#5F5F5F"/>
<path d="M10.6485 83.9478C9.73711 85.5927 9.02848 87.3646 8.54286 89.2034C7.75999 92.1929 7.65554 95.4562 8.12864 98.6424L6.49871 97.6645C6.08716 94.6185 6.21009 91.5385 6.93297 88.7895C7.41171 86.967 8.09434 85.2123 8.96427 83.5645L10.6485 83.9478Z" fill="#B1BDBD"/>
<path d="M10.1457 79.4711C8.43294 81.3191 7.1145 83.358 6.18286 85.58C5.21302 87.9059 4.66725 90.4383 4.55011 93.1707C4.52004 95.9975 4.82432 98.4728 5.45716 100.601C6.05006 102.583 6.93001 104.258 8.09702 105.63C8.22137 105.776 8.20853 105.993 8.06712 106.121L7.97723 106.204C7.90425 106.27 7.81295 106.301 7.71569 106.29C7.61578 106.287 7.53294 106.244 7.46857 106.171C6.21997 104.709 5.28301 102.93 4.66145 100.835C4.00152 98.6295 3.68722 96.0671 3.72011 93.1509V93.1409C3.84148 90.3015 4.40713 87.6759 5.4144 85.2601C6.38143 82.9477 7.7572 80.829 9.53277 78.9035C9.59996 78.8337 9.68421 78.7937 9.78412 78.7903C9.88121 78.7867 9.96844 78.8201 10.0384 78.8871L10.1283 78.9741C10.2701 79.107 10.2759 79.3273 10.1457 79.4711Z" fill="#5F5F5F"/>
<path d="M6.56103 84.7261C6.43105 85.0093 6.30373 85.2936 6.18236 85.58C5.25652 87.799 4.71686 90.2083 4.5695 92.8041L3.75391 92.5435C3.92382 89.9349 4.47663 87.5057 5.4139 85.2602C5.52384 85.0032 5.63378 84.7497 5.75092 84.4961L6.56103 84.7261Z" fill="#B1BDBD"/>
<path fill-rule="evenodd" clip-rule="evenodd" d="M153.725 74.6832C155.881 74.8299 157.908 81.5064 158.252 89.5973C158.598 97.6854 157.132 104.125 154.973 103.979C152.818 103.828 150.793 97.1518 150.449 89.0602C150.103 80.9724 151.569 74.533 153.725 74.6832Z" fill="#5F5F5F"/>
<path fill-rule="evenodd" clip-rule="evenodd" d="M145.091 92.7472C144.956 69.6612 150.348 60.2387 156.325 67.9464C155.247 63.3857 151.818 63.0987 150.178 63.8358C146.972 60.9466 140.522 63.2655 138.618 67.2862C139.051 67.6892 139.375 68.0333 139.589 68.3167C142.735 65.8547 145.841 64.7268 148.902 64.9332C148.102 65.9843 147.417 67.6394 146.848 69.6484C142.239 69.6214 138.894 71.3995 136.805 74.9932C137.394 75.5272 137.989 76.0914 138.588 76.6781C140.168 73.9826 142.748 72.334 146.325 71.7273C145.948 73.4322 145.636 75.3002 145.395 77.2287C141.758 78.2364 138.862 80.7894 136.711 84.8829C136.992 85.4235 137.484 86.0075 138.184 86.6284C140.188 82.7941 142.501 80.5125 145.121 79.7847C144.894 82.2573 144.779 84.7427 144.784 87.0288C141.249 89.1944 138.652 92.0772 136.995 95.6773C137.585 96.0641 138.164 96.4679 138.732 96.8951C140.851 93.2981 142.879 90.6823 144.814 89.0408C144.859 90.405 144.951 91.6598 145.091 92.7472Z" fill="#5F5F5F"/>
<path fill-rule="evenodd" clip-rule="evenodd" d="M143.685 87.7457C140.707 89.8145 138.478 92.4601 136.995 95.6771C137.26 95.8501 137.524 96.0274 137.785 96.2104C138.966 93.6679 140.931 90.8486 143.685 87.7457ZM144.57 77.4892C141.317 78.6401 138.695 81.1027 136.711 84.8829C136.791 85.0331 136.885 85.187 136.995 85.3436C139.595 81.7231 142.246 79.1073 144.956 77.4928C144.827 77.4928 144.697 77.4928 144.57 77.4892ZM143.876 69.9146C140.774 70.5321 138.415 72.2242 136.805 74.993C137.087 75.2464 137.366 75.5072 137.648 75.7742C138.857 73.5019 140.931 71.5498 143.876 69.9146ZM148.942 63.0352C145.536 61.5097 140.302 63.7324 138.618 67.2861C138.772 67.4293 138.914 67.5659 139.041 67.6963C141.761 64.7465 145.061 63.192 148.942 63.0352Z" fill="#B1BDBD"/>
<path fill-rule="evenodd" clip-rule="evenodd" d="M145.69 97.0811C148.291 108.639 151.44 114.795 155.141 115.553C153.501 115.607 152.045 114.849 150.774 113.281C149.864 114.134 148.723 115.109 147.354 116.203C147.103 116.264 146.748 116.24 146.293 116.143C147.41 115.383 148.75 114.218 150.298 112.65C149.388 111.332 148.575 109.57 147.866 107.358C145.871 109.073 144.336 110.932 143.254 112.93C142.829 112.65 142.424 112.35 142.036 112.026C143.04 110.431 144.867 108.499 147.524 106.226C146.963 104.275 146.47 102.013 146.049 99.4469V99.4503C143.82 101.149 142.18 103.484 141.126 106.454C140.587 106.057 140.178 105.499 139.907 104.785C141.18 101.88 143.127 99.4469 145.747 97.4884L145.751 97.4919L145.69 97.0811Z" fill="#5F5F5F"/>
<path fill-rule="evenodd" clip-rule="evenodd" d="M142.685 112.534C142.463 112.371 142.246 112.2 142.035 112.027C142.745 110.896 143.869 109.598 145.409 108.13C144.442 109.451 143.535 110.919 142.685 112.534ZM140.469 105.811C140.242 105.514 140.053 105.173 139.906 104.786C141.028 102.227 142.67 100.035 144.839 98.21C142.521 101.36 141.065 103.892 140.469 105.811Z" fill="#B1BDBD"/>
<path fill-rule="evenodd" clip-rule="evenodd" d="M137.306 72.2601C137.675 71.8299 138.106 71.3358 138.338 71.1356C137.421 69.2107 135.543 67.389 132.705 65.677C132.378 66.2373 132.159 66.8513 132.049 67.5156C133.879 68.2698 135.841 70.1414 137.306 72.2601ZM137.276 82.023C135.158 78.6531 132.902 76.471 130.516 75.4733C130.577 74.7825 130.691 74.042 130.861 73.2577C134.412 75.8373 136.895 78.2693 138.308 80.5581C137.819 81.2155 137.478 81.7061 137.276 82.023ZM136.995 92.85C135.619 89.4907 133.348 86.5039 130.172 83.8947C130.115 83.3749 130.135 82.6869 130.235 81.8364C133.575 84.3653 136.202 87.4982 138.119 91.2284C137.688 91.8759 137.314 92.4163 136.995 92.85ZM138.749 102.426C139.118 102.123 139.408 101.769 139.622 101.365C138.431 99.9373 135.449 96.8979 130.674 92.2567C130.838 93.2972 130.965 94.065 131.049 94.5655C135.329 99.29 137.895 101.909 138.749 102.426ZM141.643 109.336C138.261 106.624 135.703 104.438 133.976 102.787C134.492 104.171 134.866 105.076 135.105 105.499C138.405 108.419 140.375 109.987 141.018 110.211C141.265 109.857 141.473 109.563 141.643 109.336ZM144.305 114.548C144.465 114.809 144.508 115.069 144.428 115.329C142.838 115.199 140.764 114.448 138.201 113.08C137.996 112.649 137.839 112.246 137.732 111.865C139.926 113.087 142.119 113.977 144.305 114.548ZM138.846 65.1C139.2 64.7695 139.482 64.5559 139.876 64.3187C138.769 62.8112 137.478 61.7399 135.998 61.1025C135.516 61.2963 135.088 61.5561 134.713 61.8831C136.547 62.7044 137.966 63.8587 138.846 65.1Z" fill="#5F5F5F"/>
<path fill-rule="evenodd" clip-rule="evenodd" d="M141.541 109.257C141.392 109.287 141.225 109.287 141.045 109.259C137.917 107.034 135.811 105.109 134.726 103.487C136.394 105.022 138.665 106.944 141.541 109.257ZM138.057 101.886C138.144 101.656 138.236 101.472 138.334 101.332C134.647 96.8979 132.11 93.9844 130.728 92.5865L130.674 92.2567C135.45 96.8979 138.431 99.9373 139.622 101.365C139.408 101.769 139.118 102.123 138.75 102.426C138.582 102.326 138.351 102.146 138.057 101.886ZM137.755 91.7689C135.329 88.0288 132.792 85.029 130.155 82.7636C130.168 82.4802 130.195 82.1696 130.235 81.8364C133.575 84.3653 136.202 87.4982 138.12 91.2284C137.996 91.4193 137.872 91.5994 137.755 91.7689ZM137.788 81.2689C136.801 79.1672 134.439 76.7544 130.708 74.0354C130.754 73.782 130.804 73.5212 130.861 73.2577C134.412 75.8373 136.895 78.2693 138.308 80.5581C138.114 80.8217 137.939 81.0587 137.788 81.2689ZM136.912 71.7131C136.995 71.4895 137.122 71.216 137.29 70.8892C136.209 69.1537 134.597 67.5755 132.458 66.1577C132.531 65.9911 132.615 65.8307 132.705 65.677C135.544 67.389 137.421 69.2107 138.338 71.1356C138.107 71.3358 137.675 71.8299 137.307 72.2601C137.18 72.0734 137.045 71.8933 136.912 71.7131ZM139.422 64.6193C139.562 64.5161 139.709 64.4193 139.877 64.3187C138.769 62.8112 137.478 61.7399 135.998 61.1025C135.915 61.1388 135.834 61.1723 135.754 61.2095C137.394 61.8832 138.618 63.0212 139.422 64.6193Z" fill="#B1BDBD"/>
<path fill-rule="evenodd" clip-rule="evenodd" d="M154.569 76.5176C153.442 77.5959 152.343 79.6141 151.283 82.5674C153.525 86.8112 154.027 91.5463 152.786 96.7643C153.28 98.1124 154.182 99.5274 155.476 101.009C155.668 100.728 155.845 100.355 156.009 99.8843C154.586 98.1922 153.699 96.7977 153.352 95.7034C154.723 96.9517 155.745 97.7422 156.416 98.0762C157.572 92.9806 157.236 86.451 155.416 78.4834C155.112 77.7291 154.83 77.0753 154.569 76.5176Z" fill="#B1BDBD"/>
<path fill-rule="evenodd" clip-rule="evenodd" d="M151.583 97.8261C151.459 97.2955 151.342 96.7386 151.232 96.1581C151.268 96.171 151.302 96.1781 151.335 96.1809H151.352C151.529 96.1646 151.733 95.8839 151.937 95.4102C152.232 94.7294 152.436 93.7516 152.516 92.5809C152.573 91.7534 152.566 90.8425 152.49 89.8782C152.332 87.9227 151.91 86.1478 151.359 84.8631C151.075 84.1995 150.783 83.6888 150.509 83.3854C150.556 82.7446 150.612 82.1307 150.683 81.543C151.533 81.8771 152.302 82.8413 152.887 84.213C153.51 85.6644 153.979 87.6227 154.153 89.7451C154.236 90.7956 154.243 91.7932 154.18 92.6976C154.086 94.0485 153.839 95.2136 153.467 96.0675C153.029 97.0854 152.386 97.7193 151.583 97.8261Z" fill="black"/>
<path d="M156.382 99.8408C155.769 101.469 154.929 102.44 153.919 102.494C153.849 102.496 153.781 102.496 153.714 102.494C152.386 102.403 151.13 100.658 150.183 97.9123C149.277 95.2929 148.607 91.7194 148.393 87.8224C148.286 85.8938 148.296 84.0623 148.413 82.4036C148.584 79.9346 148.978 77.8294 149.547 76.3275C150.16 74.6996 151.003 73.7288 152.011 73.6754C152.081 73.672 152.148 73.672 152.214 73.6754C155.538 73.902 156.576 81.8767 156.571 83.6349C155.695 80.238 155.123 78.6635 154.35 76.992C153.65 75.4735 152.887 74.5564 152.158 74.5058L152.054 74.503C151.415 74.5392 150.82 75.3133 150.327 76.618C149.788 78.0458 149.41 80.0684 149.247 82.4606C149.133 84.0887 149.12 85.8866 149.223 87.7754C149.437 91.6062 150.09 95.0963 150.97 97.6416C151.807 100.064 152.807 101.595 153.771 101.662H153.874C154.517 101.629 155.11 100.855 155.601 99.5502C156.14 98.1222 156.521 96.1005 156.685 93.7084C156.8 92.0796 157.014 87.7954 156.907 85.9038C157.59 90.7624 157.884 95.8606 156.382 99.8408Z" fill="black"/>
<path fill-rule="evenodd" clip-rule="evenodd" d="M114.489 97.1542C113.797 100.397 112.458 102.433 110.474 103.264C110.651 102.57 110.785 101.759 110.869 100.828C111.129 100.601 111.348 100.361 111.528 100.108C111.304 100.191 111.096 100.271 110.909 100.348C110.987 99.2964 111.007 98.1121 110.969 96.791C111.364 96.831 111.822 96.8744 112.345 96.9278C112.368 97.7318 112.328 98.4526 112.221 99.0927C112.642 98.6227 112.976 97.9318 113.228 97.021L114.489 97.1542Z" fill="#5F5F5F"/>
<path fill-rule="evenodd" clip-rule="evenodd" d="M37.182 81.86C36.7733 79.955 36.3991 78.0335 35.6791 76.5886C34.5677 74.3596 32.2361 73.2115 28.672 72.5947C28.602 73.1751 28.7292 73.5925 29.0463 73.8424C30.6563 74.3432 32.2263 75.0104 32.6778 76.3713C35.0978 83.6652 37.0005 87.5123 39.5304 87.5693C39.9589 87.5558 40.3047 87.4625 40.5618 87.2887C38.9789 86.2413 37.7405 84.4594 37.182 81.86Z" fill="#5F5F5F"/>
<path fill-rule="evenodd" clip-rule="evenodd" d="M37.182 81.86C36.7733 79.955 36.3991 78.0335 35.6791 76.5886C34.5677 74.3596 32.2361 73.2115 28.672 72.5947C28.602 73.1751 28.7292 73.5925 29.0463 73.8424C30.6563 74.3432 32.2263 75.0104 32.6778 76.3713C33.4334 78.6573 34.1434 80.6058 34.8364 82.2074L37.4435 82.8614C37.3461 82.5444 37.2561 82.2104 37.182 81.86Z" fill="#B1BDBD"/>
<path fill-rule="evenodd" clip-rule="evenodd" d="M66.0889 14.4107C66.0161 15.5752 65.9218 16.4162 65.8047 16.9332C65.0662 16.5166 64.299 16.0394 63.5089 15.5018C63.2616 12.5827 63.7034 11.1876 64.8416 11.3179C65.8788 11.5951 66.7388 11.9589 67.4216 12.409C67.6818 12.9994 67.769 14.4309 67.6818 16.6997C67.3502 16.5068 67.0505 16.333 66.7689 16.1792C66.7589 15.519 66.7689 14.8881 66.796 14.2813C66.5248 13.8238 66.2903 13.8674 66.0889 14.4107Z" fill="#B1BDBD"/>
<path fill-rule="evenodd" clip-rule="evenodd" d="M70.8103 2.67884C67.7418 1.24095 66.0377 3.74339 66.0648 10.4863C66.4091 10.6501 66.7576 10.7968 67.1048 10.927C66.9718 4.70068 68.1861 2.30207 70.7562 3.72637C71.0648 3.90375 71.4892 3.109 70.8103 2.67884Z" fill="#5F5F5F"/>
<path fill-rule="evenodd" clip-rule="evenodd" d="M20.2249 53.9897C20.6034 54.7873 20.9348 55.0544 21.2148 54.7973C20.045 47.9768 18.8635 40.3161 17.6677 31.8117C16.9392 31.9683 16.6949 32.0217 16.9392 31.9683C16.7307 32.4789 16.6607 33.9666 16.7308 36.4428C16.1621 33.7466 15.895 32.0045 15.9206 31.2142C17.2906 30.153 18.4449 29.6325 19.3878 29.656C19.9006 29.676 20.1449 30.0498 20.1206 30.7734C21.5006 43.4063 22.5406 51.6573 23.2506 55.5244C23.1092 56.2486 22.4062 56.629 21.1349 56.6689C20.7005 56.6788 20.3962 55.788 20.2249 53.9897Z" fill="black"/>
<path fill-rule="evenodd" clip-rule="evenodd" d="M46.1478 36.7851C46.282 35.6806 46.4049 34.5561 46.5221 33.4088C46.5794 32.8312 46.2677 32.3078 45.7323 32.0843C38.1693 28.9073 30.8208 27.8569 23.6897 28.9209C22.9825 29.0277 22.4939 29.6814 22.5954 30.3858C22.8054 31.8842 23.0126 33.3256 23.211 34.7135C23.314 35.4108 23.9595 35.9014 24.6625 35.8146C28.0995 35.381 31.601 35.381 35.1639 35.811C38.2138 36.1778 41.3123 36.8621 44.461 37.8627C44.8423 37.983 45.2209 37.9368 45.5594 37.7195C45.8935 37.5023 46.0978 37.1825 46.1478 36.7851ZM44.5179 46.9682C44.7921 45.6173 45.0492 44.2256 45.2877 42.7843C45.3948 42.1541 45.0292 41.553 44.4234 41.3466C41.1449 40.2385 37.9278 39.4915 34.7721 39.1111C31.5093 38.7174 28.3164 38.711 25.1951 39.0941C24.8337 39.1375 24.5396 39.3041 24.318 39.5947C24.0967 39.8817 24.0137 40.2121 24.0667 40.5689C24.3207 42.3037 24.5653 43.929 24.7966 45.4407C24.9009 46.1309 25.5367 46.615 26.2294 46.5346C29.355 46.1779 32.3793 46.1409 35.305 46.425C37.9078 46.6814 40.4249 47.1856 42.8547 47.9461C43.2162 48.0595 43.5734 48.0195 43.9019 47.8258C44.2336 47.6328 44.4407 47.3386 44.5179 46.9682ZM27.698 55.6972C31.4023 55.2734 35.8534 55.3831 41.0536 56.034C41.6865 56.111 42.2722 55.7336 42.4591 55.1268C42.6904 54.3791 42.915 53.6084 43.1293 52.8244C43.3136 52.1572 42.9377 51.4663 42.2822 51.2491C39.9364 50.4822 37.5065 49.9714 34.9907 49.728C32.3837 49.4744 29.6695 49.5008 26.8551 49.8078C26.4896 49.8484 26.1852 50.0186 25.9611 50.312C25.7367 50.6053 25.654 50.9393 25.714 51.3061C25.911 52.531 26.0953 53.6419 26.2654 54.6298C26.3824 55.3098 27.0125 55.777 27.698 55.6972Z" fill="black"/>
<path fill-rule="evenodd" clip-rule="evenodd" d="M34.6821 21.8641C38.7822 22.4011 42.4835 23.329 45.7817 24.6365C46.0705 23.4792 46.2504 22.3947 46.322 21.3771C46.4047 20.2462 46.3519 19.2013 46.1676 18.2443C43.2762 16.2417 38.4878 14.9143 33.745 14.1636C27.4237 13.1659 21.3323 13.1055 20.0752 13.8261C19.8909 15.1607 19.851 16.4853 19.9509 17.8134C20.0409 19.0283 20.2552 20.239 20.5895 21.4403C25.7162 21.1633 30.4148 21.3036 34.6821 21.8641ZM11.0323 25.3408C10.8307 22.8852 10.6608 20.3656 10.5166 17.7834C11.0094 17.5362 11.5037 17.3162 11.9592 17.1396C12.3379 16.9929 12.6751 16.879 12.9366 16.8092C13.0237 17.1026 13.1165 17.6268 13.2237 18.3837C13.4011 19.6152 13.5423 21.3273 13.6495 23.5192C12.7095 24.1031 11.8352 24.7099 11.0323 25.3408Z" fill="#B1E6F4"/>
<path fill-rule="evenodd" clip-rule="evenodd" d="M10.6409 19.8824C10.5966 19.188 10.5567 18.4879 10.5166 17.7837C11.0094 17.5365 11.5037 17.3165 11.9592 17.1399C12.3379 16.9932 12.6751 16.8793 12.9366 16.8095C13.0237 17.1029 13.1165 17.6271 13.2237 18.384C13.3079 18.9752 13.3853 19.6788 13.455 20.4963C12.8622 20.4593 12.2308 20.1757 11.548 19.6424C11.3266 19.6886 11.0224 19.772 10.6409 19.8824ZM20.4664 13.6696C20.7308 14.8439 21.2765 15.5347 22.1092 15.7419C23.7321 16.1856 25.0208 16.4626 25.9676 16.5722C26.5733 18.908 27.5805 20.5125 28.9935 21.3771C30.9676 21.4639 32.8649 21.6271 34.682 21.8641C35.6362 21.991 36.5689 22.1375 37.4789 22.3042C39.3106 21.0665 40.0605 19.3046 39.7348 17.0158C41.1904 17.4666 42.8947 18.0839 44.849 18.8611C45.1805 18.8881 45.4475 18.5713 45.6491 17.9038C42.7233 16.0886 38.2134 14.8708 33.7449 14.1636C27.9294 13.2458 22.3065 13.1226 20.4664 13.6696Z" fill="white"/>
<path fill-rule="evenodd" clip-rule="evenodd" d="M54.6207 59.0874C51.5549 58.2029 50.3107 57.8461 48.7506 57.3456C47.0007 57.0358 53.2321 36.2115 55.819 28.9282C56.1507 27.6869 59.069 28.6078 64.5805 31.6836C65.6849 33.1421 64.3463 39.4347 60.5649 50.5593C58.9517 55.9041 57.0203 59.8378 54.6207 59.0874Z" fill="black"/>
<path d="M96.6373 88.286C98.4672 90.8818 99.6015 94.4588 99.6015 98.3927C99.6015 102.33 98.4672 105.903 96.6373 108.503C94.753 111.172 92.5371 112.269 89.6186 112.269L89.7188 112.239C88.4173 112.293 87.1187 111.972 85.8245 111.282C86.4132 110.751 86.8818 110.477 87.2332 110.464C88.4002 110.721 89.7702 110.784 91.3389 110.657C91.5774 110.778 91.8316 110.974 92.0959 111.252C96.6473 108.632 98.1258 102.953 98.1258 98.3929C98.1258 97.6315 98.0786 96.8846 97.9959 96.1602C97.6744 96.0406 97.3601 95.9138 97.0516 95.7799C96.6274 95.1659 96.0373 93.6712 95.2917 91.2954C95.4361 90.8482 95.656 90.5747 95.9545 90.4749C93.4873 86.6072 90.556 85.0091 87.1532 85.68C87.2133 86.224 87.2532 86.6941 87.2703 87.0843C86.4635 88.176 85.3018 89.307 83.789 90.4749C82.9961 90.5647 82.3177 90.4878 81.7549 90.2415C83.4418 86.7845 86.1462 83.9216 90.3047 84.2123C92.9314 84.4054 95.1743 86.2107 96.6373 88.286ZM96.8715 98.4427C96.8715 99.3038 96.4929 100.942 96.3157 101.412C95.8572 103.07 95.0598 104.559 94.0627 105.62C93.0729 106.674 91.8742 107.318 90.5886 107.318C88.8486 107.318 87.2929 106.264 86.1857 104.562C85.1314 102.934 84.4787 100.705 84.4787 98.2561C84.4787 95.8034 85.1314 93.5746 86.1857 91.9492C87.2929 90.2443 88.8486 89.1939 90.5886 89.1939C91.9586 89.1939 93.2128 89.8441 94.2241 90.9524C95.217 92.0335 95.9798 93.5644 96.3826 95.34C96.4886 95.693 96.8715 97.1851 96.8715 98.4427ZM94.2173 95.6667C94.7185 95.6667 95.1813 95.8732 95.5558 96.2236C95.4515 96.0071 95.3315 95.797 95.1973 95.6062L95.1443 95.5263C95.1043 95.4729 95.0642 95.4231 95.023 95.3697C94.4174 94.6155 93.5915 94.1484 92.6844 94.1484C91.7744 94.1484 90.9472 94.6155 90.3416 95.3697C89.7158 96.1502 89.3317 97.2384 89.3317 98.4427C89.3317 99.647 89.7158 100.735 90.3416 101.516C90.9472 102.27 91.7744 102.737 92.6844 102.737C93.8058 102.737 94.6929 102.009 95.2942 101.135C95.3888 100.985 95.4757 100.825 95.5558 100.662C95.1813 101.011 94.7185 101.219 94.2173 101.219C92.9885 101.219 91.9944 99.9774 91.9944 98.4427C91.9944 96.908 92.9885 95.6667 94.2173 95.6667ZM92.6844 93.3172C93.38 93.3172 94.0359 93.5246 94.6116 93.8884C94.2644 93.0673 93.8187 92.3531 93.3 91.7897C92.5245 90.9388 91.5871 90.4416 90.5887 90.4416C89.3016 90.4416 88.1102 91.2756 87.233 92.6272C86.3058 94.0551 85.7301 96.0434 85.7301 98.2561C85.7301 100.465 86.3058 102.453 87.233 103.881C88.1102 105.232 89.3016 106.07 90.5887 106.07C91.5057 106.07 92.393 105.576 93.153 104.765C93.5716 104.321 93.9487 103.788 94.2744 103.187C93.7816 103.434 93.2471 103.571 92.6844 103.571C91.51 103.571 90.4487 102.981 89.6888 102.033C88.953 101.108 88.4945 99.8407 88.4945 98.4428C88.4945 97.0449 88.953 95.7766 89.6888 94.8529C90.4486 93.9049 91.51 93.3172 92.6844 93.3172ZM99.4372 87.0546C101.509 89.998 102.794 94.0452 102.794 98.5025C102.794 102.957 101.509 107.008 99.4372 109.947C97.3058 112.973 94.7959 114.215 91.4902 114.215C98.8587 112.223 101.124 104.505 101.124 98.5025C101.124 94.3919 99.9599 90.6852 98.0758 88.009C95.8901 84.9124 92.0989 82.1102 88.3304 83.4647C91.8416 81.1722 96.4429 82.8073 99.4372 87.0546Z" fill="black"/>
<path fill-rule="evenodd" clip-rule="evenodd" d="M29.7524 104.335C24.8368 102.499 22.1325 97.1974 23.9139 91.3122C24.3582 90.291 21.9925 88.9699 21.6712 89.5433C20.0611 92.8604 20.5868 97.5985 22.2968 101.191C23.907 104.575 26.4667 106.427 29.338 107.067C29.7366 107.178 30.1881 106.58 30.6939 105.272C30.6765 105.028 30.3625 104.715 29.7524 104.335Z" fill="#B1BDBD"/>
</svg>
