<svg width="16" height="16" viewBox="0 0 16 16" fill="none" xmlns="http://www.w3.org/2000/svg">
<path fill-rule="evenodd" clip-rule="evenodd" d="M10.1571 13C9.86507 13.3103 9.59374 13.5783 9.36141 13.796C9.35974 13.7977 9.35774 13.7993 9.35607 13.801C8.59007 14.509 7.40874 14.509 6.64274 13.8013C6.64074 13.7997 6.63907 13.798 6.63707 13.7963C6.40507 13.5783 6.13341 13.3103 5.84141 13H4.07807C3.95174 13 3.83641 13.0713 3.78007 13.1843L3.11341 14.5177C3.06174 14.621 3.06707 14.7437 3.12774 14.842C3.18874 14.9403 3.29574 15 3.41141 15H12.5874C12.7031 15 12.8101 14.9403 12.8711 14.842C12.9317 14.7437 12.9371 14.621 12.8854 14.5177L12.2187 13.1843C12.1624 13.0713 12.0471 13 11.9207 13H10.1571Z" fill="#2A567D"/>
<path fill-rule="evenodd" clip-rule="evenodd" d="M8 1C10.7597 1 13 3.24033 13 6C13 9.06667 10.242 12.057 8.906 13.3097C8.90533 13.3103 8.90467 13.311 8.90433 13.3113C8.39367 13.7833 7.60633 13.7833 7.09567 13.3117C7.095 13.311 7.09433 13.3107 7.094 13.31C5.758 12.057 3 9.06667 3 6C3 3.24033 5.24033 1 8 1ZM8 4.33333C7.08 4.33333 6.33333 5.08 6.33333 6C6.33333 6.92 7.08 7.66667 8 7.66667C8.92 7.66667 9.66667 6.92 9.66667 6C9.66667 5.08 8.92 4.33333 8 4.33333Z" fill="#F26B35"/>
</svg>
