<svg width="36" height="36" viewBox="0 0 36 36" fill="none" xmlns="http://www.w3.org/2000/svg">
<path d="M21.79 9.93816C21.79 12.0283 20.0893 13.7296 17.9985 13.7296C15.9077 13.7296 14.207 12.0283 14.207 9.93816C14.207 7.84735 15.9077 6.146 17.9985 6.146C20.0893 6.146 21.79 7.84735 21.79 9.93816Z" fill="#F26B35"/>
<path d="M26.142 3.94608C24.2052 1.47565 21.1639 0 17.9989 0C14.8338 0 11.7925 1.47565 9.85568 3.94608C7.67135 6.73214 7.28048 10.0898 8.42855 13.3709C9.53231 16.5254 11.8762 19.1554 13.7926 21.8663C14.7023 23.1536 16.2567 25.3519 17.1995 26.6863C17.5897 27.2381 18.408 27.2381 18.7982 26.6863C19.7409 25.3519 21.2953 23.1536 22.205 21.8663C24.1215 19.1554 26.4654 16.5253 27.5691 13.3709C28.7172 10.0898 28.3264 6.73221 26.142 3.94608ZM17.9989 15.8385C14.7452 15.8385 12.0983 13.1916 12.0983 9.93804C12.0983 6.68447 14.7452 4.03678 17.9989 4.03678C21.2525 4.03678 23.8994 6.6844 23.8994 9.93804C23.8994 13.1917 21.2525 15.8385 17.9989 15.8385Z" fill="#F26B35"/>
<path d="M28.5026 28.9767C28.5026 29.3387 28.317 29.6748 28.0112 29.8681L18.5625 35.8368C18.3903 35.9458 18.1948 35.9999 17.9994 35.9999C17.8039 35.9999 17.6085 35.9458 17.4362 35.8368L7.98751 29.8681C7.68172 29.6747 7.49609 29.3387 7.49609 28.9767C7.49609 28.6146 7.68172 28.2785 7.98751 28.0852L13.2539 24.7585L15.4776 27.9039C16.0555 28.7208 16.9983 29.2094 17.9994 29.2094C19.0005 29.2094 19.9432 28.7208 20.5211 27.9039L21.9546 25.8757L22.7441 24.7585L28.0112 28.0852C28.317 28.2785 28.5026 28.6146 28.5026 28.9767Z" fill="#2A567D"/>
</svg>
