<svg width="16" height="24" viewBox="0 0 16 24" fill="none" xmlns="http://www.w3.org/2000/svg">
<ellipse cx="8.00223" cy="7.19949" rx="5.59988" ry="5.59988" fill="white"/>
<path d="M15.1217 8.43492C15.1217 4.4819 11.936 1.27734 8.00618 1.27734C4.07637 1.27734 0.890625 4.4819 0.890625 8.43492C0.890625 8.51236 0.89228 8.5894 0.894715 8.66626C0.89228 8.74308 0.890625 8.82013 0.890625 8.89758C0.890625 12.8506 8.00618 20.9253 8.00618 20.9253C8.00618 20.9253 15.1217 12.8506 15.1217 8.89758C15.1217 8.82013 15.1201 8.74308 15.1177 8.66626C15.1201 8.58942 15.1217 8.51236 15.1217 8.43492ZM8.00618 12.2723C5.36141 12.2723 3.21737 10.1156 3.21737 7.45518C3.21737 4.79477 5.36139 2.6381 8.00618 2.6381C10.651 2.6381 12.795 4.79476 12.795 7.45518C12.795 10.1156 10.651 12.2723 8.00618 12.2723Z" fill="#F26B35"/>
<path d="M15.9997 8.04707C15.9997 3.6028 12.418 0 7.99982 0C3.58164 0 0 3.6028 0 8.04707C0 8.13413 0.00185754 8.22073 0.00458907 8.30717C0.00185754 8.39354 0 8.48016 0 8.56724C0 8.59947 0.000515066 8.63202 0.00134233 8.66476C0.0587045 4.27016 3.61742 0.725304 7.99982 0.725304C12.3822 0.725304 15.9409 4.27016 15.9983 8.66476C15.9991 8.63204 15.9997 8.59947 15.9997 8.56724C15.9997 8.48014 15.9978 8.39354 15.9951 8.30717C15.9978 8.22075 15.9997 8.13413 15.9997 8.04707Z" fill="#2A567D"/>
<path d="M7.99753 11.5571C10.1837 11.5571 11.956 9.77435 11.956 7.57523C11.956 7.48561 11.9528 7.39675 11.947 7.30859C11.8106 9.38336 10.0946 11.0238 7.99753 11.0238C5.90044 11.0238 4.1845 9.38336 4.04808 7.30859C4.04229 7.39675 4.03906 7.48561 4.03906 7.57523C4.03905 9.77435 5.81133 11.5571 7.99753 11.5571Z" fill="#2A567D"/>
<path d="M11.8893 20.9258C13.021 21.1718 13.7299 21.5236 13.7299 21.9144C13.7299 22.658 11.1649 23.2607 8.00081 23.2607C4.83671 23.2607 2.27171 22.658 2.27171 21.9144C2.27171 21.5236 2.98058 21.1718 4.11234 20.9258C2.16794 21.2244 0.882812 21.7404 0.882812 22.3269C0.882812 23.2507 4.06967 23.9997 8.00079 23.9997C11.9319 23.9997 15.1188 23.2507 15.1188 22.3269C15.1188 21.7404 13.8337 21.2244 11.8893 20.9258Z" fill="#2A567D"/>
<path d="M9.64293 20.9258C10.1203 21.0295 10.4194 21.178 10.4194 21.3428C10.4194 21.6565 9.33736 21.9108 8.00262 21.9108C6.66789 21.9108 5.58589 21.6565 5.58589 21.3428C5.58589 21.178 5.88492 21.0295 6.36233 20.9258C5.54212 21.0517 5 21.2694 5 21.5168C5 21.9065 6.34432 22.2225 8.00261 22.2225C9.66091 22.2225 11.0052 21.9065 11.0052 21.5168C11.0052 21.2694 10.4631 21.0517 9.64293 20.9258Z" fill="#2A567D"/>
</svg>
