<svg width="16" height="16" viewBox="0 0 16 16" fill="none" xmlns="http://www.w3.org/2000/svg">
<g clip-path="url(#clip0_342_40643)">
<path d="M15.8603 3.17871L11.0078 7.99993L15.8603 12.8211C15.948 12.6378 16.0012 12.4351 16.0012 12.2187V3.78118C16.0012 3.56471 15.948 3.36205 15.8603 3.17871Z" fill="#F26B35"/>
<path d="M14.5947 2.375H1.40716C1.19069 2.375 0.988031 2.42822 0.804688 2.51594L7.00666 8.68666C7.55503 9.23503 8.44678 9.23503 8.99516 8.68666L15.1971 2.51594C15.0138 2.42822 14.8111 2.375 14.5947 2.375Z" fill="#2A567D"/>
<path d="M0.140938 3.17871C0.0532188 3.36205 0 3.56471 0 3.78118V12.2187C0 12.4351 0.0532188 12.6378 0.140938 12.8211L4.99341 7.99993L0.140938 3.17871Z" fill="#F26B35"/>
<path d="M10.3447 8.66284L9.658 9.3495C8.74428 10.2632 7.2575 10.2632 6.34378 9.3495L5.65716 8.66284L0.804688 13.4841C0.988031 13.5718 1.19069 13.625 1.40716 13.625H14.5947C14.8111 13.625 15.0138 13.5718 15.1971 13.4841L10.3447 8.66284Z" fill="#F26B35"/>
</g>
<defs>
<clipPath id="clip0_342_40643">
<rect width="16" height="16" fill="white"/>
</clipPath>
</defs>
</svg>
