<svg width="40" height="40" viewBox="0 0 40 40" fill="none" xmlns="http://www.w3.org/2000/svg">
<path d="M19.8972 13.5797C19.2818 13.4156 18.6254 13.3336 17.9485 13.3336C13.1486 13.3336 9.23067 17.2515 9.23067 22.0514C9.23067 26.8514 13.1486 30.7693 17.9485 30.7693C22.7485 30.7693 26.6664 26.8514 26.6664 22.0514C26.6664 21.3745 26.5843 20.7181 26.4202 20.1027L21.21 25.3129C20.3485 26.195 19.1793 26.6668 17.9485 26.6668C16.7178 26.6668 15.5485 26.195 14.687 25.3129C12.8819 23.5078 12.8819 20.595 14.687 18.7899L19.8972 13.5797ZM32.3073 18.4617C31.6099 18.4617 30.892 18.2976 30.2561 17.9694L29.1074 17.4156L28.8817 17.6412C29.4356 18.9951 29.7433 20.4925 29.7433 22.0514C29.7433 28.5539 24.451 33.8462 17.9485 33.8462C11.446 33.8462 6.15378 28.5539 6.15378 22.0514C6.15378 15.5489 11.446 10.2567 17.9485 10.2567C19.5075 10.2567 21.0049 10.5644 22.3587 11.1182L22.5844 10.8926L22.0305 9.76438C21.1895 8.10286 21.4357 6.11314 22.6254 4.71828C21.128 4.30803 19.569 4.10291 17.9485 4.10291C8.04094 4.10291 0 12.1438 0 22.0514C0 31.959 8.04094 39.9999 17.9485 39.9999C27.8561 39.9999 35.897 31.959 35.897 22.0514C35.897 20.4309 35.6919 18.872 35.2817 17.3746C34.4612 18.072 33.3945 18.4617 32.3073 18.4617Z" fill="#F26B35"/>
<path d="M39.5479 8.77983C39.8986 8.42907 40.0586 7.93472 39.9786 7.44652C39.9007 6.95626 39.593 6.53576 39.1499 6.31627L35.5069 4.49475L33.6854 0.851716C33.4638 0.408644 33.0433 0.0989036 32.5551 0.0209557C32.0669 -0.0610947 31.5705 0.100955 31.2218 0.45172L25.068 6.6055C24.5983 7.07319 24.4813 7.78908 24.7788 8.37984L26.3336 11.4916L16.8609 20.9643C16.2599 21.5653 16.2599 22.5397 16.8609 23.1407C17.1604 23.4422 17.5542 23.592 17.9481 23.592C18.3419 23.592 18.7358 23.4402 19.0353 23.1407L28.508 13.668L31.6197 15.2228C31.8372 15.3316 32.0731 15.3849 32.3069 15.3849C32.7049 15.3849 33.0987 15.231 33.3941 14.9336L39.5479 8.77983Z" fill="#2A567D"/>
</svg>
