<svg width="16" height="14" viewBox="0 0 16 14" fill="none" xmlns="http://www.w3.org/2000/svg">
<path d="M10.5 0H5.49999C4.55228 0 3.78125 0.767604 3.78125 1.71111V12.2889C3.78125 13.2324 4.55228 14 5.49999 14H10.5C11.4477 14 12.2187 13.2324 12.2187 12.2889V1.71111C12.2187 0.767604 11.4477 0 10.5 0ZM8.62498 12.7556H7.37498C7.11611 12.7556 6.90623 12.5466 6.90623 12.2889C6.90623 12.0312 7.11611 11.8222 7.37498 11.8222H8.62498C8.88385 11.8222 9.09372 12.0312 9.09372 12.2889C9.09372 12.5466 8.88385 12.7556 8.62498 12.7556ZM8.62498 2.17778H7.37498C7.11611 2.17778 6.90623 1.96884 6.90623 1.71111C6.90623 1.45339 7.11611 1.24444 7.37498 1.24444H8.62498C8.88385 1.24444 9.09372 1.45339 9.09372 1.71111C9.09372 1.96884 8.88385 2.17778 8.62498 2.17778Z" fill="#F26B35"/>
<path d="M15.3199 3.97957C15.1975 3.75245 14.9134 3.66708 14.6852 3.78892C14.4571 3.91075 14.3713 4.19361 14.4937 4.42072V4.42075C14.8605 5.10159 15.0626 6.0175 15.0626 6.99971C15.0626 7.98192 14.8604 8.89814 14.4933 9.57953V9.57957C14.3709 9.80668 14.4566 10.0895 14.6848 10.2114H14.6848C14.9129 10.3332 15.197 10.2478 15.3194 10.0207C15.7584 9.20605 16.0001 8.13315 16.0001 6.99971C16.0001 5.86627 15.7585 4.79368 15.3199 3.97957Z" fill="#2A567D"/>
<path d="M13.102 4.73393C12.8803 4.86708 12.8091 5.15393 12.9428 5.3746C13.2014 5.80119 13.3438 6.3784 13.3438 6.99987C13.3438 7.62135 13.2013 8.19874 12.9425 8.62571C12.8087 8.84638 12.88 9.13319 13.1016 9.26638C13.3233 9.39957 13.6114 9.3286 13.7452 9.10793C14.0909 8.53751 14.2813 7.78885 14.2813 6.99987C14.2813 6.2109 14.091 5.46242 13.7455 4.89238C13.6118 4.6717 13.3236 4.60077 13.102 4.73393Z" fill="#2A567D"/>
<path d="M1.50681 9.57935C1.13968 8.89793 0.937495 7.98173 0.937495 6.99949C0.937495 6.01725 1.13953 5.10137 1.50637 4.42051C1.62874 4.1934 1.54299 3.9105 1.31487 3.78867C1.08674 3.66684 0.80259 3.75221 0.680215 3.97932C0.241561 4.79347 0 5.86605 0 6.99949C0 8.13293 0.241718 9.20583 0.680684 10.0205C0.803059 10.2476 1.08718 10.333 1.31531 10.2112C1.54343 10.0894 1.62918 9.80646 1.50681 9.57935Z" fill="#2A567D"/>
<path d="M2.65625 6.99987C2.65625 6.3784 2.79865 5.80122 3.05724 5.3746C3.19099 5.15393 3.11974 4.86711 2.89809 4.73393C2.67643 4.60077 2.38831 4.6717 2.25456 4.89238C1.90903 5.46242 1.71875 6.21086 1.71875 6.99987C1.71875 7.78888 1.90916 8.53751 2.2549 9.10793C2.38865 9.3286 2.67678 9.39954 2.89843 9.26638C3.12009 9.13322 3.19134 8.84638 3.05759 8.62571C2.79878 8.19874 2.65625 7.62132 2.65625 6.99987Z" fill="#2A567D"/>
</svg>
