<svg width="113" height="99" viewBox="0 0 113 99" fill="none" xmlns="http://www.w3.org/2000/svg">
<path d="M28.2349 80.3676L28.6399 82.3498C28.2317 82.0649 27.829 81.7709 27.4321 81.4679C24.1023 78.9248 21.1894 75.7544 18.8727 72.1071L19.3726 69.8076C22.3353 67.9116 23.5547 65.7356 23.8 63.3069C24.0459 60.8745 23.3336 58.1553 22.4078 55.2031C20.3379 57.5026 18.5589 59.6784 17.7718 61.9898C16.9861 64.2972 17.1871 66.7788 19.081 69.7287L18.6434 71.7419C17.6442 70.1275 16.7611 68.422 16.0094 66.6384C14.9526 64.131 14.1552 61.4684 13.6597 58.6851L15.0713 56.6722C18.5323 56.0748 20.4984 54.5434 21.666 52.4009C22.8356 50.2553 23.2336 47.4721 23.5254 44.3921C20.7267 45.7067 18.2432 47.0215 16.6205 48.8471C15.0009 50.6695 14.2237 53.0365 14.8278 56.495L13.587 58.2645C12.943 54.3979 12.8803 50.3044 13.5102 46.0766L15.2096 44.7143C18.7159 45.1178 21.0391 44.1974 22.7635 42.4631C24.4847 40.732 25.6443 38.1716 26.7854 35.2958C23.73 35.7746 20.978 36.3416 18.9125 37.6382C16.8539 38.9308 15.4486 40.9783 15.0576 44.4503L13.5783 45.6361C14.0789 42.5084 14.9582 39.3098 16.2629 36.0764C16.6301 35.2583 17.0194 34.451 17.4297 33.6559L19.4709 32.7363C22.7318 33.9726 25.1925 33.6573 27.2817 32.4162C29.3817 31.1689 31.1433 28.9796 32.9649 26.4803C29.8863 26.1809 27.0799 26.0423 24.7545 26.7825C22.4235 27.5248 20.5424 29.1737 19.2979 32.4834L17.6557 33.2233C19.979 28.8292 22.9551 24.8053 26.4681 21.2943L28.2968 21.3071C30.8101 23.8233 33.2139 24.5488 35.6528 24.2556C38.0776 23.9641 40.5728 22.6737 43.2481 21.1247C40.5542 19.606 38.0438 18.3445 35.6172 18.0812C33.2104 17.82 30.8489 18.5486 28.4028 21.007L26.7693 20.9955C26.9405 20.8272 27.113 20.66 27.2869 20.494C30.0141 17.8904 33.0459 15.5881 36.3314 13.6489C39.4294 14.8978 41.8303 14.6585 43.9106 13.5261C46.055 12.3589 47.8977 10.2367 49.8123 7.80677C46.7476 7.39218 43.9483 7.14857 41.5967 7.801C39.333 8.4294 37.453 9.90895 36.0962 12.9133C34.1249 14.068 32.2431 15.3512 30.4609 16.7497L30.7609 14.7757C33.6039 12.6925 34.6846 10.4412 34.7751 7.9987C34.8659 5.55792 33.9813 2.88843 32.8693 0C30.9513 2.42476 29.3149 4.709 28.6759 7.06839C28.0391 9.41968 28.3959 11.8811 30.4675 14.7005L30.1144 17.024C28.9548 17.9508 27.8383 18.9266 26.7681 19.9485C24.6462 21.974 22.7059 24.1797 20.969 26.5369L20.7463 24.4696C22.939 21.7381 23.4006 19.2923 22.8631 16.9159C22.3249 14.5344 20.7857 12.1825 18.9707 9.67735C17.7377 12.5161 16.7413 15.1454 16.729 17.5858C16.7168 20.0285 17.7003 22.3225 20.4489 24.5225L20.7049 26.8983C18.7014 29.6691 16.9778 32.6448 15.5712 35.7802L15.5654 35.7935C15.2054 36.6855 14.8771 37.5751 14.5799 38.4615L13.7299 36.9031C14.721 33.5301 14.2153 31.0886 12.8098 29.0949C11.402 27.0982 9.08166 25.5127 6.44772 23.8913C6.39189 26.9846 6.47508 29.7948 7.39701 32.0593C8.31624 34.3183 10.0959 36.0599 13.4633 37.0433L14.4508 38.8535C12.8984 43.621 12.2368 48.2908 12.3238 52.7449L10.9587 51.4345C10.8888 47.9097 9.66898 45.7307 7.72388 44.2523C5.78028 42.7756 3.0894 41.9655 0.0885736 41.2162C0.969374 44.183 1.89689 46.8373 3.4576 48.7153C5.01337 50.5871 7.23128 51.7091 10.7296 51.6324L12.3345 53.1726C12.4703 57.6395 13.3596 61.884 14.8567 65.7863L13.2844 64.9687C12.2255 61.6428 10.4497 59.9093 8.17992 59.0425C5.8978 58.1713 3.08885 58.1508 0 58.2757C1.67823 60.8742 3.31365 63.1603 5.33951 64.5238C7.36909 65.89 9.82809 66.3401 13.1913 65.2602L15.0234 66.2132C15.1187 66.4534 15.2164 66.6927 15.3166 66.9303C16.9818 70.8816 19.2779 74.4554 22.0461 77.5211L20.5233 77.1807C18.6463 74.2366 16.485 73.0175 14.0691 72.7633C11.6422 72.5079 8.92133 73.2103 5.96694 74.1249C8.25622 76.2059 10.4241 77.9951 12.7294 78.7916C15.0424 79.5908 17.5353 79.394 20.5088 77.4859L22.4004 77.9089C23.814 79.4305 25.3455 80.822 26.9747 82.0663C29.1271 83.7102 31.4508 85.0976 33.8984 86.1901L32.337 86.5581C29.3596 84.7178 26.8787 84.5606 24.5889 85.3862C22.2946 86.2139 20.1513 88.0321 17.8906 90.1435C20.8562 91.0181 23.5855 91.6835 26.0094 91.3954C28.4344 91.1071 30.5889 89.8474 32.4318 86.8457L34.3586 86.3919C37.4708 87.7259 40.7767 88.5849 44.1821 88.8917C45.4769 89.0083 46.7799 89.0289 48.0876 88.9552L46.6324 90.0276C43.2 89.5178 40.87 90.3458 39.0958 91.9955C37.3071 93.6584 36.0477 96.1715 34.7944 99C37.8648 98.6418 40.6363 98.1835 42.7548 96.9668C44.8826 95.7449 46.3752 93.7279 46.8887 90.2132L48.6469 88.9177C51.2553 88.717 53.8814 88.1397 56.4993 87.1924C59.1175 88.1404 61.7441 88.717 64.3532 88.9177L66.1114 90.2132C66.6249 93.728 68.1174 95.7449 70.2453 96.9668C72.3637 98.1837 75.1353 98.6418 78.2057 99C76.9524 96.1715 75.693 93.6584 73.9042 91.9955C72.13 90.3458 69.8001 89.5178 66.3676 90.0276L64.9124 88.9552C66.2202 89.0291 67.5232 89.0083 68.818 88.8917C72.2234 88.585 75.5292 87.726 78.6415 86.3919L80.5683 86.8457C82.4112 89.8474 84.5657 91.1072 86.9907 91.3954C89.4147 91.6835 92.1439 91.0181 95.1095 90.1435C92.8487 88.0322 90.7055 86.2139 88.4111 85.3862C86.1213 84.5606 83.6404 84.7178 80.663 86.5581L79.1016 86.1901C81.5491 85.0976 83.8729 83.7102 86.0253 82.0663C87.6546 80.822 89.1859 79.4305 90.5995 77.9089L92.4912 77.4859C95.4646 79.394 97.9575 79.5908 100.271 78.7916C102.576 77.9951 104.744 76.2058 107.033 74.1249C104.079 73.2103 101.358 72.508 98.9308 72.7633C96.5149 73.0176 94.3536 74.2366 92.4766 77.1807L90.9539 77.5211C93.7219 74.4554 96.0179 70.8815 97.6834 66.9303C97.7836 66.6929 97.8811 66.4535 97.9766 66.2132L99.8087 65.2602C103.172 66.3401 105.631 65.89 107.66 64.5238C109.686 63.1604 111.322 60.8742 113 58.2757C109.911 58.1508 107.102 58.1713 104.82 59.0425C102.55 59.9093 100.774 61.6428 99.7155 64.9687L98.1433 65.7863C99.6405 61.884 100.53 57.6395 100.665 53.1726L102.27 51.6324C105.769 51.7091 107.987 50.5872 109.542 48.7153C111.103 46.8373 112.031 44.183 112.911 41.2162C109.911 41.9655 107.22 42.7756 105.276 44.2523C103.331 45.7308 102.111 47.9097 102.041 51.4345L100.676 52.7449C100.763 48.2908 100.102 43.6211 98.5493 38.8535L99.5368 37.0433C102.904 36.0599 104.684 34.3183 105.603 32.0593C106.525 29.7948 106.608 26.9847 106.552 23.8913C103.918 25.5127 101.598 27.0983 100.19 29.0949C98.7847 31.0886 98.279 33.53 99.2702 36.9031L98.4202 38.4615C98.1228 37.5751 97.7946 36.6855 97.4347 35.7935L97.4289 35.7802C96.0222 32.6448 94.2985 29.6691 92.295 26.8983L92.551 24.5225C95.2996 22.3224 96.2831 20.0285 96.271 17.5858C96.2586 15.1454 95.2623 12.5161 94.0293 9.67735C92.2144 12.1826 90.6751 14.5343 90.1369 16.9159C89.5995 19.2923 90.0611 21.7382 92.2538 24.4696L92.031 26.5369C90.2941 24.1797 88.3539 21.9741 86.2319 19.9485C85.1618 18.9266 84.0452 17.951 82.8856 17.024L82.5324 14.7005C84.6041 11.8811 84.9609 9.41968 84.324 7.06839C83.6849 4.709 82.0488 2.42467 80.1307 0C79.0186 2.88843 78.134 5.55792 78.2249 7.9987C78.3154 10.4412 79.396 12.6925 82.2391 14.7757L82.5391 16.7497C80.757 15.3511 78.8753 14.0679 76.9038 12.9133C75.547 9.90886 73.6671 8.4294 71.4034 7.801C69.0517 7.14857 66.2524 7.39218 63.1878 7.80677C65.1024 10.2367 66.9451 12.3588 69.0894 13.5261C71.1697 14.6585 73.5706 14.8978 76.6686 13.6489C79.9541 15.5883 82.9859 17.8904 85.7131 20.494C85.887 20.66 86.0596 20.8271 86.2308 20.9955L84.5973 21.007C82.1513 18.5486 79.7897 17.82 77.3829 18.0812C74.9561 18.3445 72.4459 19.6061 69.7519 21.1247C72.4273 22.6736 74.9224 23.9639 77.3473 24.2556C79.7861 24.5488 82.1898 23.8233 84.7032 21.3071L86.532 21.2943C90.0451 24.8054 93.021 28.8292 95.3443 33.2233L93.7022 32.4834C92.4577 29.1737 90.5766 27.5247 88.2455 26.7825C85.9201 26.0422 83.1136 26.1808 80.0352 26.4803C81.8568 28.9794 83.6184 31.1688 85.7184 32.4162C87.8076 33.6573 90.2683 33.9726 93.5291 32.7363L95.5703 33.6559C95.9806 34.4509 96.3699 35.2583 96.7371 36.0764C98.0417 39.3098 98.921 42.5084 99.4216 45.6361L97.9424 44.4503C97.5513 40.9783 96.146 38.9308 94.0873 37.6382C92.022 36.3416 89.27 35.7747 86.2145 35.2958C87.3557 38.1715 88.5153 40.732 90.2365 42.4631C91.9608 44.1974 94.284 45.1178 97.7904 44.7143L99.4898 46.0766C100.12 50.3044 100.057 54.398 99.413 58.2645L98.1722 56.495C98.7764 53.0365 97.9991 50.6694 96.3794 48.8471C94.7566 47.0215 92.2732 45.7068 89.4745 44.3921C89.7663 47.4721 90.1641 50.2554 91.3338 52.4009C92.5015 54.5434 94.4676 56.0748 97.9285 56.6722L99.3402 58.6851C98.8448 61.4684 98.0472 64.131 96.9905 66.6384C96.2388 68.422 95.3557 70.1277 94.3565 71.7419L93.9189 69.7287C95.8128 66.7788 96.0138 64.2972 95.2281 61.9898C94.441 59.6784 92.662 57.5024 90.5921 55.2031C89.6664 58.1552 88.9539 60.8745 89.1998 63.3069C89.4452 65.7357 90.6646 67.9118 93.6272 69.8076L94.1272 72.1071C91.8105 75.7543 88.8975 78.9247 85.5677 81.4679C85.171 81.7709 84.768 82.0649 84.36 82.3498L84.7651 80.3676C87.684 78.4342 88.8672 76.2453 89.0779 73.8181C89.2894 71.3818 88.5389 68.6731 87.5723 65.7352C85.5358 68.0624 83.7878 70.263 83.0329 72.5879C82.2781 74.9115 82.5171 77.3967 84.4659 80.3292L84.0027 82.5956C80.4636 85.0006 76.517 86.7226 72.3572 87.6008L73.3438 85.8813C76.7111 84.9618 78.5167 83.2581 79.4768 81.0243C80.4424 78.778 80.5799 75.9705 80.5841 72.8777C77.9198 74.4474 75.5692 75.9871 74.1237 77.9557C72.6755 79.9277 72.123 82.3665 73.0587 85.7718L71.9633 87.6811C70.9052 87.8904 69.8339 88.045 68.7526 88.1423C65.0752 88.4734 61.3298 88.0106 57.5934 86.7743C57.9925 86.6141 58.3913 86.4449 58.7896 86.2673C61.9655 87.0138 64.27 86.431 66.1421 85.0327C68.0985 83.5716 69.6198 81.2082 71.1687 78.53C68.0779 78.5568 65.2732 78.7152 63.0365 79.6974C60.8568 80.655 59.1917 82.4209 58.284 85.6678C57.69 85.928 57.0949 86.169 56.4996 86.3902C55.9041 86.169 55.3093 85.928 54.715 85.6675C53.8073 82.4203 52.1422 80.655 49.9625 79.6974C47.7259 78.7153 44.9212 78.5568 41.8304 78.5301C43.3793 81.2084 44.9005 83.5717 46.857 85.0328C48.729 86.4311 51.0336 87.0141 54.2094 86.2674C54.6078 86.4449 55.0066 86.6141 55.4056 86.7744C51.6692 88.011 47.9236 88.4735 44.2465 88.1425C43.1651 88.0452 42.0936 87.8902 41.0357 87.6812L39.9404 85.772C40.8762 82.3667 40.3235 79.9278 38.8753 77.9559C37.4298 75.9873 35.0792 74.4476 32.4149 72.8779C32.4189 75.9707 32.5567 78.7781 33.5222 81.0245C34.4823 83.2583 36.2877 84.9621 39.6553 85.8815L40.6419 87.601C36.4823 86.7227 32.5356 85.0005 28.9962 82.5957L28.5331 80.3294C30.482 77.397 30.7209 74.9117 29.9662 72.5882C29.2113 70.2631 27.4633 68.0626 25.4268 65.7354C24.4602 68.6733 23.7095 71.3819 23.9212 73.8182C24.1319 76.2455 25.316 78.4341 28.2349 80.3676Z" fill="#2A567D"/>
<path d="M61.7749 62.3858H70.6117L70.6116 68.2581H44.8418V62.3858H53.3362V37.5764H44.8418V31.7037C50.3559 31.7037 54.1247 29.5478 55.2365 23.8738H61.7749V62.3858Z" fill="#F26B35"/>
</svg>
