<svg width="16" height="16" viewBox="0 0 16 16" fill="none" xmlns="http://www.w3.org/2000/svg">
<path d="M15.6531 12.2057C15.1537 11.7869 12.2246 9.932 11.7377 10.0171C11.5091 10.0577 11.3343 10.2526 10.8663 10.8109C10.6499 11.0856 10.4122 11.343 10.1554 11.5806C9.68502 11.4669 9.22968 11.2982 8.79886 11.0777C7.1093 10.2551 5.74436 8.8898 4.92229 7.2C4.70185 6.76918 4.53306 6.31384 4.41943 5.84343C4.65699 5.58668 4.91435 5.349 5.18914 5.13257C5.74686 4.66457 5.94229 4.49086 5.98286 4.26114C6.068 3.77314 4.21143 0.845143 3.79429 0.345714C3.61943 0.138857 3.46057 0 3.25714 0C2.66743 0 0 3.29829 0 3.72571C0 3.76057 0.0571428 7.19429 4.39371 11.6063C8.80571 15.9429 12.2394 16 12.2743 16C12.7017 16 16 13.3326 16 12.7429C16 12.5394 15.8611 12.3806 15.6531 12.2057Z" fill="#F26B35"/>
<path d="M11.9999 7.42836H13.1427C13.1414 6.21636 12.6593 5.05439 11.8023 4.19738C10.9453 3.34036 9.78329 2.85829 8.57129 2.85693V3.99979C9.48032 4.0007 10.3519 4.36221 10.9947 5.005C11.6374 5.64778 11.999 6.51933 11.9999 7.42836Z" fill="white"/>
<path d="M14.857 7.42857H15.9999C15.9976 5.45909 15.2142 3.57092 13.8216 2.17828C12.4289 0.785648 10.5408 0.00226856 8.57129 0V1.14286C10.2378 1.14482 11.8354 1.8077 13.0138 2.98607C14.1922 4.16445 14.855 5.7621 14.857 7.42857Z" fill="white"/>
</svg>
