<svg width="66" height="50" viewBox="0 0 66 50" fill="none" xmlns="http://www.w3.org/2000/svg">
<g clip-path="url(#clip0_328_109106)">
<path d="M-0.000274106 12.6814C0.483243 12.2495 1.0013 12.6814 1.34667 12.9578C1.22579 13.3034 1.0013 13.5453 0.880421 13.8908C0.241488 13.9254 0.103337 13.4416 -0.000274085 12.9233L-0.000273528 19.2986C0.0688011 19.2122 0.137876 19.1258 0.189681 19.0221C0.690467 19.2294 0.880418 20.2833 -0.000273449 20.197L-0.000272665 29.1638L12.0186 29.1638L12.0186 31.3062C12.0186 35.85 8.54761 39.3227 3.72971 39.3227L-0.0175371 39.3227L-0.0175362 50L7.73599 50C20.0311 50 29.3906 43.0546 29.3906 31.0124L29.3906 0L-0.000275215 2.56943e-06L-0.000274106 12.6814ZM3.91967 41.1887C3.31527 41.2578 2.9181 41.1023 2.98717 40.4803C3.59157 40.4112 4.16143 40.3939 3.91967 41.1887ZM10.4471 16.2232C10.7925 16.3442 11.0343 16.5688 11.3796 16.6897C11.3278 17.3462 10.9652 17.6918 10.2054 17.6227C10.1708 17.0525 10.1708 16.4997 10.4471 16.2232ZM7.87414 19.2467C7.8396 19.9896 6.95891 19.886 6.23364 19.9551C6.64808 19.5923 6.94164 19.1085 7.87414 19.2467ZM3.91967 22.9786C3.67791 23.4969 2.36551 23.1686 2.52093 22.5121C2.81449 22.8404 3.6261 22.6503 3.91967 22.9786ZM0.172416 21.3545L1.34667 21.3545C1.58843 22.132 0.621395 21.7173 0.172416 21.821L0.172416 21.3545ZM8.1159 24.8445C7.97775 24.7408 7.94322 24.6372 7.94322 24.5162C7.94322 24.2225 8.20224 23.8597 7.87414 23.4451C8.25405 23.376 8.27131 23.6697 8.58215 23.6869C8.72029 24.188 8.4958 24.3435 8.32312 24.5335C8.23678 24.6199 8.15044 24.7063 8.1159 24.8618L8.1159 24.8445ZM11.6041 48.2032C12.0704 47.8058 11.8977 48.2205 12.5366 48.2032C12.7266 49.1016 11.4142 49.1016 11.6041 48.2032ZM12.7784 30.6842C12.2085 30.1659 13.5382 29.2847 13.9526 29.7512C13.4519 29.9413 13.4346 30.6323 12.7784 30.6842ZM16.2839 29.7512C15.6277 29.7858 15.8349 28.9565 14.8851 29.2847C15.265 28.8182 15.5068 28.1963 16.2839 28.1099C16.4393 28.3345 16.3357 29.7339 16.7501 28.5764C17.6653 28.801 16.612 29.4229 16.2839 29.7512ZM20.9464 33.4831C20.9809 32.9648 21.5335 32.982 22.1206 33.0166C22.0343 33.8459 21.5162 33.6213 20.9464 33.4831ZM21.6371 19.4886C22.3969 19.4368 22.7595 19.765 22.8113 20.4216C22.2588 20.2833 21.7234 20.1106 21.6371 19.4886ZM24.9181 19.2467C24.7281 18.7284 24.141 18.6247 24.2101 17.8473L24.9181 17.8473C25.3498 18.2619 24.7281 18.4347 24.9181 19.2467ZM25.6088 19.2467C25.6952 18.9357 26.0233 18.8839 26.0751 18.5384C27.0421 18.6939 26.1787 19.9896 25.6088 19.2467ZM23.9683 12.4741C23.5712 12.8887 23.0531 12.405 23.0358 11.7657C23.6402 11.6966 24.0374 11.8521 23.9683 12.4741ZM19.5476 16.2232C19.3577 16.7761 18.5288 16.0332 18.1489 15.9813C18.477 15.3075 19.3059 16.0505 19.5476 16.2232ZM11.8459 14.1154C12.174 14.1327 12.5021 14.15 12.5539 13.8735C12.9511 14.0636 12.5884 15.4457 11.8459 15.273L11.8459 14.0981L11.8459 14.1154ZM13.2446 15.7567C14.0908 16.4651 12.1913 16.396 12.0704 16.9316C11.1206 16.1196 13.2964 16.4651 13.2446 15.7567ZM9.73913 15.7567C9.89455 15.5667 10.1018 15.1175 9.73913 15.0484C10.1881 14.7201 10.758 14.5128 11.3796 14.34C10.8789 15.2212 10.3781 14.8411 9.73913 15.7395L9.73913 15.7567ZM9.73913 9.67519C9.8082 10.2799 9.65279 10.6773 9.03112 10.6082C8.73756 10.0553 9.06566 10.1762 8.78937 9.43331C9.27288 9.32965 9.41103 9.5888 9.72186 9.67519L9.73913 9.67519ZM8.58215 15.0484C9.63552 15.0484 8.61668 16.2923 8.58215 16.6897L6.94164 16.6897C7.21794 15.8777 8.91025 16.4824 8.58215 15.0484Z" fill="#F26B35" fill-opacity="0.2"/>
<path d="M41.4788 1.03663C40.7535 1.26123 41.0471 0.466482 41.0298 2.18296e-06L36.8854 2.54528e-06L36.8854 29.1465L48.9042 29.1465L48.9042 31.2889C48.9042 35.8328 45.4333 39.3055 40.3564 39.3055L36.8854 39.3055L36.8854 50L44.6389 50C48.0926 50 51.27 49.4299 54.0848 48.376C53.9294 47.4948 55.0345 47.2702 55.259 47.9095C57.1413 47.0802 58.8163 45.9917 60.2669 44.6959C59.5589 44.765 59.3689 44.0567 59.6797 43.7457C60.2496 43.6766 60.2841 44.1603 60.3705 44.5923C63.0989 42.1044 64.9639 38.7871 65.6719 34.727C65.5338 34.6234 65.3611 34.5715 65.0502 34.6579C65.3265 34.5715 65.551 34.3988 65.7582 34.1742C65.8964 33.1548 66 32.1182 66 31.0297L66 0.0172768L41.5306 0.0172789C41.8069 0.310991 41.8414 0.932966 41.4788 1.05391L41.4788 1.03663ZM44.967 44.2294C44.1382 44.3677 44.259 43.5384 44.259 42.83L44.967 42.83L44.967 44.2294ZM52.6688 47.9613C52.7724 47.754 52.876 47.5466 53.135 47.4948C52.9623 47.2702 52.7033 47.1493 52.427 47.0283C52.8414 45.4216 54.2747 48.255 52.6688 47.9613ZM57.573 45.387C58.0047 45.2661 58.7645 44.2813 59.2135 44.9205C59.4035 45.8017 58.1083 45.2142 57.573 45.387ZM63.876 26.9523C62.9089 26.7968 63.7724 25.501 64.3422 26.244C64.2559 26.5549 63.9278 26.6068 63.876 26.9523ZM38.9058 13.1824C39.5102 13.5798 38.5777 14.3918 38.9058 15.2903C38.0251 15.6358 38.4568 14.651 37.7316 14.8238C38.0597 14.2018 38.7159 13.9426 38.9058 13.1824ZM46.6075 20.888C46.0377 20.7498 45.416 20.6807 45.4333 19.9551C46.124 19.9551 46.7457 20.0415 46.6075 20.888ZM50.8038 21.3545C51.6499 21.2854 51.1146 22.5985 51.5118 22.9959C51.2009 23.2896 50.6484 23.2896 50.3375 22.9959C51.2182 22.3048 50.6138 22.0456 50.8038 21.3545ZM63.876 21.821C64.4458 21.9592 65.0675 22.0283 65.0502 22.754C64.7221 22.3912 63.8414 22.5639 63.876 21.821ZM62.7017 5.71873C63.3234 5.80511 63.7896 6.96268 62.7017 6.89357C62.5463 6.16793 62.5463 6.44437 62.7017 5.71873ZM63.6342 4.0774C63.7033 4.8376 63.3579 5.20042 62.7017 5.25225C62.7017 5.02765 62.4082 5.07947 62.2355 5.01036C62.2355 4.2329 62.8917 4.11196 63.6342 4.0774ZM49.1805 16.9143C49.0078 16.897 48.9042 16.9143 48.8352 17.0007C48.7834 17.0352 48.7316 17.0871 48.7143 17.1562C48.6452 17.1216 48.5934 17.0698 48.5416 17.018C48.3171 16.7934 48.2135 16.4651 48.248 15.9986C48.9733 15.895 49.2841 16.2059 49.1805 16.9316L49.1805 16.9143ZM45.4506 10.1417C45.675 10.1417 45.6232 10.4354 45.6923 10.6082C45.7268 11.0401 46.4867 10.7464 46.6248 11.0746C46.5039 11.4202 46.2794 11.6621 46.1586 12.0076C45.5024 12.1977 45.5542 11.6793 44.9843 11.7657C45.3469 11.0055 45.3297 10.7291 45.4506 10.1244L45.4506 10.1417Z" fill="#F26B35" fill-opacity="0.2"/>
</g>
<defs>
<clipPath id="clip0_328_109106">
<rect width="66" height="50" fill="white" transform="translate(66 50) rotate(180)"/>
</clipPath>
</defs>
</svg>
