<svg width="66" height="50" viewBox="0 0 66 50" fill="none" xmlns="http://www.w3.org/2000/svg">
<g clip-path="url(#clip0_328_109103)">
<path d="M66.0003 37.3186C65.5168 37.7505 64.9987 37.3186 64.6533 37.0422C64.7742 36.6966 64.9987 36.4547 65.1196 36.1092C65.7585 36.0746 65.8967 36.5584 66.0003 37.0767V30.7015C65.9312 30.7878 65.8621 30.8742 65.8103 30.9779C65.3095 30.7706 65.1196 29.7167 66.0003 29.803V20.8362H53.9814V18.6938C53.9814 14.15 57.4524 10.6773 62.2703 10.6773H66.0175V0L58.264 0C45.9689 0 36.6094 6.9454 36.6094 18.9876L36.6094 50L66.0003 50V37.3186ZM62.0803 8.81133C62.6847 8.74222 63.0819 8.89772 63.0128 9.5197C62.4084 9.58881 61.8386 9.60608 62.0803 8.81133ZM55.5529 33.7768C55.2075 33.6558 54.9657 33.4312 54.6204 33.3103C54.6722 32.6538 55.0348 32.3082 55.7946 32.3773C55.8292 32.9475 55.8292 33.5003 55.5529 33.7768ZM58.1259 30.7533C58.1604 30.0104 59.0411 30.114 59.7664 30.0449C59.3519 30.4077 59.0584 30.8915 58.1259 30.7533ZM62.0803 27.0214C62.3221 26.5031 63.6345 26.8314 63.4791 27.4879C63.1855 27.1596 62.3739 27.3497 62.0803 27.0214ZM65.8276 28.6455H64.6533C64.4116 27.868 65.3786 28.2827 65.8276 28.179V28.6455ZM57.8841 25.1555C58.0222 25.2592 58.0568 25.3628 58.0568 25.4838C58.0568 25.7775 57.7978 26.1403 58.1259 26.5549C57.746 26.6241 57.7287 26.3303 57.4179 26.3131C57.2797 25.812 57.5042 25.6565 57.6769 25.4665C57.7632 25.3801 57.8496 25.2937 57.8841 25.1382V25.1555ZM54.3959 1.79682C53.9296 2.19419 54.1023 1.77954 53.4634 1.79682C53.2734 0.89841 54.5858 0.89841 54.3959 1.79682ZM53.2216 19.3158C53.7915 19.8341 52.4618 20.7153 52.0474 20.2488C52.5481 20.0587 52.5654 19.3677 53.2216 19.3158ZM49.7161 20.2488C50.3723 20.2142 50.1651 21.0435 51.1149 20.7153C50.735 21.1818 50.4932 21.8037 49.7161 21.8901C49.5607 21.6655 49.6643 20.2661 49.2499 21.4236C48.3346 21.199 49.388 20.5771 49.7161 20.2488ZM45.0536 16.5169C45.0191 17.0352 44.4665 17.018 43.8794 16.9834C43.9657 16.1541 44.4838 16.3787 45.0536 16.5169ZM44.3629 30.5114C43.6031 30.5632 43.2405 30.235 43.1887 29.5784C43.7412 29.7167 44.2766 29.8894 44.3629 30.5114ZM41.0819 30.7533C41.2719 31.2716 41.859 31.3753 41.7899 32.1527H41.0819C40.6502 31.7381 41.2719 31.5653 41.0819 30.7533ZM40.3912 30.7533C40.3048 31.0643 39.9767 31.1161 39.9249 31.4616C38.9579 31.3061 39.8213 30.0104 40.3912 30.7533ZM42.0317 37.5259C42.4288 37.1113 42.9469 37.595 42.9642 38.2343C42.3598 38.3034 41.9626 38.1479 42.0317 37.5259ZM46.4524 33.7768C46.6423 33.2239 47.4712 33.9668 47.8511 34.0187C47.523 34.6925 46.6941 33.9496 46.4524 33.7768ZM54.1541 35.8846C53.826 35.8673 53.4979 35.85 53.4461 36.1265C53.0489 35.9364 53.4116 34.5543 54.1541 34.727V35.9019V35.8846ZM52.7554 34.2433C51.9092 33.5349 53.8087 33.604 53.9296 33.0684C54.8794 33.8804 52.7036 33.5349 52.7554 34.2433ZM56.2609 34.2433C56.1055 34.4333 55.8982 34.8825 56.2609 34.9516C55.8119 35.2799 55.242 35.4872 54.6204 35.66C55.1211 34.7789 55.6219 35.159 56.2609 34.2605V34.2433ZM56.2609 40.3248C56.1918 39.7201 56.3472 39.3227 56.9689 39.3918C57.2624 39.9447 56.9343 39.8238 57.2106 40.5667C56.7271 40.6704 56.589 40.4112 56.2781 40.3248H56.2609ZM57.4179 34.9516C56.3645 34.9516 57.3833 33.7077 57.4179 33.3103H59.0584C58.7821 34.1223 57.0898 33.5176 57.4179 34.9516Z" fill="#F26B35" fill-opacity="0.2"/>
<path d="M24.5212 48.9634C25.2465 48.7388 24.9529 49.5335 24.9702 50L29.1146 50L29.1146 20.8535H17.0958V18.7111C17.0958 14.1672 20.5667 10.6945 25.6436 10.6945H29.1146V0L21.3611 0C17.9074 0 14.73 0.570145 11.9152 1.62405C12.0706 2.50518 10.9655 2.72979 10.741 2.09053C8.85871 2.91983 7.18367 4.00829 5.73312 5.30408C6.44113 5.23497 6.63108 5.94333 6.32025 6.25432C5.75039 6.32343 5.71585 5.83967 5.62951 5.40774C2.9011 7.89565 1.03611 11.2129 0.3281 15.273C0.466248 15.3766 0.638932 15.4285 0.949764 15.3421C0.673469 15.4285 0.44898 15.6012 0.241758 15.8258C0.103611 16.8452 0 17.8818 0 18.9703L0 49.9827H24.4694C24.1931 49.689 24.1586 49.067 24.5212 48.9461V48.9634ZM21.033 5.77056C21.8618 5.63234 21.741 6.46165 21.741 7.17001H21.033V5.77056ZM13.3312 2.0387C13.2276 2.24603 13.124 2.45335 12.865 2.50518C13.0377 2.72979 13.2967 2.85073 13.573 2.97167C13.1586 4.57844 11.7253 1.74499 13.3312 2.0387ZM8.427 4.61299C7.99529 4.73393 7.23548 5.71873 6.7865 5.07947C6.59655 4.19834 7.89168 4.78576 8.427 4.61299ZM2.12402 23.0477C3.09105 23.2032 2.22763 24.499 1.65777 23.756C1.74411 23.4451 2.07221 23.3932 2.12402 23.0477ZM27.0942 36.8176C26.4898 36.4202 27.4223 35.6082 27.0942 34.7097C27.9749 34.3642 27.5432 35.349 28.2684 35.1762C27.9403 35.7982 27.2841 36.0574 27.0942 36.8176ZM19.3925 29.112C19.9623 29.2502 20.584 29.3193 20.5667 30.0449C19.876 30.0449 19.2543 29.9585 19.3925 29.112ZM15.1962 28.6455C14.3501 28.7146 14.8854 27.4015 14.4882 27.0041C14.7991 26.7104 15.3516 26.7104 15.6625 27.0041C14.7818 27.6952 15.3862 27.9544 15.1962 28.6455ZM2.12402 28.179C1.55416 28.0408 0.932496 27.9717 0.949764 27.246C1.27786 27.6088 2.15856 27.4361 2.12402 28.179ZM3.29827 44.2813C2.67661 44.1949 2.21036 43.0373 3.29827 43.1064C3.45369 43.8321 3.45369 43.5556 3.29827 44.2813ZM2.36578 45.9226C2.2967 45.1624 2.64207 44.7996 3.29827 44.7478C3.29827 44.9724 3.59184 44.9205 3.76452 44.9896C3.76452 45.7671 3.10832 45.888 2.36578 45.9226ZM16.8195 33.0857C16.9921 33.103 17.0958 33.0857 17.1648 32.9993C17.2166 32.9648 17.2684 32.9129 17.2857 32.8438C17.3548 32.8784 17.4066 32.9302 17.4584 32.982C17.6829 33.2066 17.7865 33.5349 17.752 34.0014C17.0267 34.105 16.7159 33.7941 16.8195 33.0684V33.0857ZM20.5494 39.8583C20.325 39.8583 20.3768 39.5646 20.3077 39.3918C20.2732 38.9599 19.5133 39.2536 19.3752 38.9254C19.4961 38.5798 19.7206 38.3379 19.8414 37.9924C20.4976 37.8023 20.4458 38.3207 21.0157 38.2343C20.6531 38.9945 20.6703 39.2709 20.5494 39.8756V39.8583Z" fill="#F26B35" fill-opacity="0.2"/>
</g>
<defs>
<clipPath id="clip0_328_109103">
<rect width="66" height="50" fill="white"/>
</clipPath>
</defs>
</svg>
