<svg width="36" height="36" viewBox="0 0 36 36" fill="none" xmlns="http://www.w3.org/2000/svg">
<path d="M15.108 31.224C15.036 31.26 14.964 31.296 14.88 31.332C14.724 31.404 14.568 31.428 14.4 31.428C14.232 31.428 14.076 31.392 13.92 31.332C8.016 28.752 4.2 22.92 4.2 16.476V9.9C4.2 9.432 4.476 9 4.908 8.808L13.908 4.716C14.22 4.572 14.58 4.572 14.904 4.716L23.904 8.808C24.336 9 24.612 9.432 24.612 9.9V12.06C25.008 12.024 25.404 12 25.812 12C26.844 12 27.852 12.144 28.812 12.372V7.2C28.812 6.732 28.536 6.3 28.104 6.108L14.892 0.108C14.58 -0.036 14.22 -0.036 13.896 0.108L0.708 6.108C0.276 6.3 0 6.732 0 7.2V16.476C0 24.672 4.872 32.052 12.42 35.256L13.932 35.904C14.088 35.964 14.244 36 14.4 36C14.556 36 14.724 35.964 14.868 35.904L16.38 35.256C16.932 35.016 17.472 34.752 18 34.476C16.86 33.564 15.876 32.472 15.108 31.224Z" fill="#F26B35"/>
<path d="M22.2016 12.5279V10.6799L14.4016 7.13989L6.60156 10.6799V16.4759C6.60156 21.5879 9.42156 26.2439 13.8736 28.6319C13.4416 27.3599 13.2016 26.0039 13.2016 24.5999C13.2016 18.8999 17.0056 14.0879 22.2016 12.5279Z" fill="#F26B35"/>
<path d="M25.8016 14.3999C20.1736 14.3999 15.6016 18.9719 15.6016 24.5999C15.6016 30.2279 20.1736 34.7999 25.8016 34.7999C31.4296 34.7999 36.0016 30.2279 36.0016 24.5999C36.0016 18.9719 31.4296 14.3999 25.8016 14.3999ZM30.6376 22.9559L25.7056 27.9359C25.4776 28.1639 25.1776 28.2959 24.8536 28.2959C24.5416 28.2959 24.2296 28.1639 24.0016 27.9479L20.9656 24.9119C20.4976 24.4439 20.4976 23.6879 20.9656 23.2079C21.4336 22.7399 22.1896 22.7399 22.6696 23.2079L24.8536 25.3919L28.9336 21.2759C29.4016 20.8079 30.1576 20.7959 30.6256 21.2759C31.0936 21.7439 31.1056 22.4999 30.6256 22.9679L30.6376 22.9559Z" fill="#2A567D"/>
</svg>
