<svg width="36" height="36" viewBox="0 0 36 36" fill="none" xmlns="http://www.w3.org/2000/svg">
<path d="M14.5979 21.577H9.31202V15.4897C9.31202 15.1316 9.07038 14.8187 8.72406 14.7281C8.37774 14.6376 8.01377 14.7919 7.83842 15.1041L1.61648 26.1796C1.4796 26.4233 1.4822 26.7214 1.62337 26.9627C1.76454 27.204 2.02306 27.3523 2.30266 27.3524L7.71799 27.3542V33.4418C7.71799 33.8012 7.96132 34.1149 8.3094 34.2044C8.37464 34.2211 8.44038 34.2292 8.50534 34.2292C8.78726 34.2292 9.05428 34.0772 9.19503 33.8213L15.2878 22.7437C15.4219 22.4998 15.4173 22.2032 15.2756 21.9636C15.1339 21.7241 14.8763 21.577 14.5979 21.577Z" fill="#2A567D"/>
<path d="M2.46553 20.3553L5.99584 14.071C6.5078 13.1595 7.47548 12.5931 8.52113 12.5931C8.76791 12.5931 9.01426 12.6248 9.25336 12.6872C10.528 13.0209 11.4174 14.1731 11.4174 15.4896V19.4677H14.5942C15.6134 19.4677 16.5687 20.0127 17.0874 20.8899C17.216 21.1074 17.3136 21.3385 17.3804 21.5767H18.6075L20.9085 17.0613C21.8736 15.1673 23.7937 13.9907 25.9195 13.9907C28.0452 13.9907 29.9654 15.1672 30.9305 17.0613L32.838 20.8047C34.7206 19.7557 35.997 17.7448 35.997 15.4411C35.997 13.8179 35.3692 12.2879 34.2291 11.1328C33.3204 10.212 32.1694 9.61333 30.9181 9.39707C30.4523 6.32459 27.7931 3.96219 24.5926 3.96219C23.3875 3.96219 22.2363 4.29199 21.2386 4.90927C20.516 3.41177 19.3804 2.17103 17.9985 1.31112C16.6562 0.476037 15.0812 0 13.4244 0C8.6429 0 4.75284 3.89006 4.75284 8.67152C4.75284 8.93326 4.76466 9.19494 4.78807 9.45521C3.63724 9.71218 2.58315 10.2972 1.74252 11.159C0.618827 12.3109 0 13.8317 0 15.4412C0 17.4493 0.96979 19.2352 2.46553 20.3553Z" fill="#F26B35"/>
<path d="M29.0524 18.019C28.4492 16.8353 27.2491 16.1 25.9206 16.1C24.5921 16.1 23.392 16.8353 22.7888 18.019L16.2304 30.8892C15.6708 31.9874 15.7212 33.2705 16.3652 34.3215C17.0092 35.3725 18.1295 36 19.3622 36H32.4791C33.7117 36 34.8321 35.3725 35.4761 34.3215C36.1201 33.2705 36.1704 31.9874 35.6108 30.8892L29.0524 18.019ZM24.767 23.1146C24.767 22.5322 25.2392 22.06 25.8216 22.06C26.404 22.06 26.8762 22.5322 26.8762 23.1146V27.2367C26.8762 27.8191 26.404 28.2913 25.8216 28.2913C25.2392 28.2913 24.767 27.8191 24.767 27.2367V23.1146ZM25.8214 32.4397C25.0415 32.4528 24.5107 31.5702 24.892 30.8887C25.2955 30.1087 26.4689 30.1662 26.7952 30.9816C27.0926 31.6509 26.553 32.4564 25.8214 32.4397Z" fill="#F26B35"/>
</svg>
