<svg width="36" height="36" viewBox="0 0 36 36" fill="none" xmlns="http://www.w3.org/2000/svg">
<path d="M23.1429 30.8379C22.4897 31.1001 21.8147 31.32 21.1166 31.4807L20.8337 35.1656C20.7977 35.6361 20.4043 36 19.9324 36H16.0663C15.5944 36 15.2023 35.6361 15.1663 35.1669L14.8834 31.482C13.3689 31.1336 11.9533 30.5357 10.674 29.7347L7.86471 32.1429C7.506 32.4501 6.97243 32.4296 6.63814 32.0953L3.90471 29.3619C3.57043 29.0276 3.55114 28.494 3.85714 28.1353L6.26529 25.326C5.46557 24.0467 4.86771 22.6311 4.518 21.1166L0.833143 20.8337C0.363857 20.7977 0 20.4043 0 19.9324V16.0663C0 15.5944 0.363857 15.2023 0.833143 15.1663L4.518 14.8834C4.86643 13.3689 5.46429 11.9533 6.26529 10.674L3.85843 7.86471C3.55114 7.50728 3.57171 6.97243 3.90471 6.63943L6.63814 3.906C6.97114 3.573 7.506 3.55243 7.86471 3.85843L10.674 6.26657C11.9533 5.46686 13.3689 4.869 14.8834 4.51929L15.1663 0.834428C15.2023 0.363857 15.5957 0 16.0676 0H19.9337C20.4056 0 20.7977 0.363857 20.8337 0.833143L20.8504 1.04786C19.8527 2.57914 19.2857 4.38428 19.2857 6.29357C19.2857 7.839 19.6509 9.32014 20.3181 10.6419C19.5866 10.4104 18.8074 10.2857 18 10.2857C13.7391 10.2857 10.2857 13.7391 10.2857 18C10.2857 22.2609 13.7391 25.7143 18 25.7143C19.9787 25.7143 21.7774 24.9634 23.1429 23.7381V30.8379Z" fill="#F26B35"/>
<path d="M32.1412 12.586V32.7858C32.1412 34.5614 30.7025 36.0001 28.9269 36.0001C27.1513 36.0001 25.7126 34.5614 25.7126 32.7858V12.586C23.424 11.4147 21.8555 9.03995 21.8555 6.29238C21.8555 3.63738 23.3212 1.32824 25.4863 0.119667C25.5853 0.0656675 25.7126 0.14281 25.7126 0.255953V7.71438L28.9269 9.0001L32.1412 7.71438V0.255953C32.1412 0.14281 32.2685 0.0656677 32.3675 0.120953C34.5326 1.32952 35.9983 3.63738 35.9983 6.29367C35.9983 9.03995 34.4298 11.416 32.1412 12.586Z" fill="#2A567D"/>
</svg>
