<svg width="16" height="16" viewBox="0 0 16 16" fill="none" xmlns="http://www.w3.org/2000/svg">
<g clip-path="url(#clip0_342_33056)">
<path d="M11.1241 1.72061C11.0399 1.14251 10.5358 0.706543 9.95166 0.706543H6.05013C5.46591 0.706543 4.96187 1.14251 4.87769 1.72064L4.67188 3.13386H5.64981L5.83528 1.86007C5.85072 1.75414 5.94306 1.67426 6.05013 1.67426H9.95166C10.0587 1.67426 10.1511 1.75417 10.1665 1.86007L10.3519 3.13382H11.3299L11.1241 1.72061Z" fill="#2A567D"/>
<path d="M14.264 10.1814H10.0747V10.7462C10.0747 10.9249 9.97619 11.0891 9.81853 11.1732L8.22772 12.0215C8.15656 12.0595 8.07831 12.0785 8 12.0785C7.92175 12.0785 7.84344 12.0595 7.77228 12.0215L6.18147 11.1732C6.02378 11.0891 5.92531 10.9249 5.92531 10.7462V10.1814H1.73597C1.07559 10.1814 0.470031 9.94306 0 9.54834V14.6996C0 15.027 0.266406 15.2935 0.593875 15.2935H15.4061C15.7336 15.2935 16 15.0271 16 14.6996V9.54834C15.5299 9.94306 14.9244 10.1814 14.264 10.1814Z" fill="#F26B35"/>
<path d="M15.4061 4.10156H0.593875C0.266406 4.10156 0 4.368 0 4.69544V7.47784C0 8.43506 0.77875 9.21381 1.73597 9.21381H5.92531V8.36622C5.92531 8.099 6.14197 7.88234 6.40919 7.88234H9.59084C9.85806 7.88234 10.0747 8.099 10.0747 8.36622V9.21381H14.264C15.2213 9.21381 16 8.43506 16 7.47784V4.69544C16 4.368 15.7336 4.10156 15.4061 4.10156Z" fill="#F26B35"/>
<path d="M6.89062 8.8501V10.4561L7.99756 11.0464L9.1045 10.4561V8.8501H6.89062Z" fill="#2A567D"/>
</g>
<defs>
<clipPath id="clip0_342_33056">
<rect width="16" height="16" fill="white"/>
</clipPath>
</defs>
</svg>
