<svg width="22" height="12" viewBox="0 0 22 12" fill="none" xmlns="http://www.w3.org/2000/svg">
    <path
        d="M21.7202 5.31528C21.7202 5.31528 21.7198 5.3148 21.7193 5.31431L16.7432 0.281754C16.3703 -0.0952044 15.7674 -0.0937527 15.396 0.285141C15.0251 0.664035 15.0265 1.27665 15.3994 1.65361L18.7403 5.0322L0.952371 5.0322C0.426186 5.0322 0 5.46529 0 6C0 6.53471 0.426186 6.9678 0.952371 6.9678L18.7407 6.9678L15.3998 10.3464C15.027 10.7233 15.0256 11.336 15.3965 11.7149C15.7674 12.0938 16.3708 12.0952 16.7436 11.7182L21.7198 6.68569C21.7198 6.68569 21.7202 6.6852 21.7207 6.68472C22.0936 6.30631 22.0926 5.69176 21.7207 5.3148L21.7202 5.31528Z"
        fill="#000" />
</svg>