<svg width="36" height="36" viewBox="0 0 36 36" fill="none" xmlns="http://www.w3.org/2000/svg">
<path d="M18.0004 5.40039C15.5083 5.40039 13.0723 6.13937 11.0002 7.52387C8.92815 8.90838 7.31318 10.8762 6.35951 13.1786C5.40585 15.4809 5.15633 18.0144 5.6425 20.4585C6.12868 22.9027 7.32871 25.1478 9.09085 26.9099C10.853 28.6721 13.0981 29.8721 15.5423 30.3583C17.9864 30.8445 20.5199 30.5949 22.8222 29.6413C25.1245 28.6876 27.0924 27.0726 28.4769 25.0006C29.8614 22.9285 30.6004 20.4924 30.6004 18.0004C30.5967 14.6598 29.2681 11.457 26.9059 9.09487C24.5437 6.7327 21.341 5.40404 18.0004 5.40039ZM23.7364 22.3444C23.6247 22.4859 23.4825 22.6004 23.3205 22.6793C23.1584 22.7583 22.9807 22.7997 22.8004 22.8004C22.529 22.8025 22.2656 22.7091 22.0562 22.5364L17.2562 18.9364C17.1149 18.8246 17.0005 18.6824 16.9216 18.5204C16.8427 18.3583 16.8013 18.1806 16.8004 18.0004V9.60039C16.8004 9.28213 16.9268 8.97691 17.1519 8.75186C17.3769 8.52682 17.6821 8.40039 18.0004 8.40039C18.3187 8.40039 18.6239 8.52682 18.8489 8.75186C19.074 8.97691 19.2004 9.28213 19.2004 9.60039V17.4244L23.5445 20.6644C23.6694 20.7606 23.7737 20.881 23.8513 21.0183C23.9288 21.1556 23.9779 21.3071 23.9958 21.4638C24.0137 21.6205 24 21.7791 23.9554 21.9304C23.9109 22.0817 23.8364 22.2224 23.7364 22.3444Z" fill="#F26B35"/>
<path d="M18 0C14.4399 0 10.9598 1.05568 7.99974 3.03355C5.03966 5.01141 2.73255 7.82263 1.37018 11.1117C0.00779929 14.4008 -0.348661 18.02 0.345873 21.5116C1.04041 25.0033 2.75474 28.2106 5.27208 30.7279C7.78943 33.2453 10.9967 34.9596 14.4884 35.6541C17.98 36.3487 21.5992 35.9922 24.8883 34.6298C28.1774 33.2674 30.9886 30.9603 32.9665 28.0003C34.9443 25.0402 36 21.5601 36 18C35.9942 13.2279 34.0959 8.65289 30.7215 5.27849C27.3471 1.90409 22.7721 0.00580501 18 0ZM18 33.08C15.0175 33.08 12.1019 32.1955 9.62202 30.5385C7.14213 28.8815 5.20929 26.5264 4.06792 23.7709C2.92655 21.0154 2.62792 17.9833 3.20978 15.058C3.79165 12.1328 5.22788 9.44582 7.33685 7.33684C9.44582 5.22787 12.1328 3.79164 15.058 3.20978C17.9833 2.62791 21.0154 2.92655 23.7709 4.06791C26.5264 5.20928 28.8815 7.14212 30.5385 9.62201C32.1956 12.1019 33.08 15.0175 33.08 18C33.0761 21.9983 31.4861 25.8317 28.6589 28.6589C25.8317 31.4861 21.9983 33.0761 18 33.08Z" fill="#2A567D"/>
</svg>
