<svg width="40" height="40" viewBox="0 0 40 40" fill="none" xmlns="http://www.w3.org/2000/svg">
<circle cx="20" cy="20" r="20" fill="#34A853"/>
<path d="M28.09 18.284H28.03C27.77 18.284 27.49 18.5442 27.44 18.6042C27.25 18.7943 27.25 19.0445 27.25 19.1946C27.25 19.3246 27.26 19.4547 27.28 19.5948C27.3 19.7349 27.31 19.8749 27.31 20.035C27.31 24.0573 24.03 27.3291 20 27.3291C15.97 27.3291 12.69 24.0472 12.69 20.025C12.69 16.0028 15.97 12.741 20 12.741C21.15 12.741 22.27 13.0011 23.26 13.4814C23.38 13.5814 23.55 13.5814 23.63 13.5814C23.96 13.5814 24.22 13.4113 24.39 13.0912C24.48 12.831 24.48 12.6609 24.4 12.4208C24.36 12.3307 24.2 12.0306 23.98 11.9205C22.68 11.3102 21.35 11 20.01 11C15.04 11.06 11 15.1123 11 20.025C11 24.9377 15.04 29 20 29C24.96 29 29 24.9778 29 20.025C29 19.6948 29 19.3646 28.93 19.0145C28.93 18.6442 28.54 18.274 28.09 18.274V18.284Z" fill="white"/>
<path d="M17.87 18.5342C17.7 18.3641 17.51 18.284 17.28 18.284C17.05 18.284 16.86 18.3641 16.69 18.5342C16.52 18.7043 16.44 18.8944 16.44 19.1245C16.44 19.3546 16.52 19.5447 16.69 19.7148L19.41 22.4263C19.58 22.5964 19.77 22.6765 20 22.6765C20.23 22.6765 20.42 22.5964 20.59 22.4263L28.75 14.2918C28.91 14.1317 29 13.9216 29 13.7015C29 13.4814 28.91 13.2713 28.75 13.1112C28.58 12.9411 28.39 12.861 28.16 12.861C27.93 12.861 27.74 12.9411 27.57 13.1112L20 20.6554L17.87 18.5342Z" fill="white"/>
</svg>
