<svg width="40" height="40" viewBox="0 0 40 40" fill="none" xmlns="http://www.w3.org/2000/svg">
<circle cx="20" cy="20" r="20" fill="#EE4549"/>
<path d="M20.0006 21.2382C19.4965 21.2382 19.0734 21.6469 19.0734 22.1355C19.0734 22.6241 19.4965 23.0328 20.0006 23.0328C20.5047 23.0328 20.9277 22.6241 20.9007 22.1532C20.9187 21.638 20.5047 21.2293 20.0006 21.2293V21.2382Z" fill="white"/>
<path d="M28.5612 24.4275C29.1463 23.4503 29.1463 22.2954 28.5612 21.3182L22.7731 11.5636C22.197 10.5775 21.1618 10 20.0006 10C18.8393 10 17.8042 10.5863 17.228 11.5636L11.431 21.327C10.8549 22.3132 10.8549 23.477 11.44 24.4542C12.0161 25.4137 13.0513 26 14.2035 26H25.7796C26.9409 26 27.9761 25.4137 28.5612 24.4364V24.4275ZM27.3009 23.7257C26.9769 24.2676 26.4098 24.5875 25.7706 24.5875H14.2035C13.5734 24.5875 13.0063 24.2765 12.6912 23.7435C12.3761 23.2104 12.3671 22.5708 12.6912 22.0289L18.4883 12.2654C18.8033 11.7324 19.3614 11.4125 20.0006 11.4125C20.6397 11.4125 21.1978 11.7324 21.5129 12.2654L27.3099 22.0289C27.625 22.553 27.616 23.1838 27.3009 23.7257Z" fill="white"/>
<path d="M19.7665 14.9306C19.3254 15.055 19.0554 15.437 19.0554 15.9167C19.0734 16.201 19.1004 16.4853 19.1184 16.7696C19.1814 17.8534 19.2444 18.9106 19.3074 19.9944C19.3254 20.3587 19.6225 20.6252 20.0006 20.6252C20.3786 20.6252 20.6757 20.3409 20.6937 19.9678C20.6937 19.7457 20.6937 19.5414 20.7117 19.3104C20.7567 18.6174 20.7927 17.9245 20.8377 17.2315C20.8557 16.7785 20.9007 16.3343 20.9187 15.8812C20.9187 15.7213 20.9007 15.5791 20.8377 15.4281C20.6487 15.0283 20.2076 14.824 19.7665 14.9217V14.9306Z" fill="white"/>
</svg>
