<svg width="36" height="36" viewBox="0 0 36 36" fill="none" xmlns="http://www.w3.org/2000/svg">
<g clip-path="url(#clip0_1621_7799)">
<path d="M27.1016 26.6934L25.6328 23.7559L24.1641 26.6934H27.1016Z" fill="#2A567D"/>
<path d="M32.8404 15.2624H31.3462V12.1009C31.3462 11.8026 31.2199 11.5184 30.9986 11.3184C30.7773 11.1184 30.4815 11.0216 30.185 11.0516C30.0171 11.0687 26.2555 11.494 24.3828 15.2624H22.8502V17.5749C22.8502 20.4819 20.4851 22.847 17.5781 22.847H15.2656V32.8372C15.2656 34.5812 16.6845 35.9999 18.4284 35.9999H32.8404C34.5843 36 36.0032 34.5812 36.0032 32.8373V18.4252C36.0032 16.6812 34.5843 15.2624 32.8404 15.2624ZM20.4573 29.3932L24.6909 20.9258C24.8696 20.5685 25.2348 20.3428 25.6343 20.3428C26.0338 20.3428 26.399 20.5685 26.5777 20.9258L30.8114 29.3932C31.0719 29.9142 30.8607 30.5477 30.3398 30.8083C29.8188 31.0688 29.1853 30.8576 28.9247 30.3366L28.1578 28.8028H23.111L22.3441 30.3366C22.1593 30.7062 21.7868 30.9198 21.3999 30.9198C21.2414 30.9198 21.0805 30.884 20.9291 30.8083C20.408 30.5477 20.1969 29.9142 20.4573 29.3932Z" fill="#2A567D"/>
<path d="M11.366 8.88327H9.36719C9.49769 9.92818 9.83216 10.8067 10.3666 11.5146C10.901 10.8067 11.2355 9.92818 11.366 8.88327Z" fill="#F26B35"/>
<path d="M17.5749 20.7376C19.3189 20.7376 20.7376 19.3188 20.7376 17.5749V3.1628C20.7376 1.41884 19.3188 0 17.5749 0H3.1628C1.41884 0 0 1.41884 0 3.1628V17.5749C0 19.3189 1.41884 20.7376 3.16273 20.7376H4.65701V23.8991C4.65701 24.1973 4.78329 24.4816 5.00456 24.6816C5.19933 24.8576 5.45161 24.9538 5.71163 24.9538C5.74699 24.9538 5.78264 24.952 5.81815 24.9484C5.98605 24.9313 9.74763 24.5059 11.6204 20.7376H17.5749ZM10.9309 14.6864C10.7464 14.5879 10.558 14.4768 10.3688 14.3531C10.1796 14.4768 9.99127 14.588 9.80677 14.6864C8.00719 15.6461 6.21077 15.6572 6.13519 15.6572C5.55272 15.6572 5.0805 15.185 5.0805 14.6025C5.0805 14.02 5.55272 13.5478 6.13519 13.5478C6.14447 13.5477 7.44574 13.5288 8.74055 12.8635C7.99973 11.9149 7.41586 10.6277 7.24718 8.88328H6.13512C5.55265 8.88328 5.08043 8.41106 5.08043 7.82859C5.08043 7.24612 5.55265 6.77391 6.13512 6.77391H9.31416V6.13512C9.31416 5.55265 9.78638 5.08043 10.3688 5.08043C10.9513 5.08043 11.4235 5.55265 11.4235 6.13512V6.77391H14.6025C15.185 6.77391 15.6572 7.24612 15.6572 7.82859C15.6572 8.41106 15.185 8.88328 14.6025 8.88328H13.4906C13.3218 10.6277 12.738 11.9149 11.9972 12.8635C13.2919 13.5288 14.5934 13.5477 14.6069 13.5478C15.1893 13.5478 15.6594 14.02 15.6594 14.6025C15.6594 15.185 15.185 15.6572 14.6025 15.6572C14.5269 15.6572 12.7305 15.6462 10.9309 14.6864Z" fill="#F26B35"/>
<path d="M25.7148 6.03416C25.9208 6.2401 26.1907 6.34311 26.4605 6.34311C26.7304 6.34311 27.0004 6.24017 27.2063 6.03416C27.6182 5.62227 27.6182 4.95451 27.2063 4.54262L26.9035 4.23985C30.7854 4.46984 33.8732 7.70028 33.8732 11.6389C33.8732 12.2214 34.3455 12.6936 34.9279 12.6936C35.5104 12.6936 35.9826 12.2214 35.9826 11.6389C35.9826 6.52909 31.9366 2.34704 26.8801 2.12661L27.2063 1.80043C27.6182 1.38854 27.6182 0.720782 27.2063 0.308892C26.7945 -0.102929 26.1266 -0.102999 25.7147 0.308892L23.598 2.42579C23.1861 2.83768 23.1861 3.50544 23.598 3.91733L25.7148 6.03416Z" fill="#2A567D"/>
<path d="M10.2679 29.9447C9.85605 29.5329 9.18823 29.5329 8.77634 29.9447C8.36445 30.3566 8.36445 31.0244 8.77634 31.4363L9.0791 31.739C5.19722 31.5091 2.10938 28.2786 2.10938 24.34C2.10938 23.7575 1.63716 23.2853 1.05469 23.2853C0.472219 23.2853 0 23.7575 0 24.34C0 29.4498 4.04599 33.6319 9.10252 33.8523L8.77634 34.1785C8.36445 34.5904 8.36445 35.2581 8.77634 35.67C8.98228 35.876 9.25221 35.9789 9.52207 35.9789C9.79193 35.9789 10.0619 35.876 10.2678 35.6699L12.3846 33.5531C12.7965 33.1412 12.7965 32.4735 12.3846 32.0616L10.2679 29.9447Z" fill="#F26B35"/>
</g>
<defs>
<clipPath id="clip0_1621_7799">
<rect width="36" height="36" fill="white"/>
</clipPath>
</defs>
</svg>
