<svg width="16" height="16" viewBox="0 0 16 16" fill="none" xmlns="http://www.w3.org/2000/svg">
<path d="M11.8762 5.52197C11.6601 4.65815 11.1617 3.89129 10.4599 3.34316C9.75819 2.79502 8.89344 2.49704 8.00301 2.49652C7.11257 2.496 6.24748 2.79298 5.54511 3.3403C4.84274 3.88762 4.34335 4.65391 4.12625 5.51747C3.10216 5.61358 2.15446 6.1005 1.48 6.87708C0.805529 7.65367 0.456143 8.66022 0.50441 9.68768C0.552678 10.7151 0.994889 11.6845 1.73919 12.3944C2.48349 13.1044 3.47266 13.5003 4.50125 13.5H6.00125C6.13386 13.5 6.26103 13.4473 6.3548 13.3535C6.44857 13.2598 6.50125 13.1326 6.50125 13C6.50125 12.8674 6.44857 12.7402 6.3548 12.6464C6.26103 12.5526 6.13386 12.5 6.00125 12.5H4.50125C4.10728 12.5011 3.71695 12.4247 3.35253 12.275C2.98812 12.1253 2.65675 11.9052 2.37737 11.6275C1.81312 11.0665 1.49482 10.3044 1.4925 9.50872C1.49018 8.71307 1.80402 7.94909 2.36499 7.38484C2.92596 6.82059 3.6881 6.50229 4.48375 6.49997C4.61205 6.50963 4.73936 6.47129 4.84098 6.39239C4.94261 6.31349 5.01131 6.19966 5.03375 6.07297C5.13556 5.359 5.49154 4.70573 6.03631 4.23314C6.58108 3.76054 7.27806 3.50035 7.99925 3.50035C8.72044 3.50035 9.41742 3.76054 9.96219 4.23314C10.507 4.70573 10.8629 5.359 10.9647 6.07297C10.9909 6.19526 11.0587 6.30468 11.1565 6.38255C11.2544 6.46042 11.3762 6.50193 11.5012 6.49997C12.2969 6.49997 13.06 6.81604 13.6226 7.37865C14.1852 7.94126 14.5012 8.70432 14.5012 9.49997C14.5012 10.2956 14.1852 11.0587 13.6226 11.6213C13.06 12.1839 12.2969 12.5 11.5012 12.5H10.0012C9.86864 12.5 9.74146 12.5526 9.6477 12.6464C9.55393 12.7402 9.50125 12.8674 9.50125 13C9.50125 13.1326 9.55393 13.2598 9.6477 13.3535C9.74146 13.4473 9.86864 13.5 10.0012 13.5H11.5012C12.5223 13.4893 13.5006 13.0885 14.2357 12.3798C14.9708 11.671 15.407 10.708 15.455 9.688C15.5029 8.66801 15.159 7.6683 14.4936 6.89373C13.8282 6.11916 12.8918 5.62839 11.8762 5.52197Z" fill="white"/>
<path d="M10.1482 9.85352C10.2425 9.94459 10.3688 9.99499 10.4999 9.99385C10.631 9.99271 10.7564 9.94013 10.8491 9.84742C10.9418 9.75472 10.9944 9.62931 10.9955 9.49822C10.9966 9.36712 10.9462 9.24082 10.8552 9.14651L8.35517 6.64652C8.2614 6.55278 8.13425 6.50012 8.00167 6.50012C7.86909 6.50012 7.74193 6.55278 7.64817 6.64652L5.14817 9.14651C5.05709 9.24082 5.00669 9.36712 5.00783 9.49822C5.00897 9.62931 5.06155 9.75472 5.15426 9.84742C5.24696 9.94013 5.37237 9.99271 5.50347 9.99385C5.63457 9.99499 5.76087 9.94459 5.85517 9.85352L7.50167 8.20702V14.5C7.50167 14.6326 7.55435 14.7598 7.64811 14.8536C7.74188 14.9473 7.86906 15 8.00167 15C8.13428 15 8.26145 14.9473 8.35522 14.8536C8.44899 14.7598 8.50167 14.6326 8.50167 14.5V8.20702L10.1482 9.85352Z" fill="white"/>
</svg>
