<svg width="36" height="32" viewBox="0 0 36 32" fill="none" xmlns="http://www.w3.org/2000/svg">
<path fill-rule="evenodd" clip-rule="evenodd" d="M27.5402 16.4956C25.8602 16.4956 24.2833 16.8653 22.957 17.4922C27.5991 18.955 30.8854 22.4593 30.9738 26.5584C33.3907 26.2208 35.9991 25.2242 35.9991 22.5076C35.9991 19.2444 32.1233 16.4956 27.5402 16.4956Z" fill="#2A567D"/>
<path fill-rule="evenodd" clip-rule="evenodd" d="M27.4987 14.1811H27.5282C30.6671 14.1811 33.2313 11.3842 33.2313 7.97631C33.2313 4.55238 30.6671 1.75537 27.5282 1.75537C26.9092 1.75537 26.3198 1.86789 25.7598 2.06079C26.7766 3.70042 27.3661 5.67761 27.3661 7.81556C27.3808 9.98565 26.7619 12.0754 25.5977 13.8114C26.2019 14.0525 26.8355 14.1811 27.4987 14.1811Z" fill="#2A567D"/>
<path fill-rule="evenodd" clip-rule="evenodd" d="M13.0273 17.4762C11.701 16.8653 10.1241 16.4956 8.45889 16.4956C3.87576 16.4956 0 19.2444 0 22.5076C0 25.2242 2.59367 26.2048 5.01049 26.5584C5.08418 22.4593 8.37047 18.955 13.0273 17.4762Z" fill="#2A567D"/>
<path fill-rule="evenodd" clip-rule="evenodd" d="M8.45792 14.1811H8.50213C9.16528 14.1811 9.79896 14.0525 10.4032 13.8114C9.28318 12.1397 8.62002 10.066 8.62002 7.81556C8.62002 5.67761 9.20949 3.70042 10.2263 2.06079C9.66633 1.86789 9.07686 1.75537 8.45792 1.75537C5.31899 1.75537 2.76953 4.55238 2.76953 7.97631C2.76953 11.3842 5.31899 14.1811 8.45792 14.1811Z" fill="#2A567D"/>
<path fill-rule="evenodd" clip-rule="evenodd" d="M17.9922 19.1272C12.155 19.1272 7.22266 22.5929 7.22266 26.6952C7.22266 31.9999 15.3278 31.9999 17.9922 31.9999C22.6166 31.9999 28.7647 31.4533 28.7647 26.729C28.7647 22.6074 23.8309 19.1272 17.9922 19.1272Z" fill="#F26B35"/>
<path fill-rule="evenodd" clip-rule="evenodd" d="M17.9946 15.6375H18.0432C19.9516 15.6311 21.7436 14.8129 23.0876 13.3356C24.4331 11.8584 25.1699 9.89884 25.1625 7.82038C25.1625 3.50751 21.9485 0 17.9946 0C14.0422 0 10.8281 3.50751 10.8281 7.82038C10.8281 12.13 14.0422 15.6375 17.9946 15.6375Z" fill="#F26B35"/>
</svg>
