<svg width="40" height="32" viewBox="0 0 40 32" fill="none" xmlns="http://www.w3.org/2000/svg">
<path d="M21.6759 23.9841L20.0195 30.5001L22.9595 26.6451C22.4416 25.8092 22.0105 24.9177 21.6759 23.9841Z" fill="#F26B35"/>
<path d="M12.7203 21.8937L10.017 11.2593H0.234375L14.908 30.5001L12.7203 21.8937Z" fill="#F26B35"/>
<path d="M12.4404 11.2593L17.4639 31.0213L20.8494 17.7031V14.7943C20.8494 13.6376 21.4115 12.5832 22.3159 11.934L22.4874 11.2593H12.4404Z" fill="#F26B35"/>
<path d="M8.79289 8.91107L4.39617 1.99365L0 8.91107H8.79289Z" fill="#F26B35"/>
<path d="M21.8595 8.911L17.4635 1.99365L13.0674 8.911H21.8595Z" fill="#F26B35"/>
<path d="M26.1348 8.91107H34.9276L30.5309 1.99365L26.1348 8.91107Z" fill="#F26B35"/>
<path d="M10.9299 7.89618L15.3261 0.97876H6.5332L10.9299 7.89618Z" fill="#F26B35"/>
<path d="M23.9967 7.8961L28.3928 0.97876H19.6006L23.9967 7.8961Z" fill="#F26B35"/>
<path d="M39.197 13.6803L31.9698 11.2712C31.7288 11.191 31.4682 11.191 31.2273 11.2712L24.0001 13.6803C23.5206 13.8401 23.1973 14.2888 23.1973 14.7942V19.2214C23.1973 24.2842 26.4243 28.7615 31.2273 30.3625C31.3477 30.4026 31.4732 30.4227 31.5985 30.4227C31.7238 30.4227 31.8493 30.4026 31.9698 30.3625C36.7728 28.7615 39.9998 24.2843 39.9998 19.2214V14.7942C39.9998 14.2889 39.6764 13.8401 39.197 13.6803ZM34.9483 20.5334L30.7181 23.1066C30.5281 23.2222 30.3173 23.2777 30.1088 23.2777C29.747 23.2777 29.3918 23.1108 29.163 22.8004L27.914 21.1065C27.5291 20.5846 27.6402 19.8496 28.1621 19.4648C28.6839 19.0799 29.4191 19.1909 29.8039 19.7129L30.4155 20.5422L33.7279 18.5273C34.2821 18.1901 35.0043 18.3662 35.3412 18.9201C35.6781 19.4741 35.5023 20.1964 34.9483 20.5334Z" fill="#2A567D"/>
</svg>
