<svg width="40" height="40" viewBox="0 0 40 40" fill="none" xmlns="http://www.w3.org/2000/svg">
<g clip-path="url(#clip0_328_95845)">
<path d="M20.0001 39.9913C21.9205 39.9913 23.53 38.6315 23.9152 36.8239H16.085C16.4701 38.6315 18.0797 39.9913 20.0001 39.9913Z" fill="#F26B35"/>
<path d="M13.8409 31.9223V34.4752H26.1586V31.9974C26.1586 31.3547 26.2463 30.7229 26.4146 30.1185H13.6006C13.7587 30.6986 13.8409 31.3046 13.8409 31.9223Z" fill="#F26B35"/>
<path d="M29.2433 7.84276C26.8297 5.39864 23.6114 4.02705 20.18 3.98087C16.7096 3.93311 13.427 5.25381 10.9289 7.69793C8.43231 10.1397 7.04115 13.3917 7.01218 16.8552C6.98008 20.6803 8.62411 24.3081 11.5223 26.8078C11.8605 27.099 12.165 27.4215 12.4336 27.7699H27.5829C27.8592 27.4082 28.1731 27.0732 28.5207 26.771C31.3602 24.3002 32.9886 20.7272 32.9886 16.9679C32.9886 13.5295 31.6585 10.2892 29.2433 7.84276ZM28.5489 16.7518C28.4025 16.9859 24.9101 22.4809 20 22.4809C15.0898 22.4809 11.5974 16.9859 11.451 16.7518L11.062 16.1294L11.451 15.5071C11.5974 15.273 15.0898 9.77801 20 9.77801C24.9101 9.77801 28.4025 15.273 28.5489 15.5071L28.938 16.1294L28.5489 16.7518Z" fill="#F26B35"/>
<path d="M20 12.1267C17.2122 12.1267 14.8315 14.866 13.8818 16.1295C14.8315 17.3923 17.2122 20.1323 20 20.1323C22.7878 20.1323 25.1685 17.3923 26.1181 16.1295C25.1692 14.8675 22.7885 12.1267 20 12.1267ZM21.1743 17.3038H18.8257V14.9552H21.1743V17.3038Z" fill="#2A567D"/>
<path d="M5.06836 1.67004L6.72883 0.00957818L9.16417 2.44493L7.50371 4.10539L5.06836 1.67004Z" fill="#2A567D"/>
<path d="M0.00390625 11.7542L0.703791 9.51123L3.99341 10.5377L3.29352 12.7806L0.00390625 11.7542Z" fill="#2A567D"/>
<path d="M5.06543 32.1213L7.50078 29.686L9.16125 31.3465L6.7259 33.7818L5.06543 32.1213Z" fill="#2A567D"/>
<path d="M0 22.057L3.28962 21.0305L3.9895 23.2734L0.699885 24.2999L0 22.057Z" fill="#2A567D"/>
<path d="M30.8311 2.44763L33.2664 0.0122821L34.9269 1.67275L32.4915 4.1081L30.8311 2.44763Z" fill="#2A567D"/>
<path d="M36.0283 10.5454L39.3179 9.51891L40.0178 11.7618L36.7282 12.7883L36.0283 10.5454Z" fill="#2A567D"/>
<path d="M30.8281 31.3488L32.4886 29.6883L34.9239 32.1236L33.2635 33.7841L30.8281 31.3488Z" fill="#2A567D"/>
<path d="M36.0205 23.2463L36.7204 21.0034L40.01 22.0299L39.3101 24.2728L36.0205 23.2463Z" fill="#2A567D"/>
</g>
<defs>
<clipPath id="clip0_328_95845">
<rect width="40" height="40" fill="white"/>
</clipPath>
</defs>
</svg>
