<svg width="36" height="36" viewBox="0 0 36 36" fill="none" xmlns="http://www.w3.org/2000/svg">
<path d="M28.8904 6.09747C27.9729 6.09747 27.2266 6.84553 27.2266 7.76507V28.2349C27.3105 30.4478 30.4771 30.4399 30.5605 28.2349V7.76507C30.5605 6.8456 29.8113 6.09747 28.8904 6.09747Z" fill="#2A567D"/>
<path d="M17.9983 6.09747C17.0773 6.09747 16.3281 6.84553 16.3281 7.76507V28.2349C16.4123 30.4447 19.5851 30.443 19.6685 28.2349V7.76507C19.6685 6.8456 18.9192 6.09747 17.9983 6.09747Z" fill="#F26B35"/>
<path d="M23.4449 12.195C22.5275 12.195 21.7812 12.9431 21.7812 13.8626V22.1375C21.8652 24.3506 25.0317 24.3423 25.1151 22.1375V13.8626C25.1151 12.9431 24.3659 12.195 23.4449 12.195Z" fill="#2A567D"/>
<path d="M34.3278 15.2438C33.4104 15.2438 32.6641 15.9919 32.6641 16.9114V19.0887C32.748 21.3017 35.9145 21.2937 35.9979 19.0887V16.9114C35.9979 15.9919 35.2488 15.2438 34.3278 15.2438Z" fill="#2A567D"/>
<path d="M1.6702 15.2438C0.74925 15.2438 0 15.9919 0 16.9114V19.0887C0.0842344 21.2952 3.25076 21.3001 3.33387 19.0887V16.9114C3.33387 15.9919 2.58757 15.2438 1.6702 15.2438Z" fill="#F26B35"/>
<path d="M7.11552 9.14624C6.19456 9.14624 5.44531 9.89429 5.44531 10.8138V25.1861C5.52955 27.3928 8.69614 27.3975 8.77932 25.1861V10.8138C8.77932 9.89429 8.03295 9.14624 7.11552 9.14624Z" fill="#F26B35"/>
<path d="M12.5529 0C11.632 0 10.8828 0.748055 10.8828 1.6676V34.3324C10.967 36.539 14.1335 36.5437 14.2167 34.3324V1.6676C14.2167 0.748055 13.4703 0 12.5529 0Z" fill="#F26B35"/>
</svg>
